<mxfile host="65bd71144e">
    <diagram id="mBf9uytEZE8F77ZGx7y8" name="Page-1">
        <mxGraphModel dx="2710" dy="1188" grid="0" gridSize="10" guides="1" tooltips="1" connect="1" arrows="1" fold="1" page="0" pageScale="1" pageWidth="827" pageHeight="1169" background="#66B2FF" math="0" shadow="0">
            <root>
                <mxCell id="0"/>
                <mxCell id="1" parent="0"/>
                <mxCell id="10" value="Datalake" style="swimlane;whiteSpace=wrap;html=1;fontSize=12;fontColor=default;" parent="1" vertex="1">
                    <mxGeometry x="735" y="80" width="352" height="1082" as="geometry"/>
                </mxCell>
                <mxCell id="185" value="Data Lake" style="aspect=fixed;perimeter=ellipsePerimeter;html=1;align=center;shadow=0;dashed=0;spacingTop=3;image;image=img/lib/active_directory/folder.svg;" vertex="1" parent="10">
                    <mxGeometry x="14" y="31" width="75" height="102.74" as="geometry"/>
                </mxCell>
                <mxCell id="186" value="Bronze" style="swimlane;whiteSpace=wrap;html=1;fontSize=12;fontColor=default;" vertex="1" parent="10">
                    <mxGeometry x="92.5" y="196" width="167" height="213" as="geometry"/>
                </mxCell>
                <mxCell id="219" value="&lt;font color=&quot;#000000&quot; style=&quot;font-size: 15px;&quot;&gt;&lt;br style=&quot;font-size: 15px;&quot;&gt;&lt;span style=&quot;font-family: Helvetica; font-size: 15px; font-variant-ligatures: normal; font-variant-caps: normal; letter-spacing: normal; orphans: 2; text-align: center; text-indent: 0px; text-transform: none; widows: 2; word-spacing: 0px; -webkit-text-stroke-width: 0px; text-decoration-thickness: initial; text-decoration-style: initial; text-decoration-color: initial; float: none; display: inline !important;&quot;&gt;BRONZE&lt;/span&gt;&lt;br style=&quot;font-size: 15px;&quot;&gt;&lt;/font&gt;" style="strokeWidth=2;html=1;shape=mxgraph.flowchart.database;whiteSpace=wrap;labelBackgroundColor=none;sketch=0;strokeColor=#6D1F00;fillColor=#a0522d;fontColor=#ffffff;fontStyle=1;fontSize=15;labelBorderColor=none;" vertex="1" parent="186">
                    <mxGeometry x="16" y="67" width="135" height="98" as="geometry"/>
                </mxCell>
                <mxCell id="199" value="Silver" style="swimlane;whiteSpace=wrap;html=1;fontSize=12;fontColor=default;" vertex="1" parent="10">
                    <mxGeometry x="92.5" y="483" width="167" height="213" as="geometry"/>
                </mxCell>
                <mxCell id="220" value="&lt;br style=&quot;color: rgb(0, 0, 0);&quot;&gt;&lt;font color=&quot;#000000&quot; style=&quot;font-size: 15px;&quot;&gt;SILVER&lt;br style=&quot;font-size: 15px;&quot;&gt;&lt;/font&gt;" style="strokeWidth=2;html=1;shape=mxgraph.flowchart.database;whiteSpace=wrap;labelBackgroundColor=none;sketch=0;strokeColor=#666666;fillColor=#f5f5f5;fontStyle=1;fontSize=15;labelBorderColor=none;fontColor=#333333;" vertex="1" parent="199">
                    <mxGeometry x="16" y="61" width="135" height="98" as="geometry"/>
                </mxCell>
                <mxCell id="209" value="Gold" style="swimlane;whiteSpace=wrap;html=1;fontSize=12;fontColor=default;startSize=23;" vertex="1" parent="10">
                    <mxGeometry x="92.5" y="775" width="167" height="213" as="geometry"/>
                </mxCell>
                <mxCell id="221" value="&lt;font color=&quot;#000000&quot; style=&quot;font-size: 15px;&quot;&gt;&lt;br style=&quot;font-size: 15px;&quot;&gt;&lt;span style=&quot;font-family: Helvetica; font-size: 15px; font-variant-ligatures: normal; font-variant-caps: normal; letter-spacing: normal; orphans: 2; text-align: center; text-indent: 0px; text-transform: none; widows: 2; word-spacing: 0px; -webkit-text-stroke-width: 0px; text-decoration-thickness: initial; text-decoration-style: initial; text-decoration-color: initial; float: none; display: inline !important;&quot;&gt;GOLD&lt;/span&gt;&lt;br style=&quot;font-size: 15px;&quot;&gt;&lt;/font&gt;" style="strokeWidth=2;html=1;shape=mxgraph.flowchart.database;whiteSpace=wrap;labelBackgroundColor=none;sketch=0;strokeColor=#BD7000;fillColor=#f0a30a;fontColor=#000000;fontStyle=1;fontSize=15;labelBorderColor=none;" vertex="1" parent="209">
                    <mxGeometry x="16" y="51" width="135" height="98" as="geometry"/>
                </mxCell>
                <mxCell id="34" value="Zona de Consumo" style="swimlane;whiteSpace=wrap;html=1;fontSize=12;startSize=23;fontColor=default;" parent="1" vertex="1">
                    <mxGeometry x="1173" y="80" width="462" height="1081" as="geometry"/>
                </mxCell>
                <mxCell id="35" style="edgeStyle=none;html=1;exitX=0.5;exitY=0;exitDx=0;exitDy=0;entryX=0;entryY=0.5;entryDx=0;entryDy=0;fontSize=10;fontColor=default;" parent="34" source="39" edge="1">
                    <mxGeometry relative="1" as="geometry">
                        <Array as="points">
                            <mxPoint x="106" y="398"/>
                        </Array>
                        <mxPoint x="270" y="399.5" as="targetPoint"/>
                    </mxGeometry>
                </mxCell>
                <mxCell id="37" style="edgeStyle=none;html=1;exitX=0.5;exitY=1;exitDx=0;exitDy=0;entryX=0.006;entryY=0.934;entryDx=0;entryDy=0;entryPerimeter=0;fontSize=10;fontColor=default;" parent="34" source="39" target="230" edge="1">
                    <mxGeometry relative="1" as="geometry">
                        <Array as="points">
                            <mxPoint x="110" y="771"/>
                        </Array>
                        <mxPoint x="270" y="771.5" as="targetPoint"/>
                    </mxGeometry>
                </mxCell>
                <mxCell id="39" value="Conzumer" style="swimlane;whiteSpace=wrap;html=1;rounded=0;shadow=0;glass=0;sketch=0;fontColor=default;fontSize=10;" parent="34" vertex="1">
                    <mxGeometry x="33" y="499.5" width="147" height="163" as="geometry"/>
                </mxCell>
                <mxCell id="235" value="" style="aspect=fixed;perimeter=ellipsePerimeter;html=1;align=center;shadow=0;dashed=0;spacingTop=3;image;image=img/lib/active_directory/folder.svg;" vertex="1" parent="39">
                    <mxGeometry x="36" y="40.5" width="75" height="102.74" as="geometry"/>
                </mxCell>
                <mxCell id="230" value="" style="strokeColor=#dddddd;shadow=1;strokeWidth=1;rounded=1;absoluteArcSize=1;arcSize=2;labelPosition=center;verticalLabelPosition=middle;align=center;verticalAlign=bottom;spacingLeft=0;fontColor=#999999;fontSize=12;whiteSpace=wrap;spacingBottom=2;labelBackgroundColor=none;labelBorderColor=none;sketch=0;" vertex="1" parent="34">
                    <mxGeometry x="276" y="607" width="165" height="174" as="geometry"/>
                </mxCell>
                <mxCell id="231" value="&lt;br&gt;&lt;br&gt;&lt;br&gt;&lt;br&gt;&lt;br&gt;&lt;br&gt;&lt;br&gt;&lt;br&gt;&lt;br&gt;&lt;br&gt;&lt;br&gt;&lt;br&gt;&lt;span style=&quot;background-color: rgb(255, 255, 255);&quot;&gt;RELATÃ“RIOS&lt;/span&gt;" style="sketch=0;dashed=0;connectable=0;html=1;fillColor=#757575;strokeColor=none;shape=mxgraph.gcp2.report;part=1;labelBackgroundColor=none;labelBorderColor=none;fontSize=15;fontColor=#000000;" vertex="1" parent="230">
                    <mxGeometry x="0.5" width="134.5" height="152" relative="1" as="geometry">
                        <mxPoint x="-65.5" y="10" as="offset"/>
                    </mxGeometry>
                </mxCell>
                <mxCell id="232" value="OUTROS ARQUIVOS" style="html=1;verticalLabelPosition=bottom;align=center;labelBackgroundColor=#ffffff;verticalAlign=top;strokeWidth=2;strokeColor=#0080F0;shadow=0;dashed=0;shape=mxgraph.ios7.icons.data;labelBorderColor=none;sketch=0;fontSize=15;fontColor=#000000;" vertex="1" parent="34">
                    <mxGeometry x="276" y="336" width="165" height="121.1" as="geometry"/>
                </mxCell>
                <mxCell id="49" value="&lt;font style=&quot;font-size: 30px;&quot;&gt;Arquitetura - Pipeline&lt;/font&gt;" style="rounded=1;arcSize=9;fillColor=none;align=center;spacingLeft=5;strokeColor=#DEE1E6;html=1;strokeWidth=2;fontSize=12;fontColor=default;" parent="1" vertex="1">
                    <mxGeometry x="681" y="20" width="290" height="40" as="geometry"/>
                </mxCell>
                <mxCell id="184" style="edgeStyle=none;shape=link;html=1;exitX=1;exitY=0.25;exitDx=0;exitDy=0;" edge="1" parent="1" source="79">
                    <mxGeometry relative="1" as="geometry">
                        <mxPoint x="545" y="157" as="targetPoint"/>
                    </mxGeometry>
                </mxCell>
                <mxCell id="79" value="Transient" style="swimlane;whiteSpace=wrap;html=1;fontSize=12;fontColor=default;" parent="1" vertex="1">
                    <mxGeometry x="358" y="80" width="167" height="309" as="geometry"/>
                </mxCell>
                <mxCell id="172" value="" style="aspect=fixed;perimeter=ellipsePerimeter;html=1;align=center;shadow=0;dashed=0;spacingTop=3;image;image=img/lib/active_directory/folder.svg;" vertex="1" parent="79">
                    <mxGeometry x="12" y="37" width="36.5" height="50" as="geometry"/>
                </mxCell>
                <mxCell id="173" value="" style="aspect=fixed;perimeter=ellipsePerimeter;html=1;align=center;shadow=0;dashed=0;spacingTop=3;image;image=img/lib/active_directory/folder.svg;" vertex="1" parent="79">
                    <mxGeometry x="62" y="37" width="36.5" height="50" as="geometry"/>
                </mxCell>
                <mxCell id="174" value="" style="aspect=fixed;perimeter=ellipsePerimeter;html=1;align=center;shadow=0;dashed=0;spacingTop=3;image;image=img/lib/active_directory/folder.svg;" vertex="1" parent="79">
                    <mxGeometry x="108" y="37" width="36.5" height="50" as="geometry"/>
                </mxCell>
                <mxCell id="175" value="" style="aspect=fixed;perimeter=ellipsePerimeter;html=1;align=center;shadow=0;dashed=0;spacingTop=3;image;image=img/lib/active_directory/folder.svg;" vertex="1" parent="79">
                    <mxGeometry x="17.25" y="98" width="36.5" height="50" as="geometry"/>
                </mxCell>
                <mxCell id="176" value="" style="aspect=fixed;perimeter=ellipsePerimeter;html=1;align=center;shadow=0;dashed=0;spacingTop=3;image;image=img/lib/active_directory/folder.svg;" vertex="1" parent="79">
                    <mxGeometry x="67.25" y="98" width="36.5" height="50" as="geometry"/>
                </mxCell>
                <mxCell id="177" value="" style="aspect=fixed;perimeter=ellipsePerimeter;html=1;align=center;shadow=0;dashed=0;spacingTop=3;image;image=img/lib/active_directory/folder.svg;" vertex="1" parent="79">
                    <mxGeometry x="113.25" y="98" width="36.5" height="50" as="geometry"/>
                </mxCell>
                <mxCell id="178" value="" style="aspect=fixed;perimeter=ellipsePerimeter;html=1;align=center;shadow=0;dashed=0;spacingTop=3;image;image=img/lib/active_directory/folder.svg;" vertex="1" parent="79">
                    <mxGeometry x="19.25" y="157" width="36.5" height="50" as="geometry"/>
                </mxCell>
                <mxCell id="179" value="" style="aspect=fixed;perimeter=ellipsePerimeter;html=1;align=center;shadow=0;dashed=0;spacingTop=3;image;image=img/lib/active_directory/folder.svg;" vertex="1" parent="79">
                    <mxGeometry x="69.25" y="157" width="36.5" height="50" as="geometry"/>
                </mxCell>
                <mxCell id="180" value="" style="aspect=fixed;perimeter=ellipsePerimeter;html=1;align=center;shadow=0;dashed=0;spacingTop=3;image;image=img/lib/active_directory/folder.svg;" vertex="1" parent="79">
                    <mxGeometry x="115.25" y="157" width="36.5" height="50" as="geometry"/>
                </mxCell>
                <mxCell id="181" value="" style="aspect=fixed;perimeter=ellipsePerimeter;html=1;align=center;shadow=0;dashed=0;spacingTop=3;image;image=img/lib/active_directory/folder.svg;" vertex="1" parent="79">
                    <mxGeometry x="21.25" y="221" width="36.5" height="50" as="geometry"/>
                </mxCell>
                <mxCell id="182" value="" style="aspect=fixed;perimeter=ellipsePerimeter;html=1;align=center;shadow=0;dashed=0;spacingTop=3;image;image=img/lib/active_directory/folder.svg;" vertex="1" parent="79">
                    <mxGeometry x="71.25" y="221" width="36.5" height="50" as="geometry"/>
                </mxCell>
                <mxCell id="183" value="" style="aspect=fixed;perimeter=ellipsePerimeter;html=1;align=center;shadow=0;dashed=0;spacingTop=3;image;image=img/lib/active_directory/folder.svg;" vertex="1" parent="79">
                    <mxGeometry x="117.25" y="221" width="36.5" height="50" as="geometry"/>
                </mxCell>
                <mxCell id="115" value="Fontes de Dados" style="swimlane;whiteSpace=wrap;html=1;fontColor=default;" parent="1" vertex="1">
                    <mxGeometry x="37" y="80" width="310" height="1082" as="geometry">
                        <mxRectangle x="37" y="80" width="132" height="26" as="alternateBounds"/>
                    </mxGeometry>
                </mxCell>
                <mxCell id="119" value="Formatos diversos" style="swimlane;horizontal=0;whiteSpace=wrap;html=1;fontColor=default;startSize=23;" parent="115" vertex="1">
                    <mxGeometry x="18" y="40.18000000000001" width="260" height="120" as="geometry"/>
                </mxCell>
                <mxCell id="120" value="" style="shape=image;verticalLabelPosition=bottom;labelBackgroundColor=default;verticalAlign=top;aspect=fixed;imageAspect=0;image=data:image/png,iVBORw0KGgoAAAANSUhEUgAABAAAAAQACAYAAAB/HSuDAAAACXBIWXMAAAsTAAALEwEAmpwYAAAgAElEQVR4nOzdfaxl133e9z3DmXPIGepeUqSG5IikRFKyKFEUOUMOxTs0KRVQ48BA0ObFKALbteGUUqm4LQoIsovGdtEWad1MCncQ0orq2G1QQ67t2q4U2Y5TI3KjOkD/cZAIsAEZENACtQ2buPFLpVhtfXr3mdlX95y7z9n77Jf1/J61vwtYf3DI+WDttddZ+/cs3nN38ZGPfHh21M8f9aJLK//e7b8/O9Hxgnnnz5+7ePSv/62j/sZR/9+P+u8c9T876oumfubMmVO9zd/Dw8PDw8PDwxvJK2uYspYpa5qytilrnLLWWTbXeg0PDw9vdM9qsHg7e3fdddd7jv7Vp476/134Pdzx8PDw8PDw8Nr2stb51NHffcKtXsPDw8NL5lkNFq+19/DDl/fPnj37w0f/6k+LvB7ueHh4eHh4eHjbvD+9446z/1VZC0Wv1/Dw8PCielaDnbp34cJd7z16+P2zItbDGA8PDw8PDw8vmXf27Jl/dtdddz4ZtV7Dw8PDi+pZDXbq3p13zp8/euj9bhH0YYyHh4eHh4eHl9Ara6Jnih2bW/2Hh4eHN5RnNdipexcvXnj3GcI/Hh4eHh4eHt7Jf3941K8VLZtb/YeHh4c3lGc12Kl7jz768N7Rw+5fFD4PYzw8PDw8PDy8VN6bR/1q0dDc6j88PDy8oTyrweJ9eHb27Nm/Vfg9jPHw8PDw8PDwUnlbDwEc6z88PDy8ITyrweItf+nfuwp+2z8eHh4eHh4eXlOv/TqAY/2Hh4eHN4RnNVi8W97Rv/p04f0wxsPDw8PDw8NL5a38JIBr/YeHh4fX17MaLN4t79y5O/aO/vUfF/4PYzw8PDw8PDy8VN7yEMC1/sPDw8Pr61kNFm/F+7Yin4cxHh4eHh4eHl4q73A2mx2Y1n94eHh4hP+Jep8q8noY4+Hh4eHh4eGl8t6cz+cfNKz/8PDw8Dp5VoPFq/X+aaF/eOLh4eHh4eHhuXrVTwIUXVom9SQeHt5EPKvB4tV6v1fEeHji4eHh4eHh4bl6W18RuKllVE/i4eFNxLMaLF6t1+r1f6YPYzw8PDw8PDy8VF7tKwI3tczqSTw8vIl4VoPFq23RHp54eHh4eHh4eK5eq0OAAPUfHh4eXifParB4tS3iwxMPDw8PDw8Pz9XbeggQpP7Dw8PD6+QVToPFq21RH554eHh4eHh4eK5e7SFAoPoPDw8Pr5NXOA0Wr7ZFfnji4eHh4eHh4bl6K4cAweo/PDw8vG6e1WDx6lr0hyceHh4eHh4enqu3PAQIWP/h4eHhdfOsBotX1xwennh4eHh4eHh4rt7hbDY7CFb/4eHh4XXzrAaLV9dcHp54eHh4eHh4eK7e4Xw+vx6o/sPDw8Mb1bMa7MQ8p4cnHh4eHh4eHp6rV/0kQNGlBa8n8fDw8DwHOzWv8Ht44uHh4eHh4eG5eltfEbipRa8n8fDw8CwHO0XP9OGJh4eHh4eHh+fq7XQI4FBP4uHh4dkNdqqe8cMTDw8PDw8PD8/Va3UI4FJP4uHh4VkNdsqe+cMTDw8PDw8PD8/Ve/OoXy02NKd6Eg8Pb9qe1WCn7mXw8MTDw8PDw8PDc/VqfxLArZ7Ew8Obrmc1WLxbBwCF/8MTDw8PDw8PD8/VWzkEcKwn8fDwpulZDRbvllfk8/DEw8PDw8PDw3P1locArvUkHh7e9DyrweKteDk9PPHw8PDw8PDwXL3D2Wx2YFpP4uHhTcizGizeKU/6sPuzP/uzxde//vVTvfzzLg0PDw8PDw8vf09dv4zoHc7n8+uG9SQeHt5EPKvB4tV60oedc/GBh4eHh4eHp/HU9cvIXvWTALsXf0U29SkeHl5Qz2qweLWe9GHnXHzg4eHh4eHhaTx1/ZLAq307QFPLqD7Fw8ML6lkNFq/Wkz7snIsPPDw8PDw8PI2nrl8SeTsdAmRWn+Lh4QX1rAaLV9ukDzvn4gMPDw8PDw9P46nrl4Req0OAAPUkHh7eRDyrweLVNunDzrn4wMPDw8PDw9N46volsbf1ECBIPYmHhzcRr3AaLF5tkz7snIsPPDw8PDw8PI2nrl8EXu0hQKB6Eg8PbyJe4TRYvNomfdilLBbw8PDw8PDw8vDU9YvIWzkECFZP4uHhTcWzGixeXZM+7FIWC3h4eHh4eHh5eOr6RegtDwEC1pN4eHhT8awGi1fXpA+7lMUCHh4eHh4eXh6eun4Re4ez2ewgWD2Jh4c3Fc9qsHh1TfqwS1ks4OHh4eHh4eXhqeuXAN7hfD6/HqiexMPDw/Md7MQ86cMuZbGAh4eHh4eHl4enrl+CeNVPAnSp/6LXp3h4eMae1WCn5hXih13KYgEPDw8PDw8vD09dvwTytr4icFOLXp/i4eH5elaDnaKnftilLBbw8PDw8PDw8vDU9Uswb6dDAIf6FA8Pz9OzGuxUPfXDzrn4wMPDw8PDw9N46voloNfqEMClPsXDw/PzrAY7ZU/9sHMuPvDw8PDw8PA0nrp+CeptPQRwqk/x8PC8PKvBTt1TP+yciw88PDw8PDw8jaeuXwJ7tYcAbvUpHh6ej2c1WLxbBwCF8GHnXHzg4eHh4eHhaTx1/RLcWzkEcKxP8fDwPDyrweLd8grxw865+MDDw8PDw8PTeOr6xcBbHgK41qd4eHjxPavB4q140oedc/GBh4eHh4eHp/HU9YuJdzibzQ5M61M8PLzAntVg8U550oeTc/GBh4eHh4eHp/HU9YuRdzifz68b1qd4eHhBPavB4tV60oeTc/GBh4eHh4eHp/HU9YuZV/0kQIvq8XTLpN7Fw8MbyLMaLF6tJ304ORcfeHh4eHh4eBpPXb/s7e+7hP/K2/qKwE0to3oXDw9vIM9qsHi1nvTh5Fx84OHh4eHh4Wk8df1y4+brx4cAQ3iJDhN2OgTIrN7Fw8MbyLMaLF5tkz6cnIsPPDw8PDw8PI2nrl9+9nO/tLhx843FW/b2XML/TocAAepTPDy8oJ7VYPFqm/Th5Fx84OHh4eHh4Wk8df3ys5/75cXPff5XFv/13/lUp0MA8e8Q2HoIEKQ+xcPDC+oVToPFq23Sh5Nz8YGHh4eHh4en8dT1Sxn+f/4X/9Gy73oIIA7/Ww8BAtWneHh4Qb3CabB4tU36cEpZLODh4eHh4eHl4anrlyr873oIECT81x4CBKtP8fDwonpWg8Wra9KHU8piAQ8PDw8PDy8PT12/rB8AtDkECBb+Vw4BAtaneHh4UT2rweLVNenDKWWxgIeHh4eHh5eHp65f6g4Ath0CBA3/x4cAs9nsIFh9ioeHF9WzGixeXZM+nFIWC3h4eHh4eHh5eOr6ZdMBQN0hQPDwXxmH8/n8eqD6FA8Pz9yzGuzEPOnDKWWxgIeHh4eHh5eHp65fth0AnDwEMAn/x4cAt38SoEs9Gb3excPDS+hZDXZqXiE+mU5ZLODh4eHh4eHl4anrl6YDgPItATduvrHY2993Cf+Vt/UVgZta9HoXDw8vnWc12Cl66pPplMUCHh4eHh4eXh6eun5pCv8/+7lfPuq/tLhx8/XjQ4CU4+vp7XQI4FDv4uHhpfGsBjtVT/1jac7FBx4eHh4eHp7GU9cvbcJ/1cufBGjzisAhxzeA1+oQwKXexcPDG9+zGuyUPfWPpTkXH3h4eHh4eHgaT12/tA3/5T+Xf970isChxzeQt/UQwKnexcPDG9ezGuzUPfV30pyLDzw8PDw8PDyNp65fdgn/Ta8IHGN8A3q1hwBu9S4eHt54ntVg8W4dABSih2exdgDgVnzg4eHh4eHhaTx1/bJr+N/1ECBI+K89BHCsd/Hw8MbxrAaLd8srhA/P4sQBgGPxgYeHh4eHh6fx1PVLl/Df9hAgWPhfOQRwrXfx8PAI/3jf8JQPE+viAw8PDw8PD0/jqeuXruG/6RAgaPg/PgSYzWYHpvUuHh4e4R/vdpM+TJyLDzw8PDw8PDyNp65f+oT/TYcAwcN/ZRzO5/PrhvUuHh4e4R/vdpM+TJyLDzw8PDw8PDyNp65f+ob/9UMAk/B/fAhw+ycBWlSjp1sm9TMe3mQ9q8Hi1XrSh4lz8YGHh4eHh4en8dT1yxDhv/oawY2bbyz29vddwn/lbX1F4KaWUf2MhzdZz2qweLWe9GHiXHzg4eHh4eHhaTx1/TJU+K9+kuDGzdePDwGGGF+iw4SdDgEyq5/x8CbrWQ0Wr7ZJHybOxQceHh4eHh6exlPXL0OG/6qXPwnQ5hWBiuvd4rU6BAhQ7+Lh4Q3kWQ0Wr7ZJHybOxQceHh4eHh6exlPXL0OH/8prekWg6nobvK2HAEHqXTw8vIG8wmmweLVN+jBxLj7w8PDw8PDwNJ66fhkj/De9IlB5vS3+Xu0hQKB6Fw8PbyCvcBosXm2TPkxSFgt4eHh4eHh4eXjq+mWs8L/rIUCQ8F97CBCs3sXDwxvKsxosXl2TPkxSFgtjeOr5w8PD8/VS71d4eDl56s/vmOG/7SFA0P1veQgQsN7Fw8MbyrMaLF5dkz5MUhYLY3jq+cPDw/P1Uu9XeHg5eerP79jhv+kQIPj+dzibzQ6C1bt4eHhDeVaDxatr0odJymJhDE89f3h4eL5e6v0KDy8nT/35TRH+Nx0CmOx/h/P5/HqgehcPDy+xZzXYiXnSh0nKYmEMTz1/eHh4vl7q/QoPLydP/flNFf7XDwHM9r/qJwGKLi14/YyHh5fLYKfmFeJiOmWxMIannj88PDxfL/V+hYeXk6f+/KYM/5V34+Ybi739fbf9b+srAje16PUzHh5eJoOdoqcuplMWC2N46vnDw8Pz9VLvV3h4OXnqz2/q8F95N26+fnwIYLT/7XQI4FA/4+HhZTDYqXrqYtq5+Cj/vnr+8PDwfD33/Q8PT+mpP7+K8F/18icB2rwiMNj+1+oQwKV+xsPDMx/slD11Me1cfKwXIIr5w8PD8/Xc9z88PKWn/vyqwn/lNb0iMOj+t/UQwKl+xsPDMx7s1D11Me1cfJwsQFTzh4eH5+u57394eEpP/flVhv9Nbwcw2f9qDwHc6mc8PDzTweLdOgAohMW0c/FRFSDK+cPDw/P13Pc/PDylp/78qsP/rocAwfa/lUMAx/oZDw/PcLB4t7xCXEw7Fx9lV88fHh6er+e+/+HhKT315zdC+G97CBBx/ytuHwK41s94eHhmg8Vb8aTFtHPxUf65ev7w8PB8Pff9Dw9P6ak/v1HCf9MhQNT973Y/nM1mB6b1Mx7epD2rweKd8qSbv3PxUTb1/OHh4fl67vsfHp7SU39+I4X/TYcAkfe/E97hfD6/blg/4+FN1rMaLF6tJ938nYuPLgWIycMYDw8vgee+/+HhKT315zda+F8/BIi+/61Z1U8CFF1aJvU4Hp6NZzVYvFpPuvk7Fx+7FiBmD2M8PLyRPff9Dw9P6ak/vxHDf+XduPnGYm9/P/T+V+NtfUXgppZRPY6HZ+NZDRav1pNu/s7Fxy4FiEMYwcPDS+u57394eFN+/kYN/5V34+brx4cAEfe/Dd5OhwCZ1eN4eDae1WDxapt083cuPtoWIC5hBA8PL63nvv/h4U35+Rs5/Fe9/EmANq8IDLaftjoECFA/4+FN1rMaLF5tk27+zsVHmwLEKYzg4eGl9dz3Pzy8KT9/o4f/ymt6RWDQ/XTrIUCQ+hkPb7Je4TRYvNom3fydi4+yqecPDw/P13Pf//Dwpvz8dQj/1X+z6yFAkP209hAgUP2MhzdZr3AaLF5tk27+KYuFMTz1/OHh4fl6qfcrPLycPPXn1yX873oIEGw/XTkECFY/4+FN17MaLF5dk27+KYuFMTz1/OHh4fl6qfcrPLycPPXn1yn8tz0ECLqfLg8BAtbPeHjT9awGi1fXpJt/ymJhDE89f3h4eL5e6v0KDy8nT/35dQv/TYcAwffTw9lsdhCsfsbDm65nNVi8uibd/FMWC2N46vnDw8Pz9VLvV3h4OXnqz69j+N90CGCynx7O5/PrgepnPDy8nAY7MU+6+acsFsbw1POHh4fn66Xer/DwcvLUn1/X8L9+CGC2n1Y/CVB0acHrcTy8rDyrwU7NK8TFdMpiYQxPPX94eHi+Xur9Cg8vJ0/9+XUO/5V34+Ybi739fbf9dOsrAje16PU4Hl5OntVgp+ipi+mUxcIYnnr+8PDwfL3U+xUeXk6e+vPrHv4r78bN148PAYz2050OARzqcTy8XDyrwU7VUxfTzsVH+ffV84eHh+frue9/eHhKT/35zSH8V738SYA2rwgMtp+2OgRwqcfx8HLwrAY7ZU9dTDsXH+sFiGL+8PDwfD33/Q8PT+mpP7+5hP/Ka3pFYND9dOshgFM9jofn7lkNduqeuph2Lj5OFiCq+cPDw/P13Pc/PDylp/785hT+q/9m10OAIPtp7SGAWz2Oh+fsWQ0W79YBQCEspp2Lj6oAUc4fHh6er+e+/+HhKT3151cd1sfy2h4CBNtPVw4BHOtxPDxXz2qweLe8QlxMOxcfZVfPHx4enq/nvv/h4Sk99ec3Qlgfy2s6BIi4nxa3DwFc63E8PEfParB4K560mHYuPso/V88fHh6er+e+/+HhKT315zdKWB/L23QIEHU/vd0PZ7PZgWk9jodn5VkNFu+UJ92snYsPPDw8PDw8PI2nrl8ihfWxvPVDgODhvzIO5/P5dcN6HA/PxrMaLF6tJ92snYsPPDw8PDw8PI2nrl+ihfWxvOoQwCT8Hx8C3P5JgBbV8umWSX2PhzeaZzVYvFpPulk7Fx94eHh4eHh4Gk9dv0QM62N5N26+sdjb33cJ/5W39RWBm1pG9T0e3mie1WDxaj3pZu1cfODh4eHh4eFpPHX9EjWsj+XduPn68SHAEPOX6DBhp0OAzOp7PLzRPKvB4tU26WbtXHzg4eHh4eHhaTx1/RI5rI/llT8J0OYVgYr7scVrdQgQoB7Hw7PxrAaLV9ukm7Vz8YGHh4eHh4en8dT1S/SwPpbX9IpA1f1o8LYeAgSpx/HwbLzCabB4tU26WTsXH3h4eHh4eHgaT12/OIT1sbxdDwHE4X/rIUCgehwPz8YrnAaLV9ukm3XKYgEPDw8PDw8vD09dv7iE9bG8tocAQcJ/7SFAsHocD8/HsxosXl2TbtYpiwU8PDw8PDy8PDx1/eIU1sfymg4BgoX/lUOAgPU4Hp6PZzVYvLom3axTFgt4eHh4eHh4eXjq+sUtrI/lbToECBr+jw8BZrPZQbB6HA/Px7MaLF5dk27WKYsFPDw8PDw8vDw8df3iGNbH8tYPAYKH/8o4nM/n1wPV43h42XlWg52YJ92sUxYLeHh4eHh4eHl46vrFNayP5VWHACbh//gQ4PZPAnSpn6PX93h4Us9qsFPzCvFJbcpiAQ8PDw8PDy8PT12/OIf1sbwbN99Y7O3vu4T/ytv6isBNLXp9j4en9KwGO0VPfVKbsljAw8PDw8PDy8NT1y/uYX0s78bN148PAVLej57eTocADvU9Hp7KsxrsVD31j2k5Fx94eHh4eHh4Gk9dv+QQ1sfyyp8EaPOKwCHvxwBeq0MAl/oeD0/hWQ12yp76x7Sciw88PDw8PDw8jaeuX3IJ62N5Ta8IHPp+DORtPQRwqu/x8FJ7VoOduqf+jpZz8YGHh4eHh4en8dT1S05hfSxv10MA9dc6ii2HAG71PR5eSs9qsHi3DgAK0cOzWDsAcCs+8PDw8PDw8DSeun5Rh2sXr+0hQJDwX3sI4Fjf4+Gl8qwGi3fLK4QPz+LEAYBj8YGHh4eHh4en8dT1S4Rw7eI1HQIEC/8rhwCu9T0eXgrParB4K55yc7UuPvDw8PDw8PA0nrp+iRKuXbxNhwBBw//xIcBsNjswre/x8Eb1rAaLd8qTbq7OxQceHh4eHh6exlPXL5HCtYu3fggQPPxXxuF8Pr9uWN/j4Y3mWQ0Wr9aTbq7OxQceHh4eHh6exlPXL9HCtYtXHQKYhP/jQ4DbPwnQovo+3TLJC3h4x57VYPFqPenm6lx84OHh4eHh4Wk8df0SMVy7eDduvrHY2993Cf+Vt/UVgZtaRnkBD+/YsxosXq0n3Vydiw88PDw8PDw8jaeuX6KGaxfvxs3Xjw8BhrgfiQ4TdjoEyCwv4OEde1aDxatt0s3VufjAw8PDw8PD03jq+iVyuHbxyp8EaPOKQMX93eK1OgQIUN/j4Y3mWQ0Wr7ZJN1fn4gMPDw8PDw9P46nrl+jh2sVrekWg6v42eFsPAYLU93h4o3mF02Dxapt0c3UuPvDw8PDw8PA0nrp+cQjXLt6uhwDi8L/1ECBQfY+HN5pXOA0Wr7ZJN9eUxQIeHh4eHh5eHp66fnEJ1y5e20OAIOG/9hAgWH2PhzeeZzVYvLom3VxTFgt4eHh4eHh4eXjq+sUpXLt4TYcAwcL/yiFAwPoeD288z2qweHVNurmmLBbw8PDw8PDw8vDU9YtbuHbxNh0CBA3/x4cAs9nsIFh9j4c3nmc1WLy6Jt1cUxYLeHh4eHh4eHl46vrFMVy7eOuHAMHDf2Uczufz64Hqezw8uWc12Il50s01ZbGAh4eHh4eHl4enrl9cw7WLVx0CmIT/40OA2z8J0KUej54X8PC6t+iDnZpXiE9WUxYLY3jq+cPz9qKtZzw8PDwXT73fO4drF+/GzTcWe/v7Fs/zE97WVwRuatHzAh5e5xZ9sFP01GEpZbEwhqeePzxvL9p6xsPDw3Px1Pu9e7h28W7cfP34ECDy83zN2+kQwCEv4OGFwPGG8dRhybn4KP++ev7wvL1o6xkPDw/PxVPv9zmEaxev/EmANq8IDFYftDoEcMkLeHhyHG84Tx2WnIuP9QJEMX943l609YyHh4fn4qn3+1zCtYvX9IpA9fN8Q996COCUF/Dwshrs1D11WHIuPk4WIKr5w/P2oq1nPDw8PBdPvd/nFK5dvF0PAYLUB7WHAG55AQ8vm8Hi3ToAKIRhybn4qAoQ5fzheXvR1jMeHh6ei6fe79VheKpe20OAYPXByiGAY17Aw8tisHi3vEIclpyLj7Kr5w/P24u2nvHw8PBcPPV+HyEMT9VrOgQIWh8sDwFc8wIenv1g8VY8aVhyLj7KP1fPH563F2094+Hh4bl46v0+ShieqrfpECB4fXA4m80OTPMCHp7vYPFOedLN0Ln4KJt6/vC8vWjrGQ8PD8/FU+/3kcLwVL31QwCT+uBwPp9fN8wLeHieg8Wr9aSboXPx0aUAMXk44SXyoq1nPDw8PBdPvd9HC8NT9apDAPXzfEev+kmAokvLJH/gGXtWg8Wr9aSboXPxsWsBYvZwwkvgRVvPeHh4eC6eer+PGIan6t24+cZib3/frT7Y+orATS2j/IFn7FkNFq/Wk26GzsXHLgVIhLCJF8+Ltp7x8PDwXDz1fh81DE/Vu3Hz9eNDAKP6YKdDgMzyB56xZzVYvNom3Qydi4+2BUiUsIkXz4u2nvHw8PBcPPV+HzkMT9UrfxKgzSsCg9UHrQ4BAuQFPLxjz2qweLVNuhk6Fx9tCpBIYRMvnhdtPePh4eG5eOr9PnoYnqrX9IrAoPXB1kOAIHkBD+/YK5wGi1fbpJuhc/FRNvX84Xl70dYzHh4enoun3u8dwvBUvV0PAYLUB7WHAIHyAh7esVc4DRavtkk3w5TFwhieev7wvL1o6xkPDw/PxVPv9y5heKpe20OAYPXByiFAsLyAh/cNz2qweHVNuhmmLBbG8NTzh+ftRVvPeHh4eC6eer93CsNT9ZoOAYLWB8tDgIB5AQ/vG57VYPHqmnQzTFksjOGp5w/P24u2nvHw8PBcPPV+7xaGp+ptOgQIXh8czmazg2B5AQ9v9T+yGSxeXZNuhimLhTE89fzheXvR1jMeHh6ei6fe7x3D8FS99UMAh/rgqB/O5/PrgfICHl6/Fn2wE/Okm2HKYmEMTz1/eN5etPWMh4eH5+Kp93vXMDxVrzoEcKkPqkOA2z8JUHRpwfMHXuae1WCn5hXisJSyWBjDU88fnrcXbT3j4eHhuXjq/d45DE/Vu3HzjcXe/r5FfXDC2/qKwE0tev7Ay9uzGuwUPXVYSlksjOGp5w/P24u2nvHw8PBcPPV+7x6Gp+rduPn68SFA5PpgzdvpEMAhf+Dl61kNdqqeOiw5Fx/l31fPH563F2094+Hh4bl46v0+hzA8Va/8SYA2rwgMVm+0OgRwyR94eXpWg52ypw5LzsXHegGimD88by/aesbDw8Nz8dT7fS5heKpe0ysC1fXBhr71EMApf+Dl51kNduqeOiw5Fx8nCxDV/OF5e9HWMx4eHp6Lp97vcwrDU/V2PQQIUm/UHgK45Q+8vDyrweLdOgAohGHJufioChDl/OF5e9HWMx4eHp6Lp97v1eEVbxiv7SFAsHpj5RDAMX/g5eNZDRbvlleIw5Jz8VF29fzheXvR1jMeHh6ei6fe7yOEV7xhvKZDgKD1xvIQwDV/4OXhWQ0Wb8WThiXn4qP8c/X84Xl70dYzHh4enoun3u+jhFe8YbxNhwDB643D2Wx2YJo/8Mw9q8HinfKkm5dz8VE29fzheXvR1jMeHh6ei6fe7yOFV7xhvPVDAJN643A+n183zB94xp7VYPFqPenm5Vx8dClATB4meIm8aOsZDw8Pz8VT7/fRwiveMF51CKCuD3b0qp8EKLq0TPIMXkLParB4tZ5083IuPnYtQMweJngJvGjrGQ8PD8/FU+/3EcMr3jDejZtvLPb2993qja2vCNzUMsozeAk9q8Hi1XrSzcu5+NilAIkQNvHiedHWMx4eHp6Lp97vo4ZXvGG8GzdfPz4EMKo3djoEyCzP4CX0rAaLV9ukm5dz8YGHh4eHh4en8dT1S+TwijeMV/4kQJtXBCrW3xav1SFAgPyBZ+xZDRavtkk3L+fiAw8PDw8PD0/jqeuX6OEVbxiv6RWBqvXX4G09BAiSP/CMvcJpsHi1Tbp5ORcfeHh4eHh4eBpPXb84hFe8YbxdDwGCfM2w9hAgUP7AM/YKp4GGgKgAACAASURBVMHi1Tbp5pWyWMDDw8PDw8PLw1PXLy7hFW8Yr+0hQJDwX3sIECx/4Dl7VoPFq2vSzStlsYCHh4eHh4eXh6euX5zCK94wXtMhQLDwv3IIEDB/4Dl7VoPFq2vSzStlsYCHh4eHh4eXh6euX9zCK94w3qZDgKDh//gQYDabHQTLH3jOntVg8eqadPNKWSzg4eHh4eHh5eGp6xfH8Io3jLd+CBA8/FfG4Xw+vx4of+BNwLMa7MQ86eaVsljAw8PDw8PDy8NT1y+u4RVvGK86BDAJ/8eHALd/EqBLXoieZ/CCeVaDnZpXiE8uUxYLeHh4eHh4eHl46vrFObziDePduPnGYm9/3yX8V97WVwRuatHzDF4sz2qwU/TUJ5cpiwU8PDw8PDy8PDx1/eIeXvGG8W7cfP34ECDl+uvp7XQI4JBn8OJ4VoOdqqf+sSXn4gMPDw8PDw9P46nrlxzCK94wXvmTAG1eETjk+hvAa3UI4JJn8GJ4VoOdsqf+sSXn4gMPDw8PDw9P46nrl1zCK94wXtMrAodefwN5Ww8BnPIMnt6zGuzUPfV3lpyLDzw8PDw8PDyNp65fcgqveMN4ux4CqL/GUmw5BHDLM3haz2qweLcOAArRw7NYOwBwKz7w8PDw8PDwNJ66flGHTbyYXttDgCDhv/YQwDHP4Ok8q8Hi3fIK4cOzOHEA4Fh84OHh4eHh4Wk8df0SIWzixfSaDgGChf+VQwDXPIOn8awGi7fiKTcb6+IDDw8PDw8PT+Op65coYRMvprfpECBo+D8+BJjNZgemeQYvsWc1WLxTnnSzcS4+8PDw8PDw8DSeun6JFDbxYnrrhwDBw39lHM7n8+uGeQYvoWc1WLxaT7rZOBcfeHh4eHh4eBpPXb9EC5t4Mb3qEMAk/B8fAtz+SYAWaeN0yyQf4W3xrAaLV+tJNxvn4gMPDw8PDw9P46nrl4hhEy+md+PmG4u9/X2X8F95W18RuKlllI/wtnhWg8Wr9aSbjXPxgYeHh4eHh6fx1PVL1LCJF9O7cfP140OAIdZfosOEnQ4BMstHeFs8q8Hi1TbpZuNcfODh4eHh4eFpPHX9Ejls4sX0yp8EaPOKQMV63uK1OgQIkGfwEnpWg8WrbdLNxrn4wMPDw8PDw9N46voletjEi+k1vSJQtZ4bvK2HAEHyDF5Cr3AaLF5tk242zsUHHh4eHh4ensZT1y8OYRMvprfrIYA4/G89BAiUZ/ASeoXTYPFqm3SzSVks4OHh4eHh4eXhqesXl7CJF9NrewgQJPzXHgIEyzN4KT2rweLVNelmk7JYwMPDw8PDw8vDU9cvTmETL6bXdAgQLPyvHAIEzDN4KT2rweLVNelmk7JYwMPDw8PDw8vDU9cvbmETL6a36RAgaPg/PgSYzWYHwfIMXkrParB4dU262aQsFvDw8PDw8PDy8NT1i2PYxIvprR8CBA//lXE4n8+vB8ozeAE9q8FOzJNuNimLBTw8PDw8PLw8PHX94ho28WJ61SGASfg/PgS4/ZMAXfJH9HyER/jP1yvEJ40piwU8PDw8PDy8PDx1/eIcNvFiejduvrHY2993Cf+Vt/UVgZta9HyER/jP2lOfNKYsFvDw8PDw8PDy8NT1i3vYxIvp3bj5+vEhQMr13NPb6RDAIR/hEf6z9tQ/ZuRcfODh4eHh4eFpPHX9kkPYxIvplT8J0OYVgUOu5wG8VocALvkIr5tnNdgpe+ofM3IuPvDw8PDw8PA0nrp+ySVs4sX0ml4ROPR6HsjbegjglI/werbog526p/6OkXPxcbIAmer8pb7e9a5eL6mvd92L/vnAw8PDy/X5i4eHV9trDwHc8hFejxZ9sHi3DgAK4WbjXHxUBciU5y/19a539XpJfb3rVvTPBx4eHl6uz188PLyNfeUQwDEf4XVs0QeLd8srxJuNc/FR9qnPX+rrXffU6yX19a736J8PPDw8vFyfv3h4eFv78hDANR/hBcDxRvWkm41z8VH++dTnL/X1rnvq9ZL6ete91NeLh4eHF8VTP3/x8PAa++FsNjswzUd4OQ0W75Qn3Ryci4+yTX3+Ul/vuqdeL6mvd91Lfb14eHh4UTz18xcPD6+V9+Z8Pv+gYT7Cy2WweLWedHNwLj66FCC5zV/q61231Osl9fWue6mvFw8PDy+Kp37+4uHhtfZ+/6677nzSLB/hbfGsBotX60k3B+fiY9cCJMf5S3296129XlJf7/p/k/p68fDw8KJ46ucvHh7eTt4/P+p3Fju2jPJWVp7VYPFqPenm4Fx87FKA5Dp/qa933Ut9vZuuX/UwTn29eHh4eFE89fMXDw9vZ++Hix1aZnkrK89qsHi1Tbo5OBcfbQuQnOcv9fWue6mvt+76lQ/j1NeLh4eHF8VTP3/x8PB29r5+1J8oWrQA+Qhvi2c1WLzaJt0cnIuPNgVI7vOX+nrXvdTXu+6pH8aprxcPDw8viqd+/uLh4XXyPl00tCD5CG+LVzgNFq+2STcH5+KjbFOfv9TXu/7fpL7edU/9ME59vXh4eHhRPPXzFw8Pr5P3x0d9r9jQAuUjvC1e4TRYvNom3RxSFgtjeFOfv9TXu95TX++6p34Yp75ePDw8vCie+vmLh4fX2fsrRU0Llo/wtnlWg8Wra9LNIWWxMIY39flLfb3rPfX1rnvqh3Hq68XDw8OL4qmfv3h4eJ29TxVrLWA+wtvmWQ0Wr65JN4eUxcIY3tTnT/0wSX2965b6YZz6evHw8PCieOrnLx4eXmfv14sTLWg+wtvmWQ0Wr65JN4eUxcIY3tTnT/0wSX296z319W66/qifDzw8PLyxPPXzFw8Pr7P3e8XtFjgf4Q3gWQ12Yp50c0hZLIzhTX3+1A+T1Ne77qW+3rrrj/z5wMPDwxvLUz9/8fDwOnv/6qhHz0d4hP98vUK8OaQsFsbwpj5/6odJ6utd91Jf73qP/vnAw8PDG8ubzWZRww0eHl5Dj56P8Aj/WXvqzSFlsTCGN/X5Uz9MUl/vupf6etd79M8HHh4e3ljeAw9cChtu8PDwtvfo+QiP8J+1p94cnIuPKgBPef5SX++m61etl9TXu+5F/3zg4eHhjeW9+OKLYcMNHh7edi96PsLr5lkNdsqeenNwLj7WDwCmOH+pr7fu+pXrJfX1rnvRPx94eHh4Y3kf/ehHw4YbPDy87V70fITXs0Uf7NQ99ebgXHycPACY6vylvt71rl4vqa933Yv++cDDw8Mby/vMZz4TNtzg4eFt96LnI7weLfpg8W4dABTCzcG5+KgOAKY8f6mvd72r10vq6123on8+8PDw8Mby3nzzzcXdd98te/7i4eF196LnI7yOLfpg8W55hXhzcC4+yj71+Ut9veueer2kvt71Hv3zgYeHhzem9+qrr8qev3h4eN296PkILwCON6on3Rzci4+pz1/q61331Osl9fWue6mvFw8PDy+S95WvfGUxn8/DhRs8PLxGb+dmnrey86wGi3fKk24O7sXH1Ocv9fWue+r1kvp6173U14uHh4cXzfvkJz8ZMdzg4eFt93ZqGeStrDyrweLVetLNwb34mPr8pb7edUu9XlJf77qX+nrx8PDwonlf+9rXFk8//bT8eYSHh7eT17plkrey8qwGi1frSTcH9+Jj6vOX+nrXu3q9pL7e9f8m9fXi4eHhRfS+8pWvLB544IFI4QYPD2+716pllLey8qwGi1frSTcH9+Jj6vOX+nrXvdTXu+n6VQ/j1NeLh4eHF9X70pe+tLh8+XKUcIOHh7fda2yZ5a2sPKvB4tU26ebgXnxMff5SX++6l/p6665f+TBOfb14eHh4kb0vf/nLi2effTZCuMHDw9vubW0B8hHeFs9qsHi1Tbo5qIuFvt7U5y/19a57qa933VM/jFNfLx4eHl5076tf/eri+77v+5ZvB8goLOHh5eZtbEHyEd4Wr3AaLF5tk24OEYqFPt7U5y/19a7/N6mvd91TP4xTXy8eHh6ei/dbv/Vbi49+9KOLixcv5hCW8PBy82pboHyEt8UrnAaLV9ukm0OkYqGLN/X5S3296z319a576odx6uvFw8PDc/P+5b88XHzmM59ZvPbaa4tr164tHnzwwZ327CBhCQ8vN+9UC5aP8LZ5VoPFq2vSzSFisYCHh4eHh4eHh4eXqxfgMGHoPIOX0rMaLF5dk54MRtoM8fDw8PDw8PDw8HL3AvwkwdB5Bi+lZzVYvLom/bGgSJshHh4eHh4eHh4eXu7e2PV9iz50nsEL6FkNdmKeLPwXLQ8AXDdXPDw8PDw8PDw8vGje2PV9ix49H+ER/vP1CmH4L1ocADhvrnh4eHh4eHh4eHjRvLHr+6YePR/hEf6z9tS/DTTSZoiHh4eHh4eHh4eXuzd2fd/Uo+cjPMJ/1p76VSCRNkM8PDw8PDw8PDy83L2x6/smL3o+wuvmWQ12yp76PaCRNkM8PDw8PDw8PDy83L2x6/smL3o+wuvZog926p76PaCRNkM8PDw8PDw8PDy83L2x6/smL3o+wuvRog8W79YBQCEK/8XaAYB6M8TDw8PDw8PDw8PL3Ru7vm/youcjvI4t+mDxbnmFMPwXJw4AImyGeHh4eHh4eHh4eLl7Y9f3TV70fIQXAMcb1ZOF/+L2AUCUzRAPDw8PDw8PDw8vd2/s+r6FN3SewUvsWQ0W75QnC/9lj7QZ4uHh4eHh4eHh4eXujV3ft/CGzjN4CT2rweLVerLwX/ZImyEeHh4eHh4eHh5e7t7Y9X0Lb+g8g5fQsxosXq0nC//l34+0GeLh4eHh4eHh4eHl7o1d37fwhs4zeAk9q8Hi1Xqy8L9+AKDeDPHw8PDw8PDw8PBy98au71t4Q+cZvISe1WDxapss/J88AIiwGeLh4eHh4eHh4eHl7o1d37fwhs4zeAk9q8Hi1TZZ+K8OAKJshnh4eHh4eHh4eHi5e+Lwv/UAIEg+wtviFU6DxattsvBf9kibIR4eHh4eHh4eHl7unjj8bzwACJSP8LZ4hdNg8WqbLPyXfx5pM8TDw8PDw8PDw8PL3ROH/9oDgGD5CG+bZzVYvLomC/9FhwMAp80VDw8PDw8PDw8PL5onDv+nDgAC5iO8bZ7VYPHqmiz8FzseALhtrnh4eHh4eHh4eHjRPHH4XzkACJqP8LZ5VoPFq2uy8F/scADguLni4eHh4eHh4eHhRfPGru9b9KHzDF5Az2qwE/Nk4b9oeQDgurni4eHh4eHh4eHhRfPGru9b9Oj5CI/wn69XCMN/0eIAwHlzxcPDw8PDw8PDw4vmjV3fN/Xo+QiP8J+1p34PaKTNEA8PDw8PDw8PDy93b+z6vqlHz0d4hP+sPfV7QCNthnh4eHh4eHh4eHi5e2PX901e9HyE182zGuyUPfV7QCNthnh4eHh4eHh4eHi5e2PX901e9HyE17NFH+zUPfV7QCNthnh4eHh4eHh4eHi5e2PX901e9HyE16NFHyzerQOAQhT+i7UDAPVmiIeHh4eHh4eHh5e7N3Z93+RFz0d4HVv0weLd8gph+C9OHABE2Azx8PDw8PDw8PDwcvfGru+bvOj5CC8AjjeqJwv/xe0DgCibIR4eHh4eHh4eHl7u3tj1fQtv6DyDl9izGizeKU8W/sseaTPEw8PDw8PDw8PDy90bu75v4Q2dZ/ASelaDxav1ZOG/7JE2Qzw8PDw8PDw8PLzcvbHr+xbe0HkGL6FnNVi8Wk8W/su/H2kzxMPDw8PDw8PDw8vdG7u+b+ENnWfwEnpWg8Wr9WThf/0AQL0Z4uHh4eHh4eHh4eXujV3ft/CGzjN4CT2rweLVNln4P3kAEGEzxMPDw8PDw8PDw8vdG7u+b+ENnWfwEnpWg8WrbbLwXx0ARNkM8fDw8PDw8PDw8HL3xOF/6wFAkHyEt8UrnAaLV9tk4b/skTZDPDw8PDw8PDw8vNw9cfjfeAAQKB/hbfEKp8Hi1TZZ+C//PNJmiIeHh4eHh4eHh5e7Jw7/tQcAwfIR3jbParB4dU0W/osOBwBOmyseHh4eHh4eHh5eNE8c/k8dAATMR3jbPKvB4tU1WfgvdjwAcNtc8fDw8PDw8PDw8KJ54vC/cgAQNB/hbfOsBotX12Thv9jhAMBxc8XDw8PDw8PDw8OL5o1d37foQ+cZvICe1WAn5snCf9HyAMB1c8XDw8PDw8PDw8OL5o1d37fo0fMRHuE/X68Qhv+ixQGA8+aKh4eHh4eHh4eHF80bu75v6tHzER7hP2tP/R7QSJshHh4eHh4eHh4eXu7e2PV9U4+ej/AI/1l76veARtoM8fDw8PDw8PDw8HL3xq7vm7zo+Qivm2c12Cl76veARtoM8fDw8PDw8PDw8HL3xq7vm7zo+QivZ4s+2Kl76veARtoM8fDw8PDw8PDw8HL3xq7vm7zo+QivR4s+WLxbBwCFKPwXawcA6s0QDw8PDw8PDw8PL3dv7Pq+yYuej/A6tuiDxbvlFcLwX5w4AIiwGeLh4eHh4eHh4eHl7o1d3zd50fMRXgAcb1RPFv6L2wcAUTZDPDw8PDw8PDw8vNy9sev7Ft7QeQYvsWc1WLxTniz8lz3SZoiHh4eHh4eHh4eXuzd2fd/CGzrP4CX0rAaLV+vJwn/ZI22GeHh4eHh4eHh4eLl7Y9f3Lbyh8wxeQs9qsHi1niz8l38/0maIh4eHh4eHh4eHl7s3dn3fwhs6z+Al9KwGi1frycL/+gGAejPEw8PDw8PDw8PDy90bu75v4Q2dZ/ASelaDxattsvB/8gAgwmaIh4eHh4eHh4eHl7s3dn3fwhs6z+Al9KwGi1fbZOG/OgCIshni4eHh4eHh4eHh5e6Jw//WA4Ag+Qhvi1c4DRavtsnCf9kjbYZ4eHh4eHh4eHh4uXvi8L/xACBQPsLb4hVOg8WrbbLwX/55pM0QDw8PDw8PDw8PL3dPHP5rDwCC5SO8bZ7VYPHqmiz8Fx0OAJw2Vzw8PDw8PDw8PLxonjj8nzoACJiP8LZ5VoPFq2uy8F/seADgtrni4eHh4eHh4eHhRfPE4X/lACBoPsLb5lkNFq+uycJ/scMBgOPmioeHh4eHh4eHhxfNG7u+b9GHzjN4AT2rwU7Mk4X/ouUBgOvmioeHh4eHh4eHhxfNG7u+b9Gj5yM8wn++XiEM/0WLAwDnzfVk+5M/+ZPFT/3UTy1ee+21xbVr1xYPPvjgxnkJ8GoWPDw8PDw8PLxsvbNnzy5rsbImK2uzskYra7Xo9eRQnvp+RM9HeIT/rD31Zh1pMxzD++3f/u3Fxz72scWFCxfkDzs8PDw8PDw8PLx6r6zVypqtrN2i1ZNDe+r7ET0f4RH+s/bUm3WkzXBI76tf/eri+7//+xez2Sz0ww4PDw8PDw8PD+8bvazdyhqurOXU9eRYnvp+RM9HeN08q8FO2VNv1pE2w6G8L3/5y4tnn31Wvrni4eHh4eHh4eF188parqzpcqlPTzb1/Yiej/B6tuiDnbqn3lwjbYZDeF/60pcWly9ftn3Y4eHh4eHh4eHh3eqXLl1a/MZv/IZ9fbre1Pcjej7C69GiDxbv1gFAIdxcI22Gfb2vfOUriwceeMD+YYeHh4eHh4eHh3er33///Yvf/M3ftK1P65r6fkTPR3gdW/TB4t3yCvHmGmkz7ON97WtfWzz99NPZPOzw8PDw8PDw8PBueWWN90d/9Ed29emmpr4f0fMRXgAcb1RPurlG2gz7eJ/85CflDyc8PDw8PDw8PLxxvE984hN29emmFuB+7NzM81Z2ntVg8U550s010mbY1St/9J/f9o+Hh4eHh4eHl69X1nonfylg9Pp0WwtwP3ZqGeStrDyrweLVetLNNdJm2NV79dVXwzyc8PDw8PDw8PDwxvHKms+lPt3WAtyP1i2TvJWVZzVYvFpPurlG2gy7eH/4h3+4uPvuu0M9nPDw8PDw8PDw8Ib3ypqvrP2i16dNLcD9aNUyyltZeVaDxav1pJtrpM2wi/fTP/3T4R5OeHh4eHh4eHh443g/8zM/E74+bWoB7kdjyyxvZeVZDRavtkk310ibYRfvYx/7WMiHEx4eHh4eHh4e3vBeWftFr0+bWoD7sbUFyEd4WzyrweLVNunmGmkz7OK9+OKLIR9OeHh4eHh4eHh4w3sHBwfh69MmL8D92NiC5CO8LV7hNFi82ibdXCNthl28S5cuhXw44eHh4eHh4eHhDe+VtV/0+rTJC3A/alugfIS3xSucBotX26Sba6TNsIu36fV/6ocTHh4eHh4eHh7e8N58Pg9fnzZ5Ae7HqRYsH+Ft86wGi1fXpJtrpM2wi6eePzw8PDw8PDw8vLRe9Pq0yVPPX7HWAuYjvG2e1WDx6pp0c420GXbx1POHh4eHh4eHh4eX1otenzZ56vkrTrSg+Qhvm2c1WLy6Jt1cI22GXTz1/OHh4eHh4eHh4aX1otenTZ56/orbLXA+whvAsxrsxDzp5hppMzR9jyoeHh4eHh4eHl5CL3p92uSp5++oR89HeIT/fL1CvLlG2gy7NPX84eHh4eHh4eHhpfWi16dNnnr+oucjPMJ/1p56c420GXbx1POHh4eHh4eHh4eX1otenzZ56vmLno/wCP9Ze+rNNdJm2MVTzx8eHh4eHh4eHl5aL3p92uSp5y96PsLr5lkNdsqeenONtBl28dTzh4eHh4eHh4eHl9aLXp82eer5i56P8Hq26IOduqfeXCNthl089fzh4eHh4eHh4eGl9aLXp02eev6i5yO8Hi36YKfu3Xnn/Jp6c420GXbx1POHh4eHh4eHh4eX1otenzZ56vmbzWYHUfMRXo8WfbBT926H/z8oxJtrpM2wi6eePzw8PDw8PDw8vLRe9Pq0yVPP39GfHx71a8WOzS1v5e5ZDXbqXpTwX/ZIm2EXTz1/eHh4eHh4eHh4ab3o9WlTU8/f7b7TIYBb3srdsxrs1L1I4b/skTbDLp56/vDw8PDw8PDw8NJ60evTpqaevxO91SGAW97K3bMa7NS9aOG/7JE2wy6eev7w8PDw8PDw8PDSetHr06amnr+1vvUQwC1vTcGzGuyUvYjhv/z7kTbDLp56/vDw8PDw8PDw8NJ60evTpqaev5peewjglrem4lkNdqpe1PBf9kibYRdPPX94eHh4eHh4eHhpvej1aVNTz9+GvnII4Ja3puRZDXaKXuTwX/ZIm2EXTz1//8fv/O7i//zd31v8X7//B4vf+YM3d+7l3yv/fulUHQ8PDw8PDw8vsjd2fdXkRa9Pm5p6/rb05SGAW96ammc12Kl50cN/dQAQZTN0fI9qpIcxHh4eHh4eHl4KTx1eo9enTZ56/hr64Ww2O3DJW1P0CqfBTslzCP9lj7QZdvHU8xfpYYyHh4eHh4eHl8JTh9fo9WmTp56/Ft7hfD6/Hj1vTdUrnAY7Fc8l/BdbNlDFZtjFU89fpIcxHh4eHh4eHl4KTx1eo9enTZ56/lp61U8C1AeghuaW36w8q8FOwHMK/0WHA4Bom6t6/iI9jPHw8PDw8PDwUnjq8Bq9Pm3y1PO3g7f1FYGbmlt+s/OsBpu55xb+ix0PACJurur5i/QwxsPDw8PDw8NL4anDa/T6tMlTz9+O3k6HAG75zdKzGmzGnmP4L3Y4AIi6uarnL9LDGA8PDw8PDw8vhaeud6PXp02eev46eK0OAdzyW+6e1WDdPNfwX7Q8AIi8uarnL9LDGA8PDw8PDw8vhaeud6PXp02eev46elsPAdzyW+6e1WDdPOfwX7Q4AIi+uarnL9LDGA8PDw8PDw8vhaeud6PXp02eev56eLWHAG75LXfParBunnv4LxoOABw2V/X8RXoY4+Hh4eHh4eGl8NT1bvT6tMlTz19Pb+UQwC2/5e5ZDdbNyyH8F1sOABzCf/VLVJTzF+lhjIeHh4eHh4eXwlPXu9Hr0yZPPX8DeMtDALf8lrtnNVg3bz6ff/Dow/Jmof/w9fYibYZdPPX8RXoY4+Hh4eHh4eGl8NT1bvT6tMlTz99A3pvz+ewFl/yWu2c1WDcvl//zX/VIm2EXTz1/kR7GeHh4eHh4eHgpPHW9G70+bfLU8zegdzifz69Hz2+5e1aDdfNyC/9lj7QZdvHU8xfpYYyHh4eHh4eHl8JT17vR69MmTz1/A3uHs9nsIGp+y92zGqybl2P4L3ukzbCLp56/SA9jPDw8PDw8PLwUnrrejV6fNnnq+RvB2/qKwE3NLQ9G86wG6+blGv7LHmkz7OKp5y/SwxgPDw8PDw8PL4Wnrnej16dNTT1/I3k7HQK45cFontVg3bycw3/ZI22GXTz1/EV6GOPh4eHh4eHhpfDU9W70+rSpqedvRK/VIYBbHozmWQ3Wzcs9/Jc90mbYxVPPX6SHMR4eHh4eHh5eCk9d70avT5uaev5G9rYeArjlwYie1WCdvCmE//LvR9oMu3jq+Yv0MMbDw8PDw8PDS+Gp693o9WlTU89fAq/2EMAtD0b1rAbr4k0l/K8fAKg3wy6eev4iPYzx8PDw8PDw8FJ46no3en3a1NTzl8hbOQRwy4ORPavBOnhTCv8nDwAibIZdPPX8RXoY4+Hh4eHh4eGl8NT1bvT6tKmp5y+htzwEcMuD0T2rwUb3phb+qwOAKJuh43tUIz2M8fDw8PDw8PBSeOp6N3p92uSp5y+xdzibzQ5c8qCDVzgNNrI3xfBf9kibYRdPPX+RHsZ4eHh4eHh4eCk8db0bvT5t8tTzJ/AO5/P59eh50MUrnAYb1Ztq+C+2bKCKzbCLp56/SA9jPDw8PDw8PLwUnrrejV6fNnnq+RN51U8CFF2aW74c1bMabEBvyuG/2LCBqjbDLp56/iI9jPHw8PDw8PDwUnjqejd6fdrkqedP6G19ReCm5pYvR/esBhvMm3r4L2o2UOVm2MVTz1+khzEeHh4eHh4eXgpPXe9Gr0+bPPX8ib2dDgHc8mUSz2qwgTzC/+kNVL0ZdvHU8xfpYYyHh4eHh4eHl8JT17vRl6BgBwAAIABJREFU69MmTz1/AbxWhwBu+TKaZzVYwn86L9Jm6Pge1UgPYzw8PDw8PDy8FJ663o1enzZ56vkL4m09BHDLl9E8q8ES/tN6kTbDLk09f5Eexnh4eHh4eHh4KTx1vRu9Pm3y1PMXyKs9BHDLl9E8q8ES/tN7kTbDLp56/iI9jPHw8PDw8PDwUnjqejd6fdrkqecvmLdyCOCWL6N5VoMl/Gu8SJthF089f5Eexnh4eHh4eHh4KTx1vRu9Pm3y1PMX0FseArjly2ie1WAJ/zov0mbYxVPPX6SHMR4eHh4eHh5eCk9d70avT5s89fwF9Q5ns9mBS76M5lkNlvCv9SJthl089fxFehjj4eHh4eHh4aXw1PVu9Pq0yVPPX2DvcD6fX4+eL6N5VoMl/Ou9SJthF089f5Eexnh4eHh4eHh4KTx1vRu9Pm3y1PMX3Kt+EqDo0tzyKuGf8J/ci7QZdvHU8xfpYYyHh4eHh4eHl8JT17vR69MmTz1/Bt7WVwRuam55lfBP+Jd4kTbDLp56/iI9jPHw8PDw8PDwUnjqejd6fdrU1PNn4u10COCWVwn/hH+ZF2kz7OKp5y/SwxgPDw8PDw8PL4Wnrnej16dNTT1/Rl6rQwC3vEr4J/xLvUibYRdPPX+RHsZ4eHh4eHh4eCk8db0bvT5taur5M/O2HgK45dUhPKvBEv5XvTvvvEs+vkibYRdPPX+RHsZ4eHh4eHh4eCk8Zf1c9uj1aVNTz99dFy6EzUcbeu0hgFteHcqzGizh/xv/vgz//85r3ysfX6TNsIunnr9ID2M8PDw8PDw8vBSeqn6uevT6tKmp5++jf/3fb3UIECT8V33lEMAtrw7pWQ2W8H+rV+H/B//z/1I+vkibYRdPPX+RHsZ4eHh4eHh4eCk8Rf18skevT5uaev7KDNJ0CBAs/Fd9eQjglleH9qwGS/hfDf9tDgDGHl+kzdDxPaqRHsZ4eHh4eHh4eCk8dTiMXp82eer5q3LIpkMA9fga+uFsNjtwyatjeIXTYAn/q+G/6QAgxfgibYZdPPX8RXoY4+Hh4eHh4eGl8NThMHp92uSp5+9kFlk/BAge/ivjcD6fX4+eV8fyCqfBEv5Xw/+2A4BU44u0GXbx1PMX6WGMh4eHh4eHh5fCU4fD6PVpk6eev/U8Uh0CmIT/40OA2z8JUHRpbvl3xbMa7ABeTuF/0wFAyvFF2gy7eOr5i/QwxsPDw8PDw8NL4anDYfT6tMlTz996HvmB/+y/WLz68e9dXLh40SX8V97WVwRuam7595RnNdieXm7hv+4AIPX4Im2GXTz1/EV6GOPh4eHh4eHhpfDU4TB6fdrkqedvPfz/jf/0by77yUMA5fh29HY6BHDLv7We1WB7eDmG//UDgNTjKwreo9p3/iI9jPHw8PDw8PDwUnjqejx6fdrkqeevLvyfPARo84rAMcfXwWt1COCWf/t6VoOdSvg/eQAg+rCE2gwd36Ma6WGMh4eHh4eHh5fCU9fj0evTJk89f5vCf9nLP296RWCUvLXWtx4CuOVfwn+m4b86AFB+WCJthl2aev4iPYzx8PDw8PDw8FJ46no8en3a5Knnb1v4b3pFYJS8taHXHgK45V/Cf8bhv/yQqT8skTbDLp56/iI9jPHw8PDw8PDwUnjqejx6fdrkqeevKfzvegigrsfX+sohgFv+JfxnHv7LD5v6wxJpM+ziqecv0sMYDw8PDw8PDy+Fp67Ho9enTZ56/tqE/7aHAMHCf9WXhwBu+ZfwP4Hwv34AoLjeSJthF089f5Eexnh4eHh4eHh4KTx1PR69Pm3y1PPXNvw3HQIEDf9VP5zNZgcu+ZfwP5Hwf/IAQHW9kTbDLp56/iI9jPHw8PDw8PDwUnjqejx6fdrkqedvl/C/6RAgePivjMP5fH49ev4l/E8o/FcHAMrrjbQZdvHU8xfpYYyHh4eHh4eHl8JT1+PR69MmTz1/u4b/9UMAk/B/fAhw+ycBii4tep62Gizh/1ZXX2+kzbCLp56/SA9jPDw8PDw8PLwUnroej16fNnnq+esS/qs88+rHv3dx4eJFl/BfeVtfEbipRc/TVoMl/H/jx27U1xtpM+ziqecv0sMYDw8PDw8PDy+Fp67Ho9enTU09f13Df5VhTh4CjJm3BvZ2OgSInqetBkv4X/3Ojfp6I22GXTz1/EV6GOPh4eHh4eHhpfDU9Xj0+rSpqeevT/g/eQjQ5hWBKerxHbxWhwDR87TVYAn/p3/hhvp6I22GXTz1/EV6GOPh4eHh4eHhpfDU9Xj0+rSpqeevb/iv8kzTKwKj5Le1vvUQwCFPWw2W8H/6F26orzfSZtjFU89fpIcxHh4eHh4eHl4KT1mPlz16fdrU1PM3RPhf/8WAUfPbhl57COCSp60GS/g//Qs31NcbaTPs4qnnL9LDGA8PDw8PDw8vhaeqx6sevT5taur5GzrPtD0ECBL+q75yCOCUp60GS/g//d+rrzfSZtjFU89fpIcxHh4eHh4eHl4KT1GPn+zR69Ompp6/ofNMm0OAYOG/6stDALc8bTVYwv/uBwBjX2+kzdDxPaqRHsZ4eHh4eHh4eCk8dZiLXp82eer5GzrPNB0CqK+3oR/OZrMDlzxdHQBYDJbwv/sBQIrrjbQZdvHU8xfpYYyHh4eHh4eHl8JTh7no9WmTp56/McL/pkOA4OG/Mg7n8/n16Hm68grC/zheivC/7QAg1fVG2gy7eOr5i/QwxsPDw8PDw8NL4anDXPT6tMlTz99Y4X/9EMAk/B8fAtz+SYCiS0v6NQLC//BeqvC/6QAg5fVG2gy7eOr5i/QwxsPDw8PDw8NL4anDXPT6tMlTz9+Y4b/yXv349y4uXLzoEv4rb+srAje15L9DgPA/rJcy/NcdAKS+3kibYRdPPX+RHsZ4eHh4eHh4eCk8dZiLXp82eer5Gzv8V8bJQwDl9e7o7XQIkDz8V//RaHgPj/C/+wFA6ustCt6j2nf+Ij2M8fDw8PDw8PBSeOr6Pnp92uSp5y9F+D95CNDmFYFjXm8Hr9UhgCT8d22E/xjh/+QBgGhxh9oMHd+jGulhjIeHh4eHh4eXwlPX99Hr0yZPPX+pwn/lNb0iMEoeXOtbDwEI/4T/zh8WxfWe7JE2wy5NPX+RHsZ4eHh4eHh4eCk8dX0fvT5t8tTzlzL8V//NrocA4vBf9dpDAMI/4b/Xh0W9uCNthl089fxFehjj4eHh4eHh4aXw1PV99Pq0yVPPX+rwv+shgLq+X+srhwCEf8J/7w+LenFH2gy7eOr5i/QwxsPDw8PDw8NL4anr++j1aZOnnj9F+G97CBAs/Fd9eQhA+Cf8D/JhUS/uSJthF089f5Eexnh4eHh4eHh4KTx1fR+9Pm3y1POnCv9NhwBBw3/VD2ez2QHhn/Df+8OiXtyRNsMunnr+Ij2M8fDw8PDw8PBSeOr6Pnp92uSp508Z/jcdAgQP/5VxOJ/PrxP+Cf+9PizqxR1pM+ziqecv0sMYDw8PDw8PDy+Fp67vo9enTZ56/tThf/0QwCT8Hx8C3P5JgKJLI/xPPPyXXT1/kTbDLp56/iI9jPHw8PDw8PDwUnjq+j56fdrkqecvQvivvFc//r2LCxcvuoT/ytv6isBNjfBP+F/+uXr+Im2GXTz1/EV6GOPh4eHh4eHhpfDU9X30+rSpqecvSvivjJOHAGPmwYG9nQ4BCP+E/2NPPX+RNsMunnr+Ij2M8fDw8PDw8PBSeOr6Pnp92tTU8xcp/J88BGjzisAU9f0OXqtDAMI/4X/FU89fpM2wi6eev0gPYzw8PDw8PDy8FJ66vo9enzY19fxFC/+V1/SKwCj5cq1vPQQYI5+PihP+x/8FGer5i7QZdvHU8xfpYYyHh4eHh4eHl8JT1vdlj16fNjX1/EUM/9V/s+shgDj8V732EGCsfD4qTvgf/xdkqOcv0mbYxVPPX6SHMR4eHh4eHh5eCk9V31c9en3a1NTzFz0ftT0ECBL+q75yCDBmPif84+Hh4eHh4eHh4eHh4eFpveUhwNj5PEX4P+xw8dFvDh4eHh4eHh4eHh4eHh7ekN4fzmazg7HyeXUAMAo+n8+++ejiv9rj4qPfHDw8PDw8PDw8PDw8PDy8Ib2vzWazD48R/pe/A2CM8H/+/Pm/eDTw/2eAi49+c/Dw8PDw8PDw8PDw8PDwhvT+33Pnzn3b0OF/6Q0d/mez8x85GvD/N+DFR785eHh4eHh4eHh4eHh4eHhDemWm/kixY2v8HQJDhv+LFy+8+2iwvzvCxePh4eHh4eHh4eHh4eHhTcn7/aP+rqJla/ULBIcK/48++vDe0WD/xYgXj4eHh4eHh4eHh4eHh4c3Je+fH/U7i4Y29NsDGvGzZ8/+rQQXj4eHh4eHh4eHh4eHh4c3Je+Hiy0tefi/cOGu8scS/tR0MvHw8PDw8PDw8PDw8PDwonpfP+pPFDUtefhfvkqgKD5tPJl4eHh4eHh4eHh4eHh4eJG9MnOvNEn4P3fujr2jf/3H5pOJh4eHh4eHh4eHh4eHhxfVKzN3mb2XTRL+b+PflsFk4uHh4eHh4eHh4eHh4eFF9v7KUZeG/7J9KpPJxMPDw8PDw8PDw8PDw8OL6n1KHf7L9k8zmUw8PDw8PDw8PDw8PDw8vKjer6vDf9l+L5PJxMPDw8PDw8PDw8PDw8OL6v2eOvyXrdXr/wwmEw8PDw8PDw8PDw8PDw8vqvev1OG/yGgy8fDw8PDw8PDw8PDw8PDCeurwXygvHg8PDw8PDw8PDw8PDw9vKl6f8L/y93r8NsFsJhMPDw8PDw8PDw8PDw8PL6rXJ/yX+X7lHzr+QoFsJhMPDw8PDw8PDw8PDw8PL7C3czuZ9/uG/yKzycTDw8PDw8PDw8PDw8PDi+rt1Nbzft/wX2Q2mXh4eHh4eHh4eHh4eHh4Ub3Wre5/9hcDvEcwp8nEw8PDw8PDw8PDw8PDw4vqtWqbftK/6Bn+i8wmEw8PDw8PDw8PDw8PDw8vqtfYtn7Nf4D3COY0mXh4eHh4eHh4eHh4eHh4Ub2trfF3/PV9j2Bmk4mHh4eHh4eHh4eHh4eHF9Xb2Fr9gv++7xHMbDLx8PDw8PDw8PDw8PDw8KJ6tW2At/ttbifxzCYTDw8PDw8PDw8PDw8PDy+qd6olC/8nDwAymUw8PDw8PDw8PDw8PDw8vKjeSksa/qsDgIwmEw8PDw8PDw8PDw8PDw8vqnfckof/5XsE85pMPDw8PDw8PDw8PDw8PLyo3rJJwv9tPKfJxMPDw8PDw8PDw8PDw8OL6knDf6GezBf+tw8tXvgnR/1/PdHLfy7//Nc7dDw8PDw8PDw8PDw8PDy8Gk+df9Xhv1BefNmdFw8eHh4eHh4eHh4eHh6ej6fOv+rwXygvvvz7zosHDw8PDw8PDw8PDw8Pz8dT5191+C+UF79yAGC4ePDw8PDw8PDw8PDw8PB8PHX+VYf/QnnxxwcAposHDw8PDw8PDw8PDw8Pz8dT5191+C+UF788ADBePHh4eHh4eHh4eHh4eHg+njr/9gn/K3+vx28TlF388gDAePHg4eHh4eHh4eHh4eHh+Xjq/Nsn/Jf5fuUfOv5CAdnFl3/uvHjw8PDw8PDw8PDw8PDwfDx1/t05+a/l/b7hvxBfvPXiwcPDw8PDw8PDw8PDw/Px1Pm3T/ivDgD6vkdQefHWiwcPDw8PDw8PDw8PDw/Px1Pn3z7hvzoA6PseQeXFWy8ePDw8PDw8PDw8PDw8PB9PnX/7hP/l7wAY4D2Cyou3Xjx4eHh4eHh4eHh4eHh4Pp46//YJ/8u8P8B7BJUXb7148PDw8PDw8PDw8PDw8Hw8df5tCueNv+Ov73sExRdvvXjw8PDw8PDw8PDw8PDwfDx1/u0V/qv/qEurcPHFWy8ePDw8PDw8PDw8PDw8PB9PnX+b8vkAv+NvOy6+eOvFg4eHh4eHh4eHh4eHh+fjqfNvUz4fNfyfPAAQXbz14sHDw8PDw8PDw8PDw8Pz8dT5tymfjxr+qwMA4cVbLx48PDw8PDw8PDw8PDw8H0+df6Xhf/keQe3FWy8ePDw8PDw8PDw8PDw8PB9PnX+l4f82rrx468WDh4eHh4eHh4eHh4eH5+Op8686/Hc6ABjy1QnOiwcPDw8PDw8PDw8PDw/Px1PnX3X4L5QXX3bnxYOHh4eHh4eHh4eHh4fn46nzrzr8F8qLL/++8+LBw8PDw8PDw8PDw8PD8/HU+Vcd/gvlxa8cABguHjw8PDw8PDw8PDw8PDwfT51/1eG/UF788QGA6eLBw8PDw8PDw8PDw8PD8/HU+Vcd/gvlxS8PAIwXDx4eHh4eHh4eHh4eHp6Pp86/fcL/yt/r8dsEZRe/PAAwXjx4eHh4eHh4eHh4eHh4Pp46//YJ/2W+X/mHjr9QQHbx5Z87Lx48PDw8PDw8PDw8PDw8H0+df3dO/mt5v2/4L8QXb7148PDw8PDw8PDw8PDw8Hw8df7tE/6rA4C+7xFUXrz14sHDw8PDw8PDw8PDw8Pz8dT5t0/4rw4A+r5HUHnx1osHDw8PDw8PDw8PDw8Pz8dT598+4X/5OwAGeI+g8uKtFw8eHh4eHh4eHh4eHh6ej6fOv33C/zLvD/AeQeXFWy8ePDw8PDw8PDw8PDw8PB9PnX+bwnnj7/jr+x5B8cVbLx48PDw8PDw8PDw8PDw8H0+df3uF/+o/6tIqXHzx1osHDw8PDw8PDw8PDw8Pz8dT59+mfD7A7/jbjosv3nrx4OHh4eHh4eHh4eHh4fl46vzblM9HDf8nDwBEF2+9ePDw8PDw8PDw8PDw8PB8PHX+bcrno4b/6gBAePHWiwcPDw8PDw8PDw8PDw/Px1PnX2n4X75HUHvx1osHDw8PDw8PDw8PDw8Pz8dT519p+L+NKy/eevHg4eHh4eHh4eHh4eHh+Xjq/KsO/50OAIZ8dYLz4sHDw8PDw8PDw8PDw8Pz8dT5Vx3+C+XFl9158eDh4eHh4eHh4eHh4eH5eOr8qw7/hfLiy7/vvHjw8PDw8PDw8PDw8PDwfDx1/lWH/0J58SsHAIaLBw8PDw8PDw8PDw8PD8/HU+dfdfgvlBd/fABgunjw8PDw8PDw8PDw8PDwfDx1/lWH/0J58csDAOPFg4eHh4eHh4eHh4eHh+fjqfNvn/C/8vd6/DZB2cUvDwCMFw8eHh4eHh4eHh4eHh6ej6fOv33Cf5nvV/6h4y8UkF18+efOiwcPDw8PDw8PDw8PDw/Px1Pn352T/1re7xv+C/HFWy8ePDw8PDw8PDw8PDw8PB9PnX/7hP/qAKDvewSVF2+9ePDw8PDw8PDw8PDw8PB8PHX+7RP+qwOAvu8RVF689eLBw8PDw8PDw8PDw8PD8/HU+bdP+F/+DoAB3iOovHjrxYOHh4eHh4eHh4eHh4fn46nzb5/wv8z7A7xHUHnx1osHDw8PDw8PDw8PDw8Pz8dT59+mcN74O/76vkdQfPHWiwcPDw8PDw8PDw8PDw/Px1Pn317hv/qPurQKF1+89eLBw8PDw8PDw8PDw8PD8/HU+bcpnw/wO/624+KLt148eHh4eHh4eHh4eHh4eD6eOv825fNRw//JAwDRxVsvHjw8PDw8PDw8PDw8PDwfT51/m/L5qOG/OgAQXrz14sHDw8PDw8PDw8PDw8Pz8dT5Vxr+l+8R1F689eLBw8PDw8PDw8PDw8PD8/HU+Vca/m/jyou3Xjx4eHh4eHh4eHh4eHh4Pp46/6rDf6cDgCFfneC8ePDw8PDw8PDw8PDw8PB8PHX+VYf/QnnxZXdePHh4eHh4eHh4eHh4eHg+njr/qsN/obz48u87Lx48PDw8PDw8PDw8PDw8H0+df9Xhv1Be/MoBgOHiwcPDw8PDw8PDw8PDw/Px1PlXHf4L5cUfHwCYLh48PLxpe333P36HCh7eqvfcP/zmxVP/7dXFEz/w5OLt3/Xo4v6PXFrsv3Dv4u737y0uvOviYn75zsW5t5xbnDnf7nMzZv1ydnZ2cX7v/HJM5djKMZZjve9fv7S4fDT2x3/wycVTP3Z18dyvvGR7P/Dw8PBy9NTPD3X4L5QXvzwAMF48eHh40/b67n/8DhW8KXvP/+OXF0/e/MAyLO89f+9ifunOUesNpXf+vtli7+o9i4e+89HFe37kA4vnf/XlcPcDDw8Pbyqe+vnRJ/yv/L0ev01Q+vB0Xjx4eHjT9vruf333U/f5w5uWd+2Lryze96lnFw+/+s5lGC7/D3rKeiOSV1773rP3LB7+nncu3vt3nl1c+8Ir9vcXDw8Pz8VTPz/6hP8y36/8Q8dfKCB9eDovHjw8vGl7ffe/vvup+/zhTcN7+ievLd7+196xmD94p2VYT+Gd2zu3uPRvPLR4748+a3d/8fDw8Ny8AM+PndvJvN83/Bfii7dePKm9K79wEHp8eHhXPncQenxDe333v777qfv84eXrXf3llxbv/L5vWtz9gX15uHbz7nrswvLA5Jmf+2DY+zs1r/HZltn14vl5Vz57EHp80bwA+/1ObT3v9w3/hfjirRdPSu/h73nH4txbzi9/OVLE8eHhvf+/f25xbv/84qHveCTk+Mbw+u5/ffdT9/nDy897+iefX9z3LQ8sztzRvNZzCOtjemfOnlnc9+cuLec0yv2dolcextxx97nFU3/vasjx4eG9/797bnH+ntni8rc/EnJ8Eb0A+33rVvc/+4sB3iMofdg5L55UXhn+q/lrfAhlcL14fl4V/qvP9alDgMyut+p997+++6n7/OHl473/7z+3uP/PP7AMrUPVB0PXG7bemWJxz0v3Ld8okMt6cfHK8F/dh431V0bXi+fnVeG/2leWhwCBxhfVC7Dft2qbftK/6Bn+C/HFWy+eFN7J8F/N2c6HAEbXi+fnrYf/qh8fAmR2vSd73/2v737qPn94/t77Pn1lsf/iW33DtZm3f/DWxfv+7hXb9eLknQz/G+uvjK4Xz89bD/9Vf+jbN/wkpvn1DukF2O8b29av+Q/wHkHpw8558Yzt1YX/qrc+BDC6Xjw/b1P4r/pD1Ul0Jte73vvuf333U/f5w/P1yu/4P/Btb18UZ/MJ1zbe2TOLt33Lg4srn71us17cvLrwf6r+yuh68fy8TeH/uP7a9HVM0+sd2guw329tjb/jr+97BNUPO+fFowr/Vec7aXiRw3+1H+T8nbS++1/f/dR9/vAMvaP++A88uTh3z/bP/hD1Ad52r/y9QI/+B+9avl4x7Hox9LaF/5X6q/ydTBlcL56f1xT+q976ECD49Y7hBdjvN7ZWv+C/73sE1Q8758WjDP9V5ztpeJHDf9Vz/U5a3/2v737qPn94Xl75HfSLT74lZBiesnf3U3uLp37iuXDrxdFrE/6r+7H8xcyfvmp9vXh+XtvwX/XGQ4Dg1zuWF2C/r20DvN1vczuJqx92zotHHf6rznfS8CKH/6rn+J20vvtf3/3Uff7wTLyj/shrj7f+BX9D1Qd47b3yrQtleH3hiwHWi6m3S/ivOm9nwkvp7Rr+qz6ltzO19QLs96dasvB/8gBAdPHWiydC+K8630nDS+F1Df/Vv8vtO2l997+++6n7/OHF98rvme9/cLdf8jdUfYC3u7f3/L2LK/9gwzvrDddf5PBfdd7OhJfC6xr+N9Zfwa93bC/Afr/Skob/6gBAePHWiydK+K8630nDG9PrG/6rntN30tTFvvv84cX2nrz5zOL8fTNZfYDXzZtdmi/e+6PP2q8/h/C/Un/xdia8kby+4f9U/RX8elN4Afb745Y8/C/fIyh+2Dkvnkjhv7offCcNbwxvqPBf9Vy+k6Yu9t3nDy+o92tHoejoubTrb/gfuj7A6+6VXwl45OOPe64/s/Bfdd7OhDeGN1T4r3rub2dq6wXY75dNEv5v49KHnfPiiRb+q8530vCG9IYO/1XP4Ttp6mLfff7w4nnXvvDK4tJfeChCcYQ3gPe2b31weU9d1p9r+K86b2fCixz+q/Wc89uZ2noB9mdp+C/EF2+9ePp6Y4T/qvOdNLwhvLHCf9Xdv5OmLvajrRc8b+/5X3l5ce/1+2XrGW8c762vvG3x/P/ycvj15x7+q87bmfAih/+q5/p2praeen9Wh/9CefFld148fbwxw3/17/hOGl4fb+zwX3Xn76Spi/1I6wXP27v6iy8t9p65R7qe8cbz9q/eu3jul14Ku/5yCf9V5+1MeJHDf9VzfDtTW0+9P6vDf6G8+PLvOy+erl6K8F91vpOG18VLFf6r7vqdtLE/v009ynrB8/ae/bkXFxceuyhfz3jjehe+6e7Flc9fD7f+cgv/VeftTHhdvFThv/p3ub2dqa2n3p/V4b9QXvzKAYDh4unipQz/Vec7aXiRw3/lOX4nLcXnd1uPsF7wvL3y/wpffNfdyZ5HeFrvwhMXF8/9ykth1l+u4b/qvJ0Jb5eeOvxXPae3M7X11PuzOvwXyos/PgAwXTy7eorwX3W+k4YXOfxX3e07aak+v5u6er3geXvP/6OX+bH/CXp7V+9ZPP+Fl+XrL/fwX3m8nQmvTVeF/6rn8namtp56f1aH/0J58csDAOPFs4unDP9V5ztpeJHDf9WdvpOW8vNb13Naf3hpvfI3w7/1FX7h31S9e1++f3Hti69ks56jhv+q83YmvG1dHf6rnsPbmdp66v25T/hf+Xs9fpug9OHkvHjaehHCf9X5Thpe3X8fJfxX/87lO2mpP7/rXi7rDy+x92sfWlz61gflzyM8rXfp33woj/UcPPxXnbcz4dX1KOG/6u5vZ2rrqfeDPuG/zPcr/9DxFwpIH07Oi6eNFyn8V53vpOGd7NHCf9UdvpOm+Pye9HJYf3jpvbd/T7tQFGk/wBvHe+Tjj9uvZ4fwX/073s6Ed7JHC/9Vd347U1svwH6wczuZ9/uG/0J88daLp8mLGP4rj++k4ZU9avivevTvpKk+vysHAMbrDy+99+TNZxZnznbolfXSAAAgAElEQVRfg5HCK15/78wdZxbv/dFnbdezU/ivOm9nwit71PBfdde3M7X1AuwHO7X1vN83/Bfii7dePNu8yOG/6nwnbdpe9PBf9cjfSVN+fpcHAMbrDy+9d+Wz1xfn75uFfB7h6bzZpfniavl6QLP17Bj+q87bmabtRQ//lef4dqa2RoD9oHWr+5/9xQDvEZRuhs6LZ5PnEP6rznfSpum5hP+qR/1Omnr+XNcfnsD7tQ8t9l+4N/TzCE/n3XNw3+KFLxitZ+PwX3XezjRNzyX8V93t7Uxte4D9oFXb9JP+Rc/wX4gv3nrx1HlXfuFgcf4oWEX+MK975/aOHkI/8VyI+cMb3yvvdXnPo6y/Nr0c75XPHYSYv5NdPX+O6w9P4739r73T4nmEp/Meee1xm/Vc55XPiKZnW7T7car+Mt1f8Nr1p378ueOMEGH9tfHK8V757EGI+RvSC7AfNLatX/Mf4D2C0s3QefFs8t7/483/d3Wo+RvK4ztp0/Dc/s//qbUZ7H6o589t/eFpvKd+7Grn7/1H2w/wxvPOnju7eP/fey78et7mNT3jIt4P3s40Dc/t//yXfflV4R/r8FPCBvcjwH6wtTX+jr++7xFUb4bOi2eb1yZoDTF/Q3p8Jy1vj/A//P1Qz5/T+sMTeUf97qf2JJ9fPD/v4nvfsnjhi4HXcwtv07Mu8v3g7Ux5e4T/WPej/HsB9oONrdUv+O/7HkH1YnRePE3erocAARYj30nL1CP8j3M/1PPnsv7wdN47P/FuyecXz9d77Pu/Kex6bmusP/Mc7gdvZ8rTI/zHuh+VF+B+1LYB3u63uZ3E1YvRefG08doeAkR6OJ06BMjofkzRI/yPdz/U8+ew/vB03pXPXz8q5Jq/Ex19P8BL65XfS7/6i9fDreddrerZ53Q/eDtTXh7hP9b9OOkFuB+nWrLwf/IAQHTx1ounrcd30mLdjyl5hP9x74d6/qKvPzytd/+3PiB5fgzllUH03pfvX1z+7kcXT/zQe5f7wjP/4wePwulLi2u/+or8flz7tVcWV//hS4tnfvaDi6d+/OpyjJe/+x2Lt374bYvz987k89fHe9tfeDDceu7ilb+TaT2ARb8fvJ0pD4/wH+t+rHsB7sdKSxr+qwMA4cVbL55dPL6TFut+TMEj/I9/P9TzF3n94Wm99336yqI4o3t+dPXuevzi4pGPP37rN6N/UTd/vb0vHO3BR9dQ/mb9C09clD/Pd/aO1s7WIGB0P04eAiifb7t4Ox8CGN2PKXiE/1j3o84LcD+OW/Lwv3yPoHgxOi+eXT2+kxbrfuTsEf7T3A/1/EVdf3h6b//grfLnR1vv7Pzs4tJfurz5dbQZ3I9yT37gL19eXmv0+1H1e67fF2b++nq8nSnW/cjZI/zHuh+bvAD3Y9kk4f82Ll2Mzouni8d30mLdjxw9wn+6+6Gev4jrD0/vlT+OHuX5sc2748Idi4e+45HFlX+w5R3TGdyPk7281vKa77jrjnD341Q/UyzDTKT56+PxdqZY9yNHj/Af635s8wLcD2n4L9SL0XnxdPX4Tlqs+5GTR/hPez/U8xdt/eHF8O798P2hnh91/909L923ePbnXww5fym8Zz97sLj/z5/+HQ3R9ue3/mtvCzl/XT3ezhTrfuTkEf5j3Y8mT30/1OG/UF582Z0XTx+P76TFuh85eIT/9PdDPX+R1h9eDO/pn7y2KM7Ge35UffbAfPGeH/lA2PlL7b3nbz+9OH/fLOT+vOxHa6lcU1Hnr4vH25li3Y8cPMJ/rPvRxlPfD3X4L5QXX/5958XT1+M7abHuh7NH+NfcD+X8lT3K+sOL4933LZfCPj/2X7h3+4/7B5g/hXf189cX97x4X6j9+WS/7889EHr+uni8nSnW/XD2CP+x7kdbT30/1OG/UF78ygGA4eIZwuM7abHuh6NH+NfdD9X8Vd19/vCG9a587mBx5o7mtZR8PzhTLB7+2GPt5iCj+7GT94UPLd7+nY+G2J/X+9lzZxdXfuEg9vx18Hg7U6z74egR/mPdj1089f1Qh/9CefHHBwCmi2coj++kxbofTh7hX3s/FPN3srvPH96w3qP/3hPhnh9nzp5ZPPb932QxfxG8d/yH7279FY6U9/fRv/6Exfzt6vF2plj3w8kj/Me6H7t66vuhDv+F8uKXBwDGi2dIj++kxbofDh7hX38/Us/fenefP7xhvQvvujvUflD+NMK7/+ZTNvMXxXvih97b6RBgzPt78V1vsZm/XS3ezhTrfjh4hP9Y96OLp74ffcL/yt/r8dsEZRe/PAAwXjxDe3wnLdb9iOwR/mPcj9Sft3XPff7whvOe/h+ej7UfnCkWj/1H77GZv2jeOz/xbvn+st7L547L/O3q8XamWPcjskf4j3U/unrqz2+f8F/m+5V/6PgLBWQXX/658+IZw+M7abHuR0SP8B/nfig+byc99/nDG8578K8+HGo/ePijj1nNX0Tvoe98VLq/rHvlGnOav1093s4U635E9Aj/se5HHy/A53fndjLv9w3/hfjirRfPWB7fSYt1PyJ5hP9Y90P1eVs5ADCeP7xhvGv/5JXjV8lF2A/u+eb72s1BkPkL633xQ4u9a/eG2e/LNVauNZv56+DxdqZY9yOSR/iPdT/6egE+vzu19bzfN/wX4ou3XjxjenwnLdb9iOAR/mPdj7IrP2/LAwDz+cMbxnvfp54Nsx/MLs0XV3/xutX8RfaufP76YnZ/nMOd9/3dK1bz18Xj7Uyx7kcEj/Af634M4QX4/LZudf+zvxjgPYLSzct58Yzt8Z20WPeD8E/4X+/q++E+f3jDeA+/+s4w+8GT/80H7OYvuvdNf/vpMPf34Y++027+uni8nSnW/VB6hP9Y92MoL8Dnt1Xb9JP+Rc/wX4gv3nrxpPD4Tlqs+0H4b9enEP7Lrr4f7vOHN4y3d/WeEPvBfR+5ZDl/Dt69H7pffn/LXq41x/nr4vF2plj3Q+ER/mPdjyG9AJ/fxrb1a/4DvEdQunk5L55UHt9Ji3U/CP87FCCZ3Y/1rr4f7vOH1997/h+/vDg7OyvfD+64cMfi2c8e2M2fi/fsz7+4OHvXHfL9vlxr5Zpzm7+uHm9ninU/UnqE/1j3Y2gvwOd3a2v8HX993yOo3rycF09Kj++kxbofKTzCf6z7UdfV98N9/vD6e+WP3EfYD8rfWO84f07eQ3/1kRD7/ZM3a77mYTB/XT3ezhTrfqTwCP+x7scYXoDP78bW6hf8932PoHpxOy+e1B7fSYt1P8b0CP+x7semrr4f7vOH19+7/F2PyveD8v8KX/nclv/7H3j+nLwr//PB4o4775Dv9+Wac5y/Ph5vZ4p1P8b0CP+x7sdYXoD7W9sGeLvf5nYSVy9u58Wj8PhOWqz7MYZH+I91P7Z19f1wnz+8/t7ec/fI94NLf+my7fy5eQ/8xcvy/X7l9wCYzV8fj7czxbofY3iE/1j3Y0wvwP091ZKF/5MHAKKLt148Ko/vpMW6H0N6hP9Y96Opq++H+/zh9fdm98/l+8FTP/Gc7fy5eWWYUz/Py9cSus5fX4+3M8W6H4R/wn9XL8D9XWlJw391ACC8eOvFo/T4Tlqs+zGER/iPdT/aeOr74T5/eP285375m+X7wV2PXbCdP1fvwhMX5c/z537lm23nr6/H25li3Q/Cv37+HL0A9/e4JQ//y/cIihe38+JRe3wnLdb96OMR/mPdj7ae+n64zx9eP6/cS9X7wSOvPWY7f67ew//uY/Ln+dQP83k7U6z7QfjP536k8gLc32WThP/buHRxOy+eCB7fSYt1P7p4hP9Y92MXT30/3OcPr5/3+H/8pHw/OPXj/0bz5+qVc65+nj/xA0/azt9QHm9ninU/uniE/1j3I6UX4P5Kw3+hXtzOiyeKx3fSYt0Pwr/v/djVU98P9/nD6+e9/d9+VLr+yr3g2hdfsZ0/W++LH1qcu6dd8Bzr+fH273qH7/wN6PF2plj3Y5dO+I91P1J76vurDv+F8uLL7rx4Inl8Jy3W/SD8+92PLp76frjPH14/776PvE26/u59+X7r+XP27n3lfunz/P6PPGA9f0N6vJ0p1v1o0wn/se6HwlPfX3X4L5QXX/5958UTzeM7abHuB+Hf53509ZT3o+zu84fXz9t/4V7p+rv83e+wnj9n7/J3Pyp9ftxzcJ/1/A3t8XamWPdjWyf8x7ofKk99f9Xhv1Be/MoBgOHiiejxnbRY96Puvyf8x7offTzV/ai6+/zh9fPufv+edP098UNPWs+fs/f4Dz4pfX685Zl96/kbw+PtTLHuR+09IvyHuh9KT31/1eG/UF788QGA6eKJ6vGdtFj342Qn/Me6H309xf042d3nD6+f1+V1cEOuv2VRajx/zl4598rnx4V3XbSev7E83s4U636s3BvCf6j7ofbU91cd/gvlxS8PAIwXT2SP76TFuh9t70mk+3HqnmR2P4bwUt+P9e4+f3j9vPmDd0rX3zM/80Hr+XP2nvnZD0qfH/PLd1rP35geb2eKdT+W94TwH+p+RPDU97dP+F/5ez1+m6Ds4pcHAMaLJ7rHd9Li3A/Cf6z7MZSX+vOx7rnPH14/79zeOen6u/r5l6znz9m7+ovXpc+P8i0EzvM3tsfbmeLcD8J/rPsRxVN/3vqE/zLfr/xDx18oILv48s+dF4+Dx3fS9PeD8B/rfgzpKT4fJz33+cPr5505324djbX+rv3qK9bz5+xd+7WXpc+PM+fPWs9fCo+3M+nvB+E/1v2I5AX4vO3cTub9vuG/EF+89eJx8fhOmu5+EP5j3Y+hPdXnY+UAwHj+8Pp5bQ4Axlx/ywMA4/nDwxvb4+1MuvtB+I91P6J5AT5vO7X1vN83/Bfii7dePE4e30lLfz8I/7Huxxie8vOxPAAwnz+8fl7TVwDGXn/LrwAYzx8eXgqPtzOlvx+E/1j3I6IX4PPWutX9z/5igPcISjcb58Xj5vGdtHT3g/Af636M5anvr/v84fXztv0SwBTr75n/6YPW84eHl8rj7Uzp7gfhP9b9iOoF+Ly1apt+0r/oGf4L8cVbLx5Hj++kjX8/CP+x7seYnvr+us8fXj9v02sAU62/p37c73AWD0/l8Xam8e8H4T/W/YjsBfi8NbatX/Mf4D2C0s3GefG4enwnbbz7QfiPdT/G9tT3133+8Pp5d79/T7r+nvhP3ms9f3h4qT3ezjTe/SD8x7of0b0An7etrfF3/PV9j6B6s3FePM4e30kb/n4Q/mPdjxSe+v66zx9eP2//hXul6+/t3/MO6/nDw1N4vJ1p+PtB+I91Pxy8AJ+3ja3VL/jv+x5B9YfFefG4e3wnbbj7QfiPdT9Seer76z5/eP28t37kbdL1d++H77eePzw8lcfbmYa7H4T/WPfDxQuwXmrbAG/329xO4uoPi/PiycHjO2n97wfhP856Tu2p76/7/OH18y5/16PS9Vfuey980Xf+8PCUHm9n6n8/CP9x1rObF2C9nGrJwv/JAwDRxVsvnlw8vpPWff4I//HWc0pPfX/d5w+vn/f433hSvr+8/+8/Zzt/eHhqj7czdZ8/wn+89ezkBVgvKy1p+K8OAIQXb714cvL4Ttru80f4j7ueU3nq++s+f3j9vPLHcdX7yyMff9x2/vDwIni8nWn3TviPu55dvADr5bglD//L9wiKPyzOiyc3j++ktZ8/wn/89ZzCU99f9/nD6+c990svyfeXux6/aDt/eHhRPN7O1L4T/uOvZwcvwHpZNkn4v41LPyzOiydHj++kNc8f4d9nPY/tqe+v+/zh9fdm98/l+0u5J7rOHx5eFI+3MzV3wr/Peo7uBVgv0vBfqD8szosnV4/vpG2eP8K/33oe01PfX/f5w+vv7V+9V7b+qv7AX75sO394eJE83s60uRP+/dZzZE+9XtThv1BefNmdF0/OHt9JO90J/77reSxPfX/d5w+vv/fQdzwq35/Pzs4urnz2wHL+8PCiebydqWZOCP+26zmqp14v6vBfKC++/PvOiyd3j++kfaMT/v3X8xie8v6W3X3+8Pp77/mRD4TYnx/69kcs5w8PL6LH25lOzAXh3349///t3W2MHdd93/Gzl8tnilxyl1xxJVIUKUukSErcJSmJD6JS17HdNI+uDaeJnTh1/SAHadK+sA00tgMUaJCkbtM0cOSH2KkBo66dpI7lpzixI9dqAyQvXAQB8iIJArRIbSPpiyBPtl94unPJu7737tyZufP0//3PfA8wL0hpP5g553/PnN9w5x5Fz7perMN/sLz4iQcADounDx7vpBH+Y6rnpj2r8R0d3vsPr7535fNPJgs756ufNuarxX2LyaVfe8Jd/+HhqXrszkT4j6me1TzrerEO/8Hy4rceADgtnr54fX4njfBvX3/KnsX4jh/e+w+vGe+uS4ck5uflFx5z2X94eKpen3dnIvzb11/MnnW9WIf/YHnxwwcAjounT14f30kj/OvUn6rX9fhOH977D68Z757X3mdSf1neQ//uorv+w8NT9vq4OxPhX6f+YvWs66VO+J/4uRrfJmi6WPBcPH3z+vROGuFfr/4Uva7redrz3n94zXjn3nXJpP6yvJ1HdiXrz15z1X94eOpen3ZnIvzr1V+MnvXno074T/P9xB8qfqGA6WLBc/H00evDO2mEf936U/Ms6nnc895/eM14V794K9m5vEtmvjq4sZRcff6Wm/7Dw/Pg9WF3JsK/bv3F5gl8PuZu43m/bvgPxhfvunj66sX8ThrhX7/+lDyrep54AOC4//Ca8+5+5b1S89XaD5101X94eB68mHdnIvzr119MnsDnY642nffrhv9gfPGui6fPXozvpBH+/dSfimdZz8MHAM77D685L108q81XJ3/8jJv+w8Pz4sW4OxPh30/9xeIJfD5Kt6x/7A8N7CNoOjl4Lp6+ezG9k0b491d/Cp51vXjvP7xmvX1n9mvNV4OQnHnHOTf9h4fnxYtpdybCv7/6i8ET+HyUarN+0z/UDP/B+OJdFw9eHO+kEf791p+1Z10v3vsPr1nvxI+e1puvFkJy8sfOuOg/PDxPXgy7MxH+/dafd0/g81HYcl/zb2AfQdPJwXPx4D219RDA6ztphH//9WfpWdeL9/7Da9Zb//i1ZLA4kJqvRsfwOwG+qN1/eHjePM+7MxH+/defZ0/g85HbCr/jr+4+gtaTg+fiwfuW5/GdtMG+HcMbker5ZR2Efy3Pul689x9e897Kt6/KzFfTx6GNw8n6x65J9x8enjfP4+5M6forDdOq55flEf7j8gQ+HzNbqS/4r7uPoPWHz3Px4E16Ht9J8+QR/vU863rx3n94zXsXP3glWdhhP1/N8nat7E4e/NkLsv2Hh+fR87g7kyeP8B+fJ1B/ma2B3f1mt3Hc+sPnuXjwtv+/Ht9J8+AR/jU963rx3n947XhHnlqRn/+Wbiwnj/7645L9h4fn0fO4O5MHj/AfpydQf9taZ+F//AGA0cW7Lh687MPjO2nKHuFf17OuF+/9h9eOl84XHua/wd4dyfEfOJGsP3tNqv/w8Lx6HndnUvYI//F6AvU30ToN/6MHAIYX77p48GYfHt9JU/QI/9qedb147z+89rxD1464mf8GuwfJsZetJec/cFmm//DwvHoed2dS9Aj/cXsC9bfVOg//w30EjT98nosHL//gnTTCf+yedb147z+89ryH37s+3ILP2/y39/T+5N433n/7YcDz8YwHHl6XnsfdmZQ8wn/8nkD9DZtJ+L+Dm374PBcPXvHBO2mE/5g963rx3n947XpHv/Nul/Pf6Fg8uJgcvrWSrP3wyeTM284l59+9kTz6Xx9PNj5xPbn63C1344GH16XncXcmBY/w3w9PoP5Mw3+w/vB5Lh68ch7vpBH+Y/Ws68V7/+G16218+nqyuJQfANTmP0/ews6FZOfBncmee/Ym+x84kNx14VCy9NiRZPlFx4YPLU6//ewwSFz+7A0X9YIXn8fuTPN5hP/+eNb1Zx3+g+XFp4fn4sEr7/FOWrmD8O/Ls64X7/2H17536i0Pupn/YvZ2Lu9KDm4sJcdffTJ56OcfSa58/knJesGLz2N3pnIe4b9fnnX9WYf/YHnx6c97Lh68+TzeScs/CP/+POv6895/eB14zz+VHLhwUH7+65uX/vbAXZcOJfe89lRy7l2Xbr/SoFAveFF67M6U7xH+++dZ1591+A+WFz/xAMBh8eDN7/FOWvZB+PfpWdef9/7D68a78CuXk4UdC43XH15z3s7N++Lqdx9Pzv3iJfN6wYvTY3embI/w30/Puv6sw3+wvPitBwBOiwevmsc7aZMH4d+vZ11/3vsPrzvvxNP3S85/eNu9vffvS+557X3Jo7/+eDT1h6fhsTsT4R/v9mFdf9bhP1he/PABgOPiwavu8U7a7YPw79uzrj/v/YfXoff8U8mRJ1ek5j+8fG9hsJAsv/hYcvFDV/zXH56Mx+5MhH+84vVb2/VXJ/xP/FyNbxM0/TB7Lh68el7f30kj/Pv3rOvPe//hdettfPJGsuf4Xon5D28ObyEkSzeWZ4cVJ/WHp+P1fXcmwj+edT3XCf9pvp/4Q8UvFDD9MHsuHrz6Xl/fSSP8x+FZ15/3/sPr3nv4mfVksHMQ1XzaJ+/QtSPJw+9dd1t/eDpeX3dnIvzjpYdAPc/dxvN+3fAfjC/edfHgNeP17Z00wn88nnX9ee8/PBvvxNOno5lPe+kthGTlpavJ+ieuu6w/PB2vb7szEf7xRodAPc/VpvN+3fAfjC/edfHgNef15Z00wn9cnnX9ee8/PDtv9RX3uJ9P++6lYebkv3jgW1sIOqo/PB2vL7szEf7xxg+Bei7dsv6xPzSwj6Dph9lz8eA168X+ThrhPz7Puv689x+eoZd+KeALj7qdT/G+5dx1/tBmsLnsq/7wpLzYd2ci/ONNHwL1XKrN+k3/UDP8B+OLd108eM17sb6TRviP07OuP+/9h2frXf3CreTQY4fdzad4272FHQvDrQPTBzte6g9Py4t1dybCP17WIVDPhS33Nf8G9hE0/TB7Lh68drzY3kkj/MfrWdef9/7Ds/cu//bNZP9DB9zMp3j53sErh5P1T1xzU394Wl5suzMR/vFmHQL1nNsKv+Ov7j6C1h9mz8WD154XyztphP+4Pev6895/eBre+ievJ/se3P4QQG0+xSvn7Tq2Ozn3S5fc1B+elhfL7kyEf7w8T6CeZ7ZSX/Bfdx9B6w+z5+LBa9fz/k4a4T9+z7r+vPcfno53+XM3J14HUJtP8ebz0lcCTrzptJv6w9PyvO/ORPjHK/IE6jmzNbC73+w2jlt/mD0XD177XnoTSoN0W/XXlrdj3w7Cfw886/rz3n94Wl76nQBHXnRUbj7Fq+4d/cd3J1e/eMtF/eFpeaP1l1I9l/EW9y8S/vEKPYF63tY6C//jDwCMLt518eC175V5AKB4cxqMHgBENh54k4d1/XnvPzw9L30IsPp9a1LzKV497/CtleTKc0+6qD88He/Cr1we/ku6Wj0XeYPxf4CJaDzwmvUE6nmidRr+Rw8ADC/edfHgteuVeQVAcbE1OoavALx3I5rxwNvuWdef9/7D0/VOPH06GSwOZOZTvHrewY2l5PKnb7ipPzxbLw3/09syK9VzkTfxCmYE44HXvCdQz1ut8/A/3EfQ+MPsuXjw2vO8h/+RN3wP7T0b7scDL9uzrj/v/Yen7aUPMHcf3yMzn+LV8/Y/eFey/vHrbuoPz8bzHv5HR+mHAOLjgdeOJ1DPw2YS/u/gph9mz8WD144XS/gfHcOHAO/dcDseeLM96/rz3n94+t7Gp64nS9eOyMynePW8/WcO3P5NACf1h9etF0v4Hx2FDwHExwOvPU+gnk3DfzC+eNfFg9e8F1v4Hx1z/zqayHjg5XvW9ee9//CceJt/PvkTDyQLi8W16XF+7puXvg4w/E4AL/WH14kXW/gfHTPXX+LjgdeuZ13P1uE/WF58enguHrxmvVjD/+i/8U5afJ51/XnvPzxf3oUPXk4OXDwoMZ/i1fMOP7mSXH3+lqv6w2vPizX8j45t6y/x8cBr37OuZ+vwHywvPv15z8WD15wXe/gfHbyTFpdnXX/e+w/Pobf5/5x+29lkcWln4/WM16137HuP+6s/PMJ/RW9r/SU+HnjdeNb1bB3+g+XFTzwAcFg8eM14fQn/o4N30uLxrOvPe//h+fU2fvNGsvqKe5IwiGt+7pt34k2nXdYfXjNeX8L/6GB3JrzRYV3P1uE/WF781gMAp8WDV9/rW/gfHbyTFodnXX/e+w/Pv5fucnL4+kqyMIhnfu6Tt7BjITn3S5fc1h9eda9v4X/ksTsTXnpY17N1+A+WFz98AOC4ePDqeX0N/6ODd9L8e9b1573/8OLxLvzKleToS1aHDwJimJ/75O06tnu424Pn+sOb7+hr+B8d7M6EZ13PdcL/xM/V+DZB0w+z5+LBq+71PfyPDt5J8+1Z15/3/sOLz7v4oavJ8kuODf9l2frzgVf+5w9dO5I89rz/+sMrPvoe/kcHuzP127OuvzrhP833E3+o+IUCph9mz8WDV80j/E8evJPm17OuP+/9hxevt/GZG8mptzyYHHjkkOv5uU/e8PsAIqk/vOyD8D/psTtTfz2B+pu7jef9uuE/GF+86+LBm98j/Gd7vJPm07OuP+/9h9cP7+KHriTHX3Ui2bm8y+X83Bcv/a2NC7982bxe8NrxCP/ZHrsz9dMTqL+52nTerxv+g/HFuy4evPk8wn++xztp/jzr+vPef3j98tJ95x9+5lJy7+tOJQc3lpLBrh1u5ue+eAfOHUwee06jXvCa8wj/+R67M/XPE6i/0i3rH/tDA/sImn74PBcPXnmP8F/O4500X551vXjvP7x+e1d+68nk7H94JLnn1SeTQ5cPJ7tWtv+GgNL83Bfv/jc/KFkveNU8wn85j92Z+pXBGL4AACAASURBVOUJ1F+pNus3/UPN8B+ML9518eCV8wj/83m8k+bHs64X7/2HhzftXf6tm8n5928kZ95xLll7zX3J8ouPJYcePzL8LoF9DxxIdq/tSRYPLiYLOxc6/7z1xdu5eb/e+OR1F/WCl38Q/ufz2J2pP55A/RW23Nf8G9hH0PTD57l48Io9wn81j3fSfHjW9eK9//DwPHtXv3Ar2fjNG8mjv/r47YcWP3UuWfuR+5LD37aSLC7tdH0/Ovpdd7sbD7zJg/BfzWN3pn54AvWX2wq/46/uPoLWHz7PxYOX7xH+63m8k6bvWdeL9/7Dw4vW2/zZCx+4nJx4+nSy/8wBf/ejhZCcfx+/iebVI/zX89idKX5PoP5mtlJf8F93H0HrD5/n4sGb7RH+m/F4J03bs64X7/2Hh9cX78L7LyerL1tLBrsHbu5HS9eXZfoPr/xB+G/GY3emuD2B+stsDezuN7uN49YfPs/Fg5f9/xP+m/V4J03Xs64X7/2Hh9c3b/0T14ZbIu7Yu0P/frQQhmFSqf/w8g/Cf7MeuzPF6wnU37bWWfgffwBgdPGuiwdv+0H4b8fjnTRNz7pevPcfHl5fvUsfv5asvHRV/n505B8clew/vO0H4b8dj92Z4vQE6m+idRr+Rw8ADC/edfHgTR6E/3Y93knT86zrxXv/4eH13XvonReTncvZ2x9azy/DYxCSix+6Ktt/eLcPwn+7HrszxecJ1N9W6zz8D/cRNP7weS4evG8dHsP/jn07hpO66vllebyTpuVZ14v3/sPDw3sq2fjU9eTQE0dk75fLL1mV7r++ex7D/+L+xYn1l9r5ZXnszhSXJ/D5GDaT8H8HN/3weS4evNuHy/B/ZyIfnbva+eV5vJOm41nXi/f+w8PDu3M8/1Sy9kMnJe+XCzsWkvVnr2n3X089l+E/XcO8b6PU2tHi/PI8dmeKxxP4fJiG/2B88a6LB893+B9db/rtzNM3UMvzK+PxTpqGZ10v3vsPDw9v0rvvX75gGLjV7kcnf+yMi/7rk+c5/G9dw5wPARTWk+zOFIdn/fmwDv/B8uLTw3Px9N2LIfyPrnf8IYDl+c3j8U6avWddL977Dw8Pb7t35m3nth4CqNyP9j1wwE3/9cGLIfxvXUvJhwBK60l2Z/LvWX8+rMN/sLz49Oc9F0+fvZjC/+hIHwJU+XU0y+vlnTRbz7Ke08N7/+Hh4WV7p/7VC8znl2nvwgcuu+m/mL2Ywv/WNRWsKdXWkxPrL/F6wcv2rD8f1uE/WF78xAMAh8XTVy/G8D+6Xt5J068/Jc+qnkeH9/7Dw8Ob7R1/9UnT+WXaO/7997rqvxi9GMP/1rXNWH+prSe3rb/YncmlZ/35sA7/wfLitx4AOC2ePnoxh/95rlHtenknzcazqOfxw3v/4eHh5XjPP5UcvHrYbH6Z9nat7E6uPnfLT/9F5sUc/reucWr9pbC+KvLYncmnZ/35sA7/wfLihw8AHBdP37w+hP95rlXtenknrXuv63qePrz3Hx4eXr63/snrm8F7l8n8kuU9/My6q/6LxetD+N+6VnZnkqu/GD3rz0ed8D/xczW+TdD0ZuK5ePrk9Sn8l71mteuduObI6k/V63p8pz3v/YeHh1fsPfjOiybzS5Z37+tPues/716fwv+o/9idSaf+YvWs66VO+E/z/cQfKn6hgOnNxHPx9MXrY/gvuna169127byT1olnMb7jnvf+w8PDK+cdfmpF4v57cGPJZf959foY/kf9x+5M9vUXsydQL3O38bxfN/wH44t3XTx98Poc/mf1gdr1Znm8k9aNZzW+Ew8AHPcfHh5eOe/Sf3siGezdYX7/HewaJFd+50l3/efR63P4Hx3szhRPPat5AvUyV5vO+3XDfzC+eNfFE7tH+N/eF2rXm+fxTlr7nuX4Dh8AOO8/PDy88sbxHzghcf89+wuPuOw/Tx7h/1v9x+5M/utZ0ROol9It6x/7QwP7CJp+WDwXT8we4X97//FOmt96bsuzHl/v/YeHh1f+WP/EtWSwe2B+/1374ZMu+8+LR/jf3n/szuS3nlU9gXop1Wb9pn+oGf6D8cW7Lp5YPcL/7P7jnTR/9dymZz2+3vsPDw9vvuPY962Z339zvwdAvP/UPcL/7P5jdyZ/9azsCdRLYct9zb+BfQRNPyyeiydGj/Bf3H+8k+anntv2rMfXe//h4eHN56WvdVnff9NtCb32n7JH+C/uP3Zn8lPP6p5AveS2wu/4q7uPoPWHxXPxxOYR/sv3H++k6ddzF571+HrvPzw8vPm9/WcOmN9/L//WTbf9p+gR/sv3H7sz6dezB0+gXma2Ul/wX3cfQesPi+fiickj/M/ff7yTplvPXXnW4+u9//Dw8Ob3TrzhfvP7L7/W3JxH+J+//9idSbeevXgC9ZLZGtjdb3Ybx60/LJ6LJxaP8F+9/3gnTa+eu/Ssx9d7/+Hh4c3vnX/fZdP7b3qcecdZt/2n5BH+q/cfuzPp1bMnT6BetrXOwv/4AwCji3ddPDF4hP/648E7aTr13LVnPb7e+w8PD6+Ct3ksLlX7Hpqm5qu119znt/9EPMJ//fFgdyadevbmCdTLROs0/I8eABhevOvi8e4R/psbD95J0xqPrjzr8fXef3h4eNW8w7dWTO8fyy865rr/rD3Cf3Pjwe5MWuPhxROol63Wefgf7iNo/GHxXDyePcJ/8+PBO2la49GFZz2+3vsPDw+vmrf2mpOm94+la8uu+8/SI/w3Px7szqQ1Hh48gc/bsJmE/zu46YfFc/F49Qj/7Y0H76RpjUfbnvX4eu8/PDy8at7pt581vX8cfHTJdf9ZeYT/9saD3Zm0xkPdE/i8mYb/YHzxrovHo0f4b388eCdNazza9KzH13v/4eHhVfPSQGZ5/9j/wAHX/WfhEf7bHw92Z9IaD2XP+vNmHf6D5cWnh+fi8eYR/rsbD95J0xqPtjzr8fXef3h4eNW8R3/1cdP7x5579rruv649wn9348HuTFrjoepZf96sw3+wvPj05z0XjyeP8N/9ePBOmtZ4tOFZfj7Sw3v/4eHhVfM2PnXd9P6x8/Au1/3XpUf473482J1JazwUPevPm3X4D5YXP/EAwGHxePEI/3bjwTtpWuPRtGf1+Rgd3vsPDw+vmnf1C0+a3j8Wdg5c919XHuHfbjzYnUlrPNQ868+bdfgPlhe/9QDAafF48Aj/9uPBO2la49GkZ/H5GD+89x9ePW9h5/y102T9XX3uluv+8+zNegDQ1f2j0gMAof7rwiP8248HuzNpjYeSZ/15sw7/wfLihw8AHBePukf41xkP3knTGo+mvK4/H9OH9/7Dq+ctHlw0rb+NT95w3X+evaxXALq8fywu7XTdf217hH+d8WB3Jq3xUPGsP291wv/Ez9X4NkGzix8+AHBcPMoe4V9rPMqMidp4TIyJQP8pel2Px7Tnvf/w6nm7795jWn+PfvRx1/3n2Zv+EsCu7x+71/a47r82PcK/1nikP8fuTFrjoeBZj2+d8J/m+4k/VPxCAbOLT//ec/GoeoR/rfEoMzZq47FtbHgnLdOzGI9xz3v/4dXz9p3Zb1p/W/OC0/7z7D383nXT+8e+B/a77r+2PMK/1niMe+zOpDUe1p7A+M7dxvN+3fAfjC/edfEoeoR/rfEoM0Zq45Hl8U5a9v9vNR4TDwAc9x9ePe/AhYOm9Xfm7edc959n7/RPnjW9f9z16CHX/deGR/jXGo8sj92ZtMbD0hMY37nadN6vG/6D8cW7Lh41j/CvNR55B++kaY1HVc9yPIYPAJz3H14979Bjh03r754fuc91/3n21l590vT+cejaEdf9R/jvX/gfeezOpDUeVp7A+JZuWf/YHxrYR9C0uD0Xj5JH+NcajzIe76RpjUcVz3o8vPcfXj3vyIuOmtbf4W9bcd1/nr3DN1dM7+fL337Mdf8R/vsZ/rfGjN2ZpMbDwhMY31Jt1m/6h5rhPxhfvOviUfEI/1rjMY/HO2la4zGvZz0e3vsPr5639sMnTesvve889rzf/vPqXf3CrWGAs7yf3/PP7nPbf4T/fof/rbFjdyap8ejaExjfwpb7mn8D+wiaFrfn4lHwCP9a41HF4500rfGYx7MeD+/9h1fPO/22s+bzwYUPXnbbf169h59ZN7+fn/mpc277j/BP+N8aQ3ZnkhqPLj2B8c1thd/xV3cfQevi9lw81h7hX2s86ni8k6Y1HmUN6/Hw3n949bx0IW89H5x402m3/efVO/HPT5nfz89/4LLb/iP82/efksfuTFrj0ZUnML4zW6kv+K+7j6B1cXsuHsI/4b9Jj3fStMajzGE9Ht77D6+ed/mzN8zng72nS2wHJ9p/Xr299+23vZ8vhOTy52667T/Cf1zj0YTH7kxa49GFJzC+ma2B3f1mt3Hcurg9Fw/hv/zPE/7LebyTpjUeRYf1eHjvP7z63s7l7UGk6/kgnbe89p837/y7N8zv57tWd7vtP8J/XOPRpMfuTFrj0bYnML7bWmfhf/wBgNHFuy4ewn+5g/A/n8c7aVrjkXdYj4f3/sOr7x3aOGw+H6z+kzW3/efNW/2e4+bzfbr9pNf+I/zHMx5teOzOpDUebXoC4zvROg3/owcAhhfvungI/8UH4b+axztpWuMxy7MeD+/9h1ffW3vVSfP5YLBrkKw/e81l/3ny1j92LRnsHpjP98MdABz2H+E/nvFo02N3Jq3xaMsTGN+t1nn4H+4jaFzcnouH8J9/EP7rebyTpjUeWZ71eHjvP7z63kP//hGJ+eD4q0647D9P3t2vvFdivj/3i4+67D/Cfxzj0YXH7kxa49GGJ/D5HTaT8H8HNy1uz8VD+J99EP6b8XgnTWs8pj3r8fDef3j1vSuffXL4L/DW88GOvTuSSx97wl3/efEu/foTyWBPtXFucr5Pz+Hq559013+E/zjGo0uP3Zm0xqNpT+Dzaxr+g/HFuy6eLjzCv9Z4WHi8k6Y1HuOe9Xh47z+8Zry7Lh2SmA+OvPCoy/7z4B3+thXz8U2PpceOuOy/Kh7hX2s8LDx2Z9IajyY968+vdfgPlhefHp6Lp22P8K81HpYe76Rpjcf4AwDL8fDef3jNePe89j6Z+eChn7vorv/UvYfeeVFmfE+88X53/VfFI/xrjYelx+5MWuPRlGf9+bUO/8Hy4tOf91w8bXqEf63xUPB4J01rPNI/W37e0sN7/+E145171yWZ+WDX8u7hl9V56j9lb+NT15NdR3fLjG8fvuOF8K81HgoeuzNpjUcTnvXn1zr8B8uLn3gA4LB42vII/1rjoeTxTprWeFh93kaH9/7Da8a7+sVbyc7lXTLzQbo1YXpOXvpP1ts8lm4uy8z3u4/tSa4+d8tP/1XwCP9a46HksTuT1njU9aw/v9bhP1he/NYDAKfF04ZH+NcaD0WPd9J0xsPi8zZ+eO8/vOa8st8Q39V8sPZDJ131n6J3z2tPmc4v01665aSn/pv3IPxrjYeix+5MWuNRx7P+/FqH/2B58cMHAI6Lp2mP8K81Hsoe76RpjEfXn7fpw3v/4TXnpeFFbT44+eNn3PSfmnf/Wx80n1+mrYv/+Yqb/pv3IPxrjYeyx+5MWuNR1bP+/NYJ/xM/V+PbBM0ufvgAwHHxNOkR/rXGw4PHO2n249F1/0173vsPr1lv35n9WvPBICRn3nHOTf+peA/824eThcF849P2+B44e9BN/817EP61xsODx+5MWuNRxbMejzrhP833E3+o+IUCZhef/r3n4mnKI/xrjYcnj3fSbMfDov/GPe/9h9esd+JHT+vdPxZCcvLHcn4TQKj/FLzT//qhZGGHVvhPj/t+4gEX/TfvQfjXGg9PHrszaY3HvJ7AeMzdxvN+3fAfjC/edfE04RH+tcbDo8c7aXbjYdV/Ew8AHPcfXrPe+rPXtoVHlflg+J0Az2v3n6n3P6pt59jF+C4sLiTrn7yu3X8VPMK/1nh49NidSWs85vEExmOuNp3364b/YHzxrounrkf41xoPzx7vpNmMh2X/DR8AiNQfno63/OJjsvePgxtLw4cUyv1n4aVb/S1dOyI1P497K9+xKt1/VTzCv9Z4ePbYnUlrPMoaAuNRumX9Y39oYB9B02L0XDx1PMK/1njE4PFOWvfjYd1/SvWHp+Fd/NCV4bv3aveP0ZFuV/jgz12Q7b+uvYfeeTHZdXS35Pw8/G+btfTIf7kq239VPMK/1njE4LE7k9Z4lDkExqNUm/Wb/qFm+A/GF++6eKp6hH+t8YjJ4520bsfDuv/U6g9Pwzvy1IrU/SPLO3xjJXn0o49L9l8X3qXfuJasvHRVZjxmeUf+4VHJ/iP8xzEeMXnszqQ1HkWHwHgUttzX/BvYR9C0GD0XTxWP8K81HjF6vJPW3XhY959i/eHZe+mrNSr3jzxvx77F5Pg/PZGsf/yaVP+16a1/7Fpy9/ffmwz27pAbj23eQkgufPCyVP8R/rXqGW+qxtidSWo88g6B8chthd/xV3cfQeti9Fw8hH/f4xGzxztp3YyHdf+p1h+evbd0bdn8/lHWG+weJMdetpac/0A8YXPae/iZ9WT1e44ng10D+fEYHUs3l2X6j/CvVc94ObXG7kxS4zHLExiPma3UF/zX3UfQuhg9Fw/h3+949MHjnbT2x8O6/5TrD8/We/jd68N/wbW6f1T19p7en9z7xvtvPwyY3jXA0Xhc/cKtYei/97Wnkr0n95vfz+f2BiE5//6S4VN8PAj/WuPRB4/dmbTGI8sTGI/M1sDufrPbOG5djJ6Lh/Dvczz65PFOWrvjYd1/6vWHZ+sd/c67Te4fTXmLBxeTw7dWkrXXnEzOvOPcMBCl3xuw8YnrydXP3TIfjzTkb3z6evLorz6ePPze9eT0T55N1l59cvj9Buli2rr/6nhHv/u4XD1X8Qj/WuPRJ4/dmbTGY9oTGI9trbPwP/4AwOjiXRcP4d/fePTR45209sZDtf/wfHht13MaTheX5nsVyFP/4bXjpQ9e0q0JPdzf8g7Cv9Z49NFjdyat8Rj3BMZjonUa/kcPAAwv3nXxEP59jUefPd5Ja2c8lPsPT9/rop5PveVBmevF8+Hd/9YHXd3fMu95hH+p8eizx+5MWuMx/gDAeDy2Wufhf7iPoHExei4ewr+f8cDjnbQ2xkO9//C0vU7q+fmnkgMXDkpcL56+t//cXbO/e0H4/jZxryP8S40HHrszqY1H+meB+WDYTML/Hdy0GD0XD+Hfx3jgba9NtfrL85TfSfPQf3i6Xlf1nAaihR2zr8Fr/+E166U1UrgTg/D9bVTrhH+d8cD7lsfuTFrjITAfmIb/YHzxrosn6/9ff/ba8P25rvqvCS89362bfmTjgbfdO/++zQXSIV9fUJXWaPrZUui/cc9L/+Fpel3W84mn7ze/XjxtL60Rz/e39Y9f23ZvUx+P9HzPv3+O7S8djQfedi9daxdlBJX5YHTMXH85Hw/r+cA6/AfLi08Pz8Uz6zjxptPSH+bxg3/576fn7Z20e157Sqr/xh8AeOg/PE2v03re/P8OP7kcVf/hNecdvLyU/6v/Tu5vJ54+7WY8+Jf/fnredmfKXH9FMB7W84F1+A+WF5/+vOfiyTuyHgKofJhHB+G/356Xd9JUw3/6Z8vPL55/r+t63vjMjWT33Xui6T+8ZrydR3bl/4aVs/vb6CGA8ngQ/vvtedmdKdbwnx7W84F1+A+WFz/xAMBh8RQd4w8BVD7Mo4Pwj5f+vfo7acrhP/17q88vXhyeRT0//J71ZLBzEEX/4TXgDUJy9hcekZhPm/TShwCq40H4x0sP9d2ZYg7/6WE9H1iH/2B58VsPAJwWT5lj+tfRFBYLhH+8cW/ehwCE/295Fp9fvHg8q3r29GvSeO16974+571/5/e3vNcxrcaD8I83fqjuzhR7+E8P6/nAOvwHy4sfPgBwXDxlPaXFFuEfL8tTeyfNQ/hPj64/v3hxeZb1fPfL73Hff3j1vJWXrs6up0jub/M8BCD841l4arsz9SH8p4f1fFAn/E/8XI1vEzS9OXkunnk8hXfSCP94eZ7KO2lewn96dPn5xYvPM63nLzyVHHnhUdf9h1fdW7qxnFz94i2p+bQtr8xDAMI/nqU3/sXMhP9uPOv5uU74T/P9xB8qfqGA6c3Jc/HM61m+k0b4xyvjWb+T5in8p0dXn1+8OD3rer76hVvJoccOu+0/vGregfMHkyufu2lef116lrszEf7xynjWuzP1Kfynh8D8PHcbz/t1w38wvnjXxVPFs3gnjfCPN49n9U6at/CfHl18fvHi9RTq+fJv30z2P3TAZf/hze/tvX/fcDcIxfm0bc9idybCP948ntXuTH0L/+khMD/P1abzft3wH4wv3nXxVPW6fCeN8I9Xxev6nTSP4T892v784sXtqdTz+ievJ/seLH4IoNZ/ePOH/0u/8YTsfNqF1+XuTIR/vCpe17sz9TH8p4fA/Fy6Zf1jf2hgH0HTm5Pn4qnjdfFOGuEfr47X1TtpXsN/erT5+cWL31Oq58ufu5n7OoBi/+GV99Jf+9/41HXp+bQrr4vdmQj/eHW8rnZn6mv4Tw+B+blUm/Wb/qFm+A/GF++6eOp6bb6TRvjHa8Jr+500z+E/Pdr6/OL1w1Or5/Q7AY68aPsXA6r2H145b+nmcnLl80/Kz6ddem3uzkT4x2vCa3t3pj6H//QQmJ8LW+5r/g3sI2h6c/JcPE14bbyTRvjHa9Jr65007+E/PRZ2bv9sWi/28fx4avWcHlefv5Uce9mai/7DK/ZW/tFqcvW/9+Pb/uf12tidifCP16TX1u5MfQ//6SEwP+e2wu/4q7uPoPXNyXPxNOU1+U4a4R+vDa/pd9JiCP/psfPwzlLX29V8iufLU6vn8SMNR4PFgXT/4c32FgYLyb2vPzV7/AXnUwuvyd2ZCP94bXhN785E+L/9cwLz/cxW6gv+6+4jaH2z81w8TS+2CP94yl5T76TFEv7TI32vts781/R8iufLU6vnae/8uzeSPWt7ZfsPL/v/TR9MPvTzj7ibT628JnZnIvzjtek1tTsT4f9bnsB8n9ka2N1vdhvHrW92nounaa/OO2mEf7wuvLrvpMUU/tPj2PceN1/s4/n11Oo5y9t49npy+NqyZP/hbT8OXl5K1p+95nI+tfTq7M5E+Mfrwqu7OxPhf9ITmO+3tc7C//gDAKOLd108bXhV3kkj/ON16VV9Jy228J8eD/ybh6MKD3jdemr1PNN7/qnk5E88kCwszn/tnsbDs7ewY2Fzjr1vOFbm9eLUq7I7E+Efr0uv6u5MhP/tnsB8P9E6Df+jBwCGF++6eNry5nknjfCPZ+HN+05ajOE//bnLn7mZLO5bdB8e8Gw8tXou8i588HJy4OJBmf7Du33sP3tXcQh1MJ8qePPszkT4x7Pw5t2difCf7QnM91ut8/A/3EfQ+GbnuXja9Mo8iSb841l6Zd9JizX8j7xj33XcdXjAs/MU67nQ2/y70287mywu5b8K5HE8vHmLdy0OfzMj3blBtl4cemV2ZyL841l6ZXdnIvzP9gTm+2EzCf93cNObnefiadvLewhA+MdT8IreSYs9/KfHox95PBns2qFwM8Fz5inWc1lv4zdvJKuvuCcJg3jGw423EJKVl64mG5+67qZevHl5uzMR/vEUvKLXMQn/+Z7AfG8a/oPxxbsuni68rIcAhH88JW/WO2l9CP8j7/gPnlC4meA581TreR4vDUJL15eHodT7eMh7m318+Mnl5Pz7S4ZPwXrx5GXtzkT4x1PyZj0EIPwXe9bzvXX4D5YXnx6ei6crb/whAOEfT9GbfietT+E//fsrzz2Z7DuzXzs84Ml5qvVcxbvwwSvJ0ZesJoMdA7fjIesNQrJ0Y47g76BevHjjDwEI/3iK3vRDAMJ/Oc96vrcO/8Hy4tOf91w8XXrpQwDCP56yN3onrW/hf/T/PPprjyc7j+zSCw94sp5yPVf1Ln7warLy4tVksDhwNx5qXrrrwsp3rCaPfPiqzPj20UsfAhD+8ZS90UMAwn95z3q+tw7/wfLiJx4AOCyerr2tvX1Fzw8PL3f/aYHza9u7+KErya6V4ocAHsMIXvOeej3X8TY+fSM59ZYHkwOPHHIzHirevvv3D0Pn+if6PZ8qeesfrzAWjq8Xz5+Xuf4SOj81z3q+tw7/wfLitx4AOC0ePDw8vOnjkY88lux7wYFowghee56Hem7CSx+MHX/ViWTnMg/HZnm7j+5O7n75PcmFX77sbnzx8PDwvHnW9w/r8B8sL374AMBx8eDh4eFlHVd+58nk+KtPJgs7FzqdT/F8eV7quSkv3a7u4WcuJfe+7lRycGNp8/MxkBqPLr3B7kGy9NiR5MQb70/Ov3sjeew5/+OLh4eH58Wzvn/UCf8TP1fj2wRNb56eiwcPDw8v73j0o48lx773eDLYM5AOI3g2nrd6btpLH5Sd/Y+PJGuvPpkcunx4+K/gMY3v+LFrdXdy8OrhZO1H7kvO/qdHk6uff1JuPPDw8PD64lnfP+qE/zTfT/yh4hcKmN48PRcPHh4eXhnvymdvJg/81MPJ6vetJQfOHUx2reze2jatyfkUz5fntZ7b9C5/5mZy/r0byZm3n0vWXnNfsvziY8mhx48Mv0tg3wMHkt1re5LFg4vbfrvGYnzTc0jPJT2n9LWfux49lBx64sjwnNNzP/NT54bf3H/5czfdjgceHh5ejJ71/SNUaON5v274D8YX77p48PDw8PDw8PDw8PDw8Px41vm3TvgfPQCou4+g6b+MeC4ePDw8PDw8PDw8PDw8PD+edf6tE/5HDwDq7iNoefGuiwcPDw8PDw8PDw8PDw/Pj2edf+uE/+F3ADSwj6DlxbsuHjw8PDw8PDw8PDw8PDw/nnX+rRP+h3m/gX0ETb8QyXPx4OHh4eHh4eHh4eHh4fnxrPNvUTgv/I6/k8wh8wAAIABJREFUuvsIGl+86+LBw8PDw8PDw8PDw8PD8+NZ599a4X/0P1VpI9z44l0XDx4eHh4eHh4eHh4eHp4fzzr/FuXzBr7jLx83vnjXxYOHh4eHh4eHh4eHh4fnx7POv0X5vNXwP/4AwOjiXRcPHh4eHh4eHh4eHh4enh/POv8W5fNWw//oAYDhxbsuHjw8PDw8PDw8PDw8PDw/nnX+NQ3/w30EbS/edfHg4eHh4eHh4eHh4eHh+fGs869p+L+DW1686+LBw8PDw8PDw8PDw8PD8+NZ51/r8F/pAUCTWyd4Lh48PDw8PDw8PDw8PDw8P551/rUO/8Hy4tPDc/Hg4eHh4eHh4eHh4eHh+fGs8691+A+WF5/+vOfiwcPDw8PDw8PDw8PDw/PjWedf6/AfLC9+4gGAw+LBw8PDw8PDw8PDw8PD8+NZ51/r8B8sL37rAYDT4sHDw8PDw8PDw8PDw8Pz41nnX+vwHywvfvgAwHHx4OHh4eHh4eHh4eHh4fnxrPNvnfA/8XM1vk3Q7OKHDwAcFw8eHh4eHh4eHh4eHh6eH886/9YJ/2m+n/hDxS8UMLv49O89Fw8eHh4eHh4eHh4eHh6eH886/86d/Kfyft3wH4wv3nXx4OHh4eHh4eHh4eHh4fnxrPNvnfA/egBQdx9By4t3XTx4eHh4eHh4eHh4eHh4fjzr/Fsn/I8eANTdR9Dy4l0XDx4eHh4eHh4eHh4eHp4fzzr/1gn/w+8AaGAfQcuLd108eHh4eHh4eHh4eHh4eH486/xbJ/wP834D+whaXrzr4sHDw8PDw8PDw8PDw8Pz41nn36JwXvgdf3X3ETS+eNfFg4eHh4eHh4eHh4eHh+fHs86/tcL/6H+q0ka48cW7Lh48PDw8PDw8PDw8PDw8P551/i3K5w18x18+bnzxrosHDw8PDw8PDw8PDw8Pz49nnX+L8nmr4X/8AYDRxbsuHjw8PDw8PDw8PDw8PDw/nnX+LcrnrYb/0QMAw4t3XTx4eHh4eHh4eHh4eHh4fjzr/Gsa/of7CNpevOviwcPDw8PDw8PDw8PDw/PjWedf0/B/B7e8eNfFg4eHh4eHh4eHh4eHh+fHs86/1uG/0gOAJrdO8Fw8eHh4eHh4eHh4eHh4eH486/xrHf6D5cWnh+fiwcPDw8PDw8PDw8PDw/PjWedf6/AfLC8+/XnPxYOHh4eHh4eHh4eHh4fnx7POv9bhP1he/MQDAIfFg4eHh4eHh4eHh4eHh+fHs86/1uE/WF781gMAp8WDh4eHh4eHh4eHh4eH58ezzr/W4T9YXvzwAYDj4sHDw8PDw8PDw8PDw8Pz41nn3zrhf+LnanyboNnFDx8AOC4ePDw8PDw8PDw8PDw8PD+edf6tE/7TfD/xh4pfKGB28enfey4ePDw8PDw8PDw8PDw8PD+edf6dO/lP5f264T8YX7zr4sHDw8PDw8PDw8PDw8Pz41nn3zrhf/QAoO4+gpYX77p48PDw8PDw8PDw8PDw8Px41vm3TvgfPQCou4+g5cW7Lh48PDw8PDw8PDw8PDw8P551/q0T/offAdDAPoKWF++6ePDw8PDw8PDw8PDw8PD8eNb5t074H+b9BvYRtLx418WDh4eHh4eHh4eHh4eH58ezzr9F4bzwO/7q7iNofPGuiwcPDw8PDw8PDw8PDw/Pj2edf2uF/9H/VKWNcOOLd108eHh4eHh4eHh4eHh4eH486/xblM8b+I6/fNz44l0XDx4eHh4eHh4eHh4eHp4fzzr/FuXzVsP/+AMAo4t3XTx4eHh4eHh4eHh4eHh4fjzr/FuUz1sN/6MHAIYX77p48PDw8PDw8PDw8PDw8Px41vnXNPwP9xG0vXjXxYOHh4eHh4eHh4eHh4fnx7POv6bh/w5uefGuiwcPDw8PDw8PDw8PDw/Pj2edf63Df6UHAE1uneC5ePDw8PDw8PDw8PDw8PD8eNb51zr8B8uLTw/PxYOHh4eHh4eHh4eHh4fnx7POv9bhP1hefPrznosHDw8PDw8PDw8PDw8Pz49nnX+tw3+wvPiJBwAOiwcPDw8PDw8PDw8PDw/Pj2edf63Df7C8+K0HAE6LBw8PDw8PDw8PDw8PD8+PZ51/rcN/sLz44QMAx8WDh4eHh4eHh4eHh4eH58ezzr91wv/Ez9X4NkGzix8+AHBcPHh4eHh4eHh4eHh4eHh+POv8Wyf8p/l+4g8Vv1DA7OLTv/dcPHh4eHh4eHh4eHh4eHh+POv8O3fyn8r7dcN/ML5418WDh4eHh4eHh4eHh4eH58ezzr91wv/oAUDdfQQtL9518eDh4eHh4eHh4eHh4eH58azzb53wP3oAUHcfQcuLd108eHh4eHh4eHh4eHh4eH486/xbJ/wPvwOggX0ELS/edfHg4eHh4eHh4eHh4eHh+fGs82+d8D/M+w3sI2h58Xh4eHh4eHh4eHh4eHh4ffFyW+F3/NXdRzCyzsTDw8PDw8PDw8PDw8PDU/VmtlJf8F93H8HIOhMPDw8PDw8PDw8PDw8PT9XLbA3s7je7jeORdSYeHh4eHh4eHh4eHh4enqq3rXUW/scfAETSmXh4eHh4eHh4eHh4eHh4qt5E6zT8jx4ARNSZeHh4eHh4eHh4eHh4eHiq3lbrPPwP9xGMqzPx8PDw8PDw8PDw8PDw8FS9YTMJ/3fwmDoTDw8PDw8PDw8PDw8PD0/VMw3/IbLOxMPDw8PDw8PDw8PDw8OT9KzDf4ipM/Hw8PDw8PDw8PDw8PDwVD3r8B9i6kw8PDw8PDw8PDw8PDw8PFXPOvyHmDoTDw8PDw8PDw8PDw8PD0/Vsw7/IabOxMPDw8PDw8PDw8PDw8NT9azDf7C8eDw8PDw8PDw8PDw8PDy8vnh1wv/Ez9X4NsFoOhMPDw8PDw8PDw8PDw8PT9WrE/7TfD/xh4pfKBBNZ+Lh4eHh4eHh4eHh4eHhCXtzt/G8Xzf8p+3rEXUmHh4eHh4eHh4eHh4eHp6i97UwZ5vO+3XDf9q+Gkln4uHh4eHh4eHh4eHh4eGpemn2Lt2y/rE/NLCP4O9G0pl4eHh4eHh4eHh4eHh4eKre/wwl26zf9A81w3/anomkM/Hw8PDw8PDw8PDw8PDwVL00exe23Nf8G9hH8BWRdCYeHh4eHh4eHh4eHh4enqr38lDQCr/jr+4+gsvLR5Y3T/CvI+hMPDw8PDw8PDw8PDw8PDxF7683j4Mhp5X6gv+6+wim6GAweJ/zzsTDw8PDw8PDw8PDw8PDU/XeE3JaA7v7lcf379/3gs2T/ZrjzsTDw8PDw8PDw8PDw8PDU/S+sXmcDjNap+F/69sEQ/gZp52Jh4eHh4eHh4eHh4eHh6fqpVk7s5mE/zv4ns3jDxx2Jh4eHh4eHh4eHh4eHh6eopdm7DRrb2uW4X/UTm0eX2nx4vHw8PDw8PDw8PDw8PDw+uD9xebxQMhoCuF/1M5vHn/ewsXj4eHh4eHh4eHh4eHh4fXB++rmcSlkNKXwP2rpU4ovNXjx6oODh4eHh4eHh4eHh4eHh9eEl2Zp+X/5n257N4+f3jy+HrQ6Ew8PDw8PDw8PDw8PDw9PzUuzc5qh0yy9rSmH//F2ZvN4ZvP428gGBw8PDw8PDw8PDw8PDw+vrve34XZmTrNzZvMS/re81dVjS4uLiz84GAye2Tx+f/Piv7z5n74Z/A0OHh4eHh4eHh4eHh4eHl4VL83AaRb+vc3jXZvHKzeP/SGnuQv/eK16psX9zW9+M/nGN76x7Uj/vkrr2rPuv//7F3+Z/J+vfDX531/+ytaR/jn9+y//5f+b+8DDw8PDw8PDU/faXl8Veerr06Jm3X+zk0t2iyBvReW5Olm8TM/0yZbSZFjFs+4/pZsxHh4eHh4eHl4XXtvrqyJPfX1a1Kz7Lzu5ZLdI8lZUnquTxcv0zMJr+vNKk2EVz7r/lG7GeHh4eHh4eHhdeG2vr4o89fVpUbPuv6zsktUiyltRea5OFi/TMwuv0w8ArCfDKp51/yndjPHw8PDw8PDwuvDaXl8Veerr06Jm3X9ZgWS6RZa3ovJcnSxeZjMLr+MPABQmwyqedf8p3Yzx8PDw8PDw8Lrw2l5fFXnq69OiZt1/s0LJqAnkI7wcz9XJ4mU2s/A6egCgMhlW8az7T+lmjIeHh4eHh4fXhWccXuXXp0Wedf/lBRORfISX4wVPJ4uX2czCa3ooTYZVPOv+U7oZ4+Hh4eHh4eF14RmHV/n1aZFn3X+zQolQPsLL8YKnk8XLbGbhNeRMoBaTYRXPuv+UbsZ4eHh4eHh4eF14xuFVfn1a5Fn3X1YgEctHeHmeq5PFy2pm4TVUeACgNrla95/SzRgPDw8PDw8PrwvPOLzKr0+LPOv+mw4jgvkIL89zdbJ4Wc0svIY5HwAoTq7W/ad0M8bDw8PDw8PD68IzDq/y69Miz7r/xoOIaD7Cy/NcnSxeVjMLr2GOBwCqk6t1/yndjPHw8PDw8PDwuvDaXl8VHerr0yLPuv9GIUQ4H+E14Lk62Z55ZuE1lHwAoDy5Wvef0s0YDw8PDw8PD68Lr+31VdGhvj4t8qz7Lw0g4vkIj/AfrxcMw2so8QBAfXK17j+lmzEeHh4eHh4eXhde2+urokN9fVrkWfefej7CI/xH7VmG11DwAMDD5Grdf0o3Yzw8PDw8PDy8Lry211dFh/r6tMiz7j/1fIRH+I/aswyvIecBgIfwP/oSFcv+U7oZ4+Hh4eHh4eF14bW9viry1NenRZ51/6nnI7xqnquT7bNnGV7DjAcAXsL/9AMAi/5Tuhnj4eHh4eHh4XXhtb2+KvLU16dFnnX/qecjvJpN/WT77lmG15DxAMBT+B9/AGDVf0o3Yzw8PDw8PDy8Lry211dFnvr6tMiz7j/1fIRXo6mfLN7tBwDBKLyGwD6qdftP6WaMh4eHh4eHh9eF1/b6qshTX58Wedb9p56P8Co29ZPFu+0Fw/AaAvuo1u0/pZsxHh4eHh4eHl4XXtvrqyJPfX1a5Fn3n3o+whPA8Vr1zMJrCOyjWrf/lG7GeHh4eHh4eHhdeG2vr4o89fVpUbPuv/zkkt2c563oPFcni7fNMwuv6aE0GVbxrPtP6WaMh4eHh4eHh9eF1/b6qshTX58WNev+m51cslsEeSsqz9XJ4mV6ZuE1PZQmwyqedf8p3Yzx8PDw8PDw8Lrw2l5fFXnq69OiZt1/2cklu0WSt6LyXJ0sXqZnFl7Tn1eaDKt41v2ndDPGw8PDw8PDw+vCa3t9VeSpr0+LmnX/ZWWXrBZR3orKc3WyeJmeWXidfgBgPRlW8az7T+lmjIeHh4eHh4fXhdf2+qrIU1+fFjXr/ssKJNMtsrwVlefqZPEym1l4HX8AoDAZVvGs+0/pZoyHh4eHh4eH14XX9vqqyFNfnxY16/6bFUpGTSAf4eV4rk4WL7OZhdfRAwCVydDjPqpKN2M8PDw8PDw8vC484/Aqvz4t8qz7Ly+YiOQjvBwveDpZvMxmFl7TQ2kyrOJZ95/SzRgPDw8PDw8PrwvPOLzKr0+LPOv+mxVKhPIRXo4XPJ0sXmYzC68hZwK1mAyreNb9p3QzxsPDw8PDw8PrwjMOr/Lr0yLPuv+yAolYPsLL81ydLF5WMwuvocIDALXJ1br/lG7GeHh4eHh4eHhdeMbhVX59WuRZ9990GBHMR3h5nquTxctqZuE1zPkAQHFyte4/pZsxHh4eHh4eHl4XnnF4lV+fFnnW/TceRETzEV6e5+pk8bKaWXgNczwAUJ1crftP6WaMh4eHh4eHh9eF1/b6quhQX58Wedb9NwohwvkIrwHP1cn2zDMLr6HkAwDlydW6/5Ruxnh4eHh4eHh4XXhtr6+KDvX1aZFn3X9pABHPR3iE/3i9YBheQ4kHAOqTq3X/Kd2M8fDw8PDw8PC68NpeXxUd6uvTIs+6/9TzER7hP2rPMryGggcAHiZX6/5Tuhnj4eHh4eHh4XXhtb2+KjrU16dFnnX/qecjPMJ/1J5leA05DwA8hP/Rl6hY9p/SzRgPDw8PDw8Prwuv7fVVkae+Pi3yrPtPPR/hVfNcnWyfPcvwGmY8APAS/qcfAFj0n9LNGA8PDw8PDw+vC6/t9VWRp74+LfKs+089H+HVbOon23fPMryGjAcAnsL/+AMAq/5Tuhnj4eHh4eHh4XXhtb2+KvLU16dFnnX/qecjvBpN/WTxbj8ACEbhNQT2Ua3bf0o3Yzw8PDw8PDy8Lry211dFnvr6tMiz7j/1fIRXsamfLN5tLxiG1xDYR7Vu/yndjPHw8PDw8PDwuvDaXl8Veerr0yLPuv/U8xGeAI7XqmcWXkNgH9W6/ad0M8bDw8PDw8PD68Jre31V5KmvT4uadf/lJ5fs5jxvRee5Olm8bZ5ZeE0Ppcmwimfdf0o3Yzw8PDw8PDy8Lry211dFnvr6tKhZ99/s5JLdIshbUXmuThYv0zMLr+mhNBlW8az7T+lmjIeHh4eHh4fXhdf2+qrIU1+fFjXr/stOLtktkrwVlefqZPEyPbPwmv680mRYxbPuP6WbMR4eHh4eHh5eF17b66siT319WtSs+y8ru2S1iPJWVJ6rk8XL9MzC6/QDAOvJsIpn3X9KN2M8PDw8PDw8vC68ttdXRZ76+rSoWfdfViCZbpHlrag8VyeLl9nMwuv4AwCFybCKZ91/SjdjPDw8PDw8PLwuvLbXV0We+vq0qFn336xQMmoC+Qgvx3N1sniZzSy8jh4AqEyGHvdRVboZ4+Hh4eHh4eF14RmHV/n1aZFn3X95wUQkH+HleMHTyeJlNrPwmh5Kk2EVz7r/lG7GeHh4eHh4eHhdeMbhVX59WuRZ99+sUCKUj/ByvODpZPEym1l4DTkTqMVkWMWz7j+lmzEeHh4eHh4eXheecXiVX58Wedb9lxVIxPIRXp7n6mTxsppZeA0VHgCoTa7W/ad0M8bDw8PDw8PD68IzDq/y69Miz7r/psOIYD7Cy/NcnSxeVjMLr2HOBwCKk6t1/yndjPHw8PDw8PDwuvCMw6v8+rTIs+6/8SAimo/w8jxXJ4uX1czCa5jjAYDq5Grdf0o3Yzw8PDw8PDy8Lry211dFh/r6tMiz7r9RCBHOR3gNeK5OtmeeWXgNJR8AKE+u1v2ndDPGw8PDw8PDw+vCa3t9VXSor0+LPOv+SwOIeD7CI/zH6wXD8BpKPABQn1yt+0/pZoyHh4eHh4eH14XX9vqq6FBfnxZ51v2nno/wCP9Re5bhNRQ8APAwuVr3n9LNGA8PDw8PDw+vC6/t9VXRob4+LfKs+089H+ER/qP2LMNryHkA4CH8j75ExbL/lG7GeHh4eHh4eHhdeG2vr4o89fVpkWfdf+r5CK+a5+pk++xZhtcw4wGAl/A//QDAov+UbsZ4eHh4eHh4eF14ba+vijz19WmRZ91/6vkIr2ZTP9m+e5bhNWQ8APAU/scfAFj1n9LNGA8PDw8PDw+vC6/t9VWRp74+LfKs+089H+HVaOoni3f7AUAwCq8hsI9q3f5Tuhnj4eHh4eHh4XXhtb2+KvLU16dFnnX/qecjvIpN/WTxbnvBMLyGwD6qdftP6WaMh4eHh4eHh9eF1/b6qshTX58Wedb9p56P8ARwvFY9s/AaAvuo1u0/pZsxHh4eHh4eHl4XXtvrqyJPfX1a1Kz7Lz+5ZDfneSs6z9XJ4m3zzMJreihNhlU86/5Tuhnj4eHh4eHh4XXhtb2+KvLU16dFzbr/ZieX7BZB3orKc3WyeJmeWXhND6XJsIpn3X9KN2M8PDw8PDw8vC68ttdXRZ76+rSoWfdfdnLJbpHkrag8VyeLl+mZhdf055Umwyqedf8p3Yzx8PDw8PDw8Lrw2l5fFXnq69OiZt1/Wdklq0WUt6LyXJ0sXqZnFl6nHwBYT4ZVPOv+U7oZ4+Hh4eHh4eF14bW9viry1NenRc26/7ICyXSLLG9F5bk6WbzMZhZexx8AKEyGVTzr/lO6GePh4eHh4eHhdeG1vb4q8tTXp0XNuv9mhZJRE8hHeDmeq5PFy2xm4XX0AEBlMvS4j6rSzRgPDw8PDw8PrwvPOLzKr0+LPOv+ywsmIvkIL8cLnk4WL7OZhdf0UJoMq3jW/ad0M8bDw8PDw8PD68IzDq/y69Miz7r/ZoUSoXyEl+MFTyeLl9nMwmvImUAtJsMqnnX/Kd2M8fDw8PDw8PC68IzDq/z6tMiz7r+sQCKWj/DyPFcni5fVzMJrqPAAQG1yte4/pZsxHh4eHh4eHl4XnnF4lV+fFnnW/TcdRgTzEV6e5+pk8bKaWXgNcz4AUJxcrftP6WaMh4eHh4eHh9eFZxxe5denRZ51/40HEdF8hJfnuTpZvKxmFl7DHA8AVCdX6/5Tuhnj4eHh4eHh4XXhtb2+KjrU16dFnnX/jUKIcD7Ca8BzdbI988zCayj5AEB5crXuP6WbMR4eHh4eHh5eF17b66uiQ319WuRZ918aQMTzER7hP14vGIbXUOIBgPrkat1/SjdjPDw8PDw8PLwuvLbXV0WH+vq0yLPuP/V8hEf4j9qzDK+h4AGAh8nVuv+UbsZ4eHh4eHh4eF14ba+vig719WmRZ91/6vkIj/AftWcZXkPOAwAP4X/0JSqW/ad0M8bDw8PDw8PD68Jre31V5KmvT4s86/5Tz0d41TxXJ9tnzzK8hhkPALyE/+kHABb9p3QzxsPDw8PDw8Prwmt7fVXkqa9Pizzr/lPPR3g1m/rJ9t2zDK8h4wGAp/A//gDAqv+UbsZ4eHh4eHh4eF14ba+vijz19WmRZ91/6vkIr0ZTP1m82w8AglF4DYF9VOv2n9LNGA8PDw8PDw+vC6/t9VWRp74+LfKs+089H+FVbOoni3fbC4bhNQT2Ua3bf0o3Yzw8PDw8PDy8Lry211dFnvr6tMiz7j/1fIQngOO16pmF1xDYR7Vu/yndjPHw8PDw8PDwuvDaXl8Veerr06Jm3X/5ySW7Oc9b0XmuThZvm2cWXtNDaTKs4ln3Hx4eHh4eHh4eXree+vq0qFn3X5izRZC3ovJcnSxepmc6uSpNhlU86/7Dw8PDw8PDw8Pr1lNfnxY16/4Lc7RI8lZUnquTxcv0TCdXpcmwimfdf3h4eHh4eHh4eN166uvTombdf6FkiyhvReW5Olm8TM90clWaDKt41v2Hh4eHh4eHh4fXrae+Pi1q1v0XSrTI8lZUnquTxctsppOr0mRYxbPuPzw8PDw8PDw8vG499fVpUbPuv1DQBPIRXo7n6mTxMpvp5Ko0GXrcRxUPDw8PDw8PD69bT319WuRZ91/IaSL5CC/HC55OFi+zmU6uSpNhFc+6//Dw8PDw8PDw8Lr11NenRZ51/4UZTSgf4eV4wdPJ4mU208lVaTKs4ln3Hx4eHh4eHh4eXree+vq0yLPuv5DRxPIRXp7n6mTxsprp5Ko0GVbxrPsPDw8PDw8PDw+vW099fVrkWfdfmGqC+Qgvz3N1snhZzXRyVZoMq3jW/YeHh4eHh4eHh9etp74+LfKs+y+MNdF8hJfnuTpZvKxmOrkqTYZVPOv+w8PDw8PDw8PD69ZTX58Wedb9F+404XyE14Dn6mR75plOrkqTodN9VPHw8PDw8PDw8Dr01NenRZ51/20e6vkIj/AfrxeMJ1elybBKs+4/PDw8PDw8PDy8bj319WmRZ91/6vkIj/AftWc9uSpNhlU86/7Dw8PDw8PDw8Pr1lNfnxZ51v2nno/wCP9Re9aTq9JkWMWz7j88PDw8PDw8PLxuPfX1aZFn3X/q+QivmufqZPvsWU+uSpNhFc+6//Dw8PDw8PDw8Lr11NenRZ51/6nnI7yaTf1k++5ZT65Kk2EVb/fu3bI3Jzw8PDw8PDw8vGa9PXv2yK9Pizzr8VDPR3g1mvrJ4t1+ABAMJ1elybCKt7p6TPLmhIeHh4eHh4eH17y3uroqvz4t8qzHQz0f4VVs6ieLd9sLxpOr0mRYxXviiSckb054eHh4eHh4eHjNe9euXZNfnxZ51uOhno/wBHC8Vj3TyVVpMqziveENb5C8OeHh4eHh4eHh4TXvvf71r5dfnxY1gfGYuznPW9F5rk4Wb5tnOrkqTYZVvI985COSNyc8PDw8PDw8PLzmvY9+9KPy69OiJjAec7UI8lZUnquTxcv0TCdXpcmwivdXf/VXyYEDB+RuTnh4eHh4eHh4eM166ZovXfupr0+LmsB4lG6R5K2oPFcni5fpmU6uSpNhVe91r3ud1M0JDw8PDw8PDw+veS9d83lZn+Y1gfEo1SLKW1F5rk4WL9MznVyVJsOq3p/92Z8NtwO06D88PDw8PDw8PLz2vZ07dyZ/+qd/6mZ9mtcExqOwRZa3ovJcnSxeZjOdXJUmwzrem9/8ZombEx4eHh4eHh4eXvNeutbztj6d1QTGI7cJ5CO8HM/VyeJlNtPJVWkyrOP9/d//fXLx4kXzmxMeHh4eHh4eHl6zXrrGS9d63tanszyB8ZjZRPIRXo4XPJ0sXmYznVyVJsO6XvoqwOrqajQ3Ozw8PDw8PDy8vnsrKyvJH//xH7tdn2Z5AuOR2YTyEV6OFzydLF5mM51clSbDJrw//MM/TNbW1tzf7PDw8PDw8PDw+u4dO3Ys+dKXvtT5erJtT2A8tjWxfISX57k6WbysZjq5Kk2GTXl/9Ed/lFy6dElhcsXDw8PDw8PDw6vgpWu52P7lf/oBgOF4TDTBfISX57k6WbysZjq5Kk2GTXrpHrHpl8UU7Q5Qt//w8PDw8PDw8PCa83bt2pW89a1vTf7u7/7OfD3ZlicwHltNNB/h5XmuThYvq5lO1kqTYRte+uT4DW94Q7Jv3z7pmx0eHh4eHh4eXp+9dK2Wrtn+5E/+RG492bQnMB7DJpyP8BrwXJ1szzzTyVppMmzT+5u/+Zvkwx/+cPL0008nV69eTe6+++7cPvZ688TDw8PDw8PDU/cGg0Fy/Pjx4ZrsjW9843CNlq7V1NeTTXmQN8DlAAAKs0lEQVQC46Gej/AI//F6wXiyVpoM8fDw8PDw8PDw8GL32l7fFx3q+QiP8B+1Z/2kVmkyxMPDw8PDw8PDw4vda3t9X3So5yM8wn/UnvWvaSlNhnh4eHh4eHh4eHixe22v74s89XyEV81zdbJ99qzf0VKaDPHw8PDw8PDw8PBi99pe3xd56vkIr2ZTP9m+e9Zf0KI0GeLh4eHh4eHh4eHF7rW9vi/y1PMRXo2mfrJ4tx8ABKPwH6YeAFhPhnh4eHh4eHh4eHixe22v74s89XyEV7GpnyzebS8Yhv8w9gBAYTLEw8PDw8PDw8PDi91re31f5KnnIzwBHK9Vzyz8hzsPAFQmQzw8PDw8PDw8PLzYvbbX9yW8pvMMXseeq5PF2+aZhf/0UJoM8fDw8PDw8PDw8GL32l7fl/CazjN4HXquThYv0zML/+mhNBni4eHh4eHh4eHhxe61vb4v4TWdZ/A69FydLF6mZxb+059Xmgzx8PDw8PDw8PDwYvfaXt+X8JrOM3gdeq5OFi/TMwv/0w8ArCdDPDw8PDw8PDw8vNi9ttf3Jbym8wxeh56rk8XLbGbhf/wBgMJkiIeHh4eHh4eHhxe71/b6voTXdJ7B69BzdbJ4mc0s/I8eAKhMhnh4eHh4eHh4eHixe8bhP/cBgEg+wsvxgqeTxctsZuE/PZQmQzw8PDw8PDw8PLzYPePwP/MBgFA+wsvxgqeTxctsZuE//XulyRAPDw8PDw8PDw8vds84/Gc+ABDLR3h5nquTxctqZuE/VHgA4GlyxcPDw8PDw8PDw1PzjMP/tgcAgvkIL89zdbJ4Wc0s/Ic5HwB4m1zx8PDw8PDw8PDw1Dzj8D/xAEA0H+Hlea5OFi+rmYX/MMcDAI+TKx4eHh4eHh4eHp6a1/b6vsTRdJ7BE/RcnWzPPLPwH0o+APA6ueLh4eHh4eHh4eGpeW2v70sc6vkIj/AfrxcMw38o8QDA8+SKh4eHh4eHh4eHp+a1vb4vOtTzER7hP2rPeh9QpckQDw8PDw8PDw8PL3av7fV90aGej/AI/1F71vuAKk2GeHh4eHh4eHh4eLF7ba/vizz1fIRXzXN1sn32rPcBVZoM8fDw8PDw8PDw8GL32l7fF3nq+QivZlM/2b571vuAKk2GeHh4eHh4eHh4eLF7ba/vizz1fIRXo6mfLN7tBwDBKPyHqQcA1pMhHh4eHh4eHh4eXuxe2+v7Ik89H+FVbOoni3fbC4bhP4w9AFCYDPHw8PDw8PDw8PBi99pe3xd56vkITwDHa9UzC//hzgMAlckQDw8PDw8PDw8PL3av7fV9Ca/pPIPXsefqZPG2eWbhPz2UJkM8PDw8PDw8PDy82L221/clvKbzDF6HnquTxcv0zMJ/eihNhnh4eHh4eHh4eHixe22v70t4TecZvA49VyeLl+mZhf/055UmQzw8PDw8PDw8PLzYvbbX9yW8pvMMXoeeq5PFy/TMwv/0AwDryRAPDw8PDw8PDw8vdq/t9X0Jr+k8g9eh5+pk8TKbWfgffwCgMBni4eHh4eHh4eHhxe61vb4v4TWdZ/A69FydLF5mMwv/owcAKpMhHh4eHh4eHh4eXuyecfjPfQAgko/wcrzg6WTxMptZ+E8PpckQDw8PDw8PDw8PL3bPOPzPfAAglI/wcrzg6WTxMptZ+E//XmkyxMPDw8PDw8PDw4vdMw7/mQ8AxPIRXp7n6mTxsppZ+A8VHgB4mlzx8PDw8PDw8PDw1Dzj8L/tAYBgPsLL81ydLF5WMwv/Yc4HAN4mVzw8PDw8PDw8PDw1zzj8TzwAEM1HeHmeq5PFy2pm4T/M8QDA4+SKh4eHh4eHh4eHp+a1vb4vcTSdZ/AEPVcn2zPPLPyHkg8AvE6ueHh4eHh4eHh4eGpe2+v7Eod6PsIj/MfrBcPwH0o8APA8ueLh4eHh4eHh4eGpeW2v74sO9XyER/iP2rPeB1RpMsTDw8PDw8PDw8OL3Wt7fV90qOcjPMJ/1J71PqBKkyEeHh4eHh4eHh5e7F7b6/siTz0f4VXzXJ1snz3rfUCVJkM8PDw8PDw8PDy82L221/dFnno+wqvZ1E+27571PqBKkyEeHh4eHh4eHh5e7F7b6/siTz0f4dVo6ieLd/sBQDAK/2HqAYD1ZIiHh4eHh4eHh4cXu9f2+r7IU89HeBWb+sni3faCYfgPYw8AFCZDPDw8PDw8PDw8vNi9ttf3RZ56PsITwPFa9czCf7jzAEBlMsTDw8PDw8PDw8OL3Wt7fV/CazrP4HXsuTpZvG2eWfjHw8PDw8PDw8PDw+udN1eLIG9F5bk6WbxMT3lywMPDw8PDw8PDw8OLyyvdIslbUXmuThYv01OeHPDw8PDw8PDw8PDw4vJKtYjyVlSeq5PFy/SUJwc8PDw8PDw8PDw8vLi8whZZ3orKc3WyeJlNeXLAw8PDw8PDw8PDw4vLy20C+Qgvx3N1sniZTXlywMPDw8PDw8PDw8OLy5vZRPIRXo4XPJ0sXmZTnhzw8PDw8PDw8PDw8OLyMptQPsLL8YKnk8XLbMqTAx4eHh4eHh4eHh5eXN62JpaP8PI8VyeLl9WUJwc8PDw8PDw8PDw8vLi8iSaYj/DyPFcni5fVlCcHPDw8PDw8PDw8PLy4vK0mmo/w8jxXJ4uX1ZQnBzw8PDw8PDw8PDy8uLxhE85HeA14rk62Z57y5ICHh4eHh4eHh4eHF5enno/wCP/xekF7csDDw8PDw8PDw8PDi8hTz0d4hP+oPeXJAQ8PDw8PDw8PDw8vLk89H+ER/qP2lCcHPDw8PDw8PDw8PLy4PPV8hFfNc3WyffaUJwc8PDw8PDw8PDw8vLg89XyEV7Opn2zfvc0P4ddVJwc8PDw8PDw8PDw8vKi8r6nnI7waTf1k8YYPAL4aNCcHPDw8PDw8PDw8PLy4vK+q5yO8ik39ZPFue5v/6XeD5uSAh4eHh4eHh4eHhxeX97vq+QhPAMdr1XsmaE4OeHh4eHh4eHh4eHhxeWn2mLs5z1vRea5OFm+b94qgOTng4eHh4eHh4eHh4cXlvTzM2SLIW1F5rk4WL9M7uHn8ddCbHPDw8PDw8PDw8PDw4vHSzJFmj9ItkrwVlefqZPFmeu8JWpMDHh4eHh4eHh4eHl5cXpo5SrfI8lY0nquTxZvpndo8vhZ0Jgc8PDw8PDw8PDw8vHi8b2wep0PJJpCP8GZ4rk4WL7f9TNCYHPDw8PDw8PDw8PDw4vLSrFGqCeUjvAzP1cni5bY9m8cfBPvJAQ8PDw8PDw8PDw8vHi/NGGnWKGxi+QgvwwueThavsJ3aPL4S4pls8PDw8PDw8PDw8PDsvL/YPB4IJZpoPsKb8oKnk8Ur1c5vHn8ewWSDh4eHh4eHh4eHh2fnfXXzuBRKNPF8hDfuuTpZvFLe3r17zg4GC//L8WSDh4eHh4eHh4eHh2fnfSnwL/9xeq5OFq+0d++9a4d27Bj87OaH+evB12SDh4eHh4eHh4eHh2fjpdnhpzePvaFE85SP8Mb+Jzcnize3t/mBPrP5n5/ZPP42aE82eHh4eHh4eHh4eHg2XpoV0syQZodSzWs+whPA8Trx9m8er9w83rV5/N7m8eXN45vBfrLBw8PDw8PDw8PDw+vO++bm8eXN4/fD7WyQZoQ0K5RukeSjXnr/H6+sgdBrT0gtAAAAAElFTkSuQmCC;fontColor=default;imageBorder=default;" parent="119" vertex="1">
                    <mxGeometry x="44" y="28" width="40" height="40" as="geometry"/>
                </mxCell>
                <mxCell id="121" value="" style="shape=image;verticalLabelPosition=bottom;labelBackgroundColor=default;verticalAlign=top;aspect=fixed;imageAspect=0;image=data:image/png,iVBORw0KGgoAAAANSUhEUgAAAgAAAAIACAYAAAD0eNT6AAAABHNCSVQICAgIfAhkiAAAAAlwSFlzAAAOxAAADsQBlSsOGwAAABl0RVh0U29mdHdhcmUAd3d3Lmlua3NjYXBlLm9yZ5vuPBoAACAASURBVHic7d1nfFVVvsbx56T3QkjoHRJ6BxELSFewI2LDrled0RlnHEevjjN31KvjjGMfx4ING47YkQ5Kkd6kJaEEkBASCJLez30RnMsgJdnl7HPO/n0/H14oWWv/CeTsZ6+19loeAVInSedJGiQp/eh/x0lKkuRxsC4Axh2WVCbpiKTso7+2SloiKcvBuuAn+HB3rzaSrpd0nepv+gDcI1fSPEkfSpojqcbZcuAEAoD7pEt6QNI1ksIdrgWA8/IlvSPpGUk/OFwLfIgA4B4xkh6WdK+kCIdrAeB/qlQfBB6TtMvhWuADoU4XAJ/oLmmupEvF3zmAEwuV1F/SbaofHVwupgaCGiMAwe9aSa9KinK6EAABZbvqpwpXOl0I7MHTYHD7taSXxVw/gMZrIukG1b9JsNzZUmAHRgCC1y8lPed0EQCCwnRJUyRVOl0IrEMACE5XSPpAUojThQAIGvMlXSapyOlCYA0CQPBJl7RaUrzThQAIOqsljVH9JkMIcDwhBpcwSe+Lmz8AewxU/RtFyU4XAvMIAMHll6p/jQcA7DJA0gJJKU4XAnOYAggeKZJ2SkpwuhAArrBG0mgxHRCwGAEIHneLmz8A32EkIMAxAhAcoiTtU/17uwDgS4wEBKgwpwuAJS6WBTf/kJAQjRk9RuePO199+vRRatNURUSc/NiAsLAwxSew3hDwN9XV1SosLNSibxbprl/cZfflBqh+YSAhIMAQAILDNWY76Nq1q5564il17drVinoAOCg8PFzNmjVT2zZtfXVJQkAAYg1A4AuXNNxMB2cNPUvT35/OzR+AGT+FAF4RDBAEgMA3QCbe++/QoYOef/Z5RUdHW1gSAJciBAQQAkDg62um8R8e+oPi45nHB2AZ3g4IEASAwJdhtGG3bt109llnW1kLAEj1DyazxUiAXyMABL42RhuOHjnayjoA4FhMB/g5AkDgMzx+n56ebmUdAHA8pgP8GAEg8MUabZjShJ9JALZjOsBPEQACn+HdHENC+esH4BOMBPgh7gAAgJ9JTEhUaGiolV0yEuBnCAAAgJ9Jz0jX03992uoQwEiAHyEAAABO6ILzL7AjBPSVNE+EAMcRAAAAJ0UICF4EAADAKRECghMBAABwWoSA4EMAAAA0CCEguBAAAAANRggIHgQAAECjEAKCAwEAANBohIDARwAAABhCCAhsBAAAgGGEgMBFAAAAmEIICEwEAACAaYSAwEMAAABYghAQWAgAAADLEAICBwEAAGApQkBgIAAAACxHCPB/BAAAgC0IAf6NAAAAsA0hwH8RAAAAtiIE+CcCAADAdoQA/0MAAAD4BCHAvxAAAAA+QwjwHwQAAIBPEQL8AwEAAOBzhADnEQAAAI4gBDiLAAAAcAwhwDkEAACAowgBziAAAAAcRwjwPQIAAMAv2BgC5ooQ8DMEAACA37ApBPQTIeBnCAAAAL9CCPANAgAAwO8QAuxHAAAA+CVCgL0IAAAAv0UIsA8BAADg1wgB9iAAAAD8HiHAegQAAEBAIARYiwAAAAgYhADrEAAAAAHlgvMv0N+e+hshwCQCAAAg4Iy/YDwhwCQCAAAgIBECzCEAAAACFiHAOAIAACCgEQKMIQAAAAIeIaDxCAAAgKBACGgcAgAAIGgQAhqOAAAACCqEgIYhAAAAgg4h4PQIAACAoEQIODUCAAAgaBECTo4AAAAIaoSAEyMAAACCHiHg5wgAAABXIAT8JwIAAMA1CAH/jwAAAHAVQkA9AgAAwHUIAQQAAIBLuT0EEAAAAK7l5hBAAAAAuJpbQwABAADgem4MAQQAAADkvhBAAAAA4Cg3hQACAAAAx3BLCCAAAABwHDeEAAIAAAAnEOwhgAAAAMBJBHMIIAAAAHAKwRoCCAAAAJxGMIYAAgAABCmPx2O4rbfOa2ElwWH8BeP15P8+aUcImC0p2cpOG4IAAABBKioqynDbwz8etrCS4HHxRRfbMRIwQNJ8+XgkgAAAAEEqLi7OcNvc3FxVV1dbWE3wCJaRAAIAAASptLQ0w23Ly8u1YuUKC6sJLhdfdLEdIWCA6tcE+CQEEAAAIEglJCSYCgFvv/O2hdUEHxtDwGxJ8VZ2eiIEAAAIYt26djPcduGihVr0zSLriglCNoWAQZJmSIqwstPjEQAAIIgNHTrUVPvf3PcbZW/Ptqia4GRTCBgl6S1Jxl/lOA0CAAAEsXPOOcdU+6KiIk2+erIWLFxgUUXByaYQMFnSPVZ2eCwCAAAEsYEDBqptm7am+igqKtLtd9yum265SQsWLlBFRYVF1QUXm0LAk5IGWtnhT8Ls6BQA4B9CQkJ0xRVX6G9P/810X4uXLNbiJYsVERGh1NRUJSf5fO+agBAVFaXS0lKruouQNE1SH0mVVnUq2Ti3AJ9ZKsnQJN+H73+o/v36G75wWFiY4hNsX6gKwKT8/Hz1H9ifJ/fA9t+SHreyQ6YAACDIpaWl6eqrrna6DJjz35LMzeUchwAAAC5w32/vU1JSktNlwLgYSQ9Y2SEBAABcIDU1VQ8+8KDTZcCcGyS1sKozAgAAuMSNN9yoUaNGOV0GjIuSdLdVnREAAMAlPB6PXnzhRbVp3cbpUmDcFEmWvGdIAAAAF0lpkqIZH89Q06ZNnS4FxrSUNNyKjggAAOAyHTp00AfvfaCUJj49fh7WmWxFJwQAAHChvn376ssvvjS9SyAcMdKKTggAAOBSXbp00aKFi3ThhAudLgWN00FSO7OdEAAAwMUSEhI09fWpevqvTys5ma19A8hZZjsgAACAy3k8Hk2ZMkXLly3X7bfdrujoaKdLwul1M9sBAQAAIElKSUnRY48+pnVr1un39/9eHTt2dLoknFwXsx1wGFDg4zAgALbZuHGjFi9ZrCVLlyhzW6Z+2PeD6urqnC4L0mpJg8x0wHHAAICT6t27t3r37q277rxLklRZWan8gnyVlJSoqrLK4eoCW1Z2lu648w6jzU0f7EAAAAA0WGRkJDsJWiS5ialFl6aHX1kDAACAA5okNzHTPM7s9QkAAAA4IDw83Exz0+cBEAAAAHAhAgAAAC5EAAAAwIUIAAAAuBABAAAAFyIAAADgQgQAAABciAAAAIALEQAAAHAhAgAAAC5EAAAAwIUIAAAAuBABAAAAFyIAAADgQgQAAABciAAAAIALEQAAAHAhAgAAAC5EAAAAwIUIAAAAuBABAAAAFwpzugDAFw4VHtK6teuUlZ2l3bt368cjP6qstExlZWVOlwa4VmRUpGKiY5SUlKTWrVurc+fO6tOnj9q0buN0aa5AAEDQ2r59uz6c/qHmzJmjLVu3yOv1Ol0SgAZo166dRo4YqUmTJmnggIFOlxO0CAAIOvMXzNezzz2rZcuWOV0KAAN2796tqW9M1dQ3piojI0P33H2PLrv0MoWFccuyEmsAEDQ2bd6k8RPG68rJV3LzB4JEZmam7rzrTg09e6gWLFzgdDlBhQCAgFdTU6NHH3tUo0aP0oqVK5wuB4ANdu7cqUlXTtJt/3WbiouLnS4nKBAAENAOHDigiy+5WM88+4xqamqcLgeAzWbMmKERo0Zo0+ZNTpcS8AgACFi79+zWhIsm8NQPuMyuXbs0fsJ4LVy00OlSAhoBAAFp165dOv+C87Vr1y6nSwHggNLSUl1z7TX6dvG3TpcSsAgACDj5+fmaOGmi8vPznS4FgIOqqqo05fop2rBhg9OlBCQCAAJKXV2dbr/jdu3evdvpUgD4gZKSEk25YYoKDxc6XUrAIQAgoPzlqb9o8eLFTpcBwI/s27dPd99zt9NlBBwCAALGtsxteva5Z50uA4AfmjVrlj7/4nOnywgoBAAEjPt/f7+qq6udLgOAn3ro4YdUXl7udBkBgwCAgLBkyRItXbrU6TIA+LHc3Fy9/c7bTpcRMAgACAgM/QNoiBdefIGRwgbiZAX4vT1792jRN4ss6SsqNkI9hnVWpwFtlNwsXlHxkZb065TvPt6glZ8b2xHtzMv6aPDFPS2uCI2RsyFXnz1tbDOb9r1b6uLfnGdxRb5VXV6tH/OLtWdznjYuyFZRQYnpPvfv36/58+dr3LhxFlQY3AgA8HsfffSR6aN8Q8NCNPqWMzX2tqGKDvCb/rGyVxh/HTK1XbK6De1gYTVorNqqWsNt45rEBNXfX21NnRa/v0afP/ONyooqTPU1/aPpBIAGIADA782dO9dU+5iEKN3+wkRlnNnemoIAWC40LETDrxukbmd30gu3fqCC3cbf61+4aKFqamo4Pvg0WAMAv1ZSUqING43v8hUS6tFNT1/CzR8IEM06NNGv3rpa8U1iDPdRXFys9RvWW1hVcCIAwK9t3LjR1IKekTecoZ7DOltYEQC7pbRK0sQHRpvqY82aNRZVE7wIAPBr2dnZhtuGR4Vp3B1nWVgNAF8ZfFFPNe+YYrj99u3bLawmOBEA4NdyducYbtttaAfFJkZbVwwAn/GEeDTg/O6G2+fk5FhXTJAiAMCvFRUXGW7bsV9rCysB4Gsd+xv/GT5SdMTCSoITAQB+rbS01HDbxLR4CysB4GtJJn6GS0rM7ykQ7AgA8Gu1Ncbfkw6P5BUgIJCFRxn/Ga6pqbGwkuBEAAAAwIUIAAAAuBABAAAAFyIAAADgQgQAAABciAAAAIALEQAAAHAhAgAAAC5EAAAAwIUIAAAAuBABAAAAFyIAAADgQgQAAABciAAAAIALEQAAAHAhAgAAAC5EAAAAwIUIAAAAuBABAAAAFyIAAADgQgQAAABciAAAAIALEQAAAHChMKcLAOyyZPo6ZS7PcboMW+VszDXcduP8LB3eX2RhNWisw/uPGG67LzNf7z4808Jq/E95cYXTJQQ1AgCC1rZlu7Rt2S6ny/BbORtzTQUIOOvw/iIt/mCt02UggDEFAACACxEAAABwIQIAAAAuRAAAAMCFCAAAALgQAQAAABciAAAA4EIEAAAAXIgAAACACxEAAABwIQIAAAAuRAAAAMCFCAAAALgQpwEiaPW5tL+ad2vhdBm22v5NpnYs3W6obZ9R6eo5rLPFFaExcrMLtPDtVYbatkxP1XnXDbK4Iv9SXFimz/++yOkyghYBAEGr3aD26jamh9Nl2Kr4QJHhANCuV0udM7m/xRWhMTYt2m44ADRpmRj0f3/5OYUEABsxBQAAgAsRAAAAcCECAAAALkQAAADAhQgAAAC4EAEAAAAXIgAAAOBCBAAAAFyIAAAAgAsRAAAAcCECAAAALkQAAADAhQgAAAC4EAEAAAAXIgAAAOBCBAAAAFyIAAAAgAsRAAAAcCECAAAALkQAAADAhQgAAAC4EAEAAAAXIgAAAOBCBAAAAFyIAAAAgAsRAAAAcCECAAAALkQAAADAhQgAAAC4EAEAAAAXIgAAAOBCYU4XANhl6+zNys/Mc7oMW+1dt8dw2y2Ld6qytMrCatBYB/ceNtw2b8chffLUAgur8T9lRRVOlxDUCAAIWtnfZCr7G6er8F/bV+/R9tXGAwScdXDvYc1+ZZnTZSCAMQUAAIALEQAAAHAhAgAAAC5EAAAAwIUIAAAAuBABAAAAFyIAAADgQgQAAABciAAAAIALEQAAAHAhAgAAAC5EAAAAwIUIAAAAuBCnASJodR/XU6ldmjldhq1ylu/Q7lU5htp2GNJRbQd1sLYgNErh7kP6/vP1hto265CioRP7WFyRfyk5XKa5ry13uoygRQBA0Op8brq6jenhdBm2qi6rMhwAWvdrqyHXD7W2IDTKjqXbDQeA1HbJGntbcP/95ecUEgBsxBQAAAAuRAAAAMCFCAAAALgQAQAAABciAAAA4EIEAAAAXIgAAACACxEAAl+J0YZxcXFW1mGL2NhYw20j4yItrMQ/hcdEGG4bGRv83x8AJ0cACHy7jTQKCQlRi+YtrK7Fcq1btzbcNrFFkoWV+KfEFonG27YM/u8PgJMjAAS+WUYa9e/XX/Hx8VbXYrmRI0YaapfQIlEpHZpaXI3/aT+4g0JCG/9jHBoRqrYD21tfEICAQQAIfF9Iym5soxtvuNGGUqzXr18/nXXWWY1uN/iaITZU43+ik2LUY3zvRrfrc0l/RZiYPgAQ+AgAga9a0h2SahraYNTIURo9arR9FVns8cceV0xMTIO/vmWvVup7+QAbK/Ivw+46T/FpDR/NSWyZpLNvH2ZjRQACAQEgOMyXdJOkqtN94dChQ/XXv/xVHo/H/qos0qN7D735xpsNmrJo1rWFLvvrJIWGh/qgMv8QmxKnic9c1aAQkNAiUROfmazoxGgfVAbAnxEAgsc7koZK+uZEv5mUlKT7f3e/pr461dTKeqeMOG+E5s2Zp7Fjx54wvETEROjMm87WNa9dr9gU/3+7wWpp6c10/Tu3qPdFfU+4JiAkLER9L+uvG965RU07pjpQIQB/w3HAwWWNpOGSOkka1q9vv3PHXzD++s6dO2vwoMEKDw93tjqTOnXqpHffeVe5ublasnSJMndn6fuaLUpunax2gzsoPCqw/3xmxabE6fw/XKjh94xSzoqdOrL/iDye+iH/9oM7KiohyukSAfgRAkBw2iFpx/T3p/8gj653uhirtWzZUpOumKRD1YWauv8dp8vxO9GJ0eo2pofTZQDwc0wBAADgQgQAAABciAAAAIALEQAAAHAhAgAAAC5EAAAAwIUIAAAAuBABAAAAFyIAAADgQgQAAABciAAAAIALEQAAAHAhAgAAAC5EAAAAwIUIAAAAuFCY0wUcJ05ShqR2kmIlRTtbTmC79fZbu48cNdK2/kNDQhUVFWVb/6dTUluq9UfWOnZ9BIbIuEhFREeoSbsUJbZKUkhocDz3FOYe0eIPgvvff3FhmdMlBDWnA0C0pAmSRksaLqmLo9UEmUXfLtKibxc5XQbgN0LCQtSie0u1Hdhenc9JV8terZwuybDcrAK9+/BMp8tAAHMqAHSR9BtJkyUlOlQDAJepq6nTvo0/aN/GH/Td1CVq0i5FfS7tr76X9VdETITT5QE+5euxsNaS3pW0VdLt4uYPwEGFuw9p4TNz9fKFz2nF28tUV1PndEmAz/gqAHgk/Vr1N/6rJYX66LoAcFrlR8q16Ln5euPqV7Rv4w9OlwP4hC8CQFNJX0l6WvWL/ADALx3cWaD3bn1Ly99aJnmdrgawl90BoIOkZZLOt/k6AGCJuto6ffP8fH3x8CdMCSCo2RkAuqn+5s/KfgABZ8usTfr43g9VW13rdCmALewKAK0lfS2puU39A4Dtdi7brs8e+FjeOuYDEHzsCADRkmaqfjMfAAho2YsytfjlRU6XAVjOjgDwnKReNvQLAI5Y/uZS7fpuh9NlAJayOgCMkXSLxX0CgKO8dV7N/NPnqiypdLoUwDJWBoAoSS9a2B8A+I2SgyVa9tq3TpcBWMbKAHCLpM4W9gcAfmX1BytVlHfE6TIAS1gVAMIl3WdRXwDgl+pq6rRy2nKnywAsYdVhQBdKamtRX0pqnaymHVMVmxInj+fkXxceIkU5fZ4hAL9VU1WrIwUl2rX+B5UXWzN///3n6zXsFyMUHhVuSX9GJbdIUM9hwT3oWl5codVfbXG6jKBl1e1ziukePFL3MT015MazlNo5rUFNEiKklGjezwVwajXVtdr8zQ59/swi7cvMN9VXVVmVshdlqvu4nhZVZ0yrjDRd8+cLHK3Bbvk5hQQAG1kxBRAjk1v9RsZF6opnr9KFj13a4Js/ADRUWHio+oxK139/dqtG3XSG6f4yF2y1oCrAWVaMAJwlyfBB2mERYZr0wjVq2bOVBaUAwMmFhHo08YHRCo8K19cvLTHcz57Vu+Wt88oTcoo5SsDPWTECcLaZxiN+PZqbPwCfuuieYcoY0t5w+4qich3cVWBdQYADrAgA3Yw2bNIuRX0u629BCQDQcJ4Qjy7//ShTfRzaddCiagBnWBEA0o027Dm+t0JC7T6RGAB+rm2P5mrTrZnh9of3FFpYDeB7Vtx9U4w2bD+kowWXBwBjup1l/DOo7McyCysBfM+KABBvtGFi80QLLg8AxjRpZfwzqKq0ysJKAN+zIgBEGm0YEWe4KQCYFpMQZbhtTVWNhZUAvscEPAAALkQAAADAhQgAAAC4EAEAAAAXIgAAAOBCBAAAAFyIAAAAgAsRAAAAcCECAAAALkQAAADAhQgAAAC4EAEAAAAXIgAAAOBCBAAAAFyIAAAAgAsRAAAAcCECAAAALkQAAADAhQgAAAC4EAEAAAAXIgAAAOBCYU4XgBOrLK/WgZ2HdGjfj6ooqVJlWf2v8qIKhUeHKyw8VFGxEYprEqvk5vFq0jJRiWnx8nicrtx3yosrVbDnsAp2F6roYKmqKqpVWVql2po6xSRGKSouUrEJUWraNllp7ZooJjHK6ZJPq6aqVjvW7tWezXkqL6pQYrN4dejdUm17tnC6tEbx1nn1w7YDys0qkDxScosEte/VUhHR4U6XBuAoAoAfqCqv1o61e5W5fLd2b8xV3q5DOry/qNH9RMVGqFXXZmrdtZk69W+trme2V0JqnA0VO+PArkJlrchR9so9ylq5Wz8eKG5U+4SmserQt5U69mutjCHt1a5nC3lC/CMxeb3SondWadbLS3WkoORnv9+qa5omPThGGWe2931xjVBX69W3763WnNeXq3Dfkf/4vcjocJ15eR9NuPtcxSXHOFQhgJ8QABxSVFCilV9s1oZ5mdq1YZ9qqmpN91lRWqUda/Zqx5q9+ubd1fJ4pJbpaeo9Ml2DxvdQy/RUCyr3reLCMq36YpO+m7FRe7fkmeqr6GCpNszL0oZ5WZLqA0HP4V00+MIeyhjS3rEwUFNdq1d++bE2zs866dfs25avZ66fpkt/N1JjbjnTh9U1XEVJpf5xx0fKXJ5zwt+vLK/WommrtW5Opu565Uq17dHctwUGmSP5JVrz9Vany7DVicIwrEMA8KGa6lqtn71Nyz/7XlsW71RdbZ2t1/N6pX2Z+dqXma+vX1qilumpOuuKfhp6eR9Fx0faem2zDucV6avnF+u7GRtUW2PP96noYKmW/Wu9lv1rvZJbJOicyf017JoBik2MtuV6J/PuQ1+d8ub/E69XmvHkfCU3T9CgCT18UFnDeeu8evmuf5305n+sI/nFev6m9/TAjJvVpFWi/cUFqb1b8vTq3R87XQYCGAHAB6rKq7Vk+jrNfW25Duc1fmjfKrlZBfrosTn64plFGnJZH4299Uwlt0hwrJ4TqSip1MyXlmjhO6tUXVHjs+se3l+kz/++SLP/uUznTO6nkTeeoeTm9n9vslbs1nczNjaqzft//Fq9zuuiqNgIm6pqvCXT12nbsl0N/vriwjK9/6dZuuuVK22sCsCpEABsVFNVq/lvrtC8qStUfKjU6XL+raK0SoveWaUlH67VsKsHaNwdZyu+ifNzsjkbc/X6rz9RwZ7DjtVQWValeVNXaNE7q3Xm5X100a+H2/q9Wfj2qka3KTtSoaUfrdfIGwbbUFHjeb3S3NeXN7rdpkXZOrDrkJp1SLGhKgCnw2uANtmyZKf+Z/w/9clTC/zq5n+s+oCyUg+PfFEL3l6lulqvY7XMee07PXXlm47e/I9VU12rxR+s1SOjXzr6vbF+GsLrrf93YsSKz763uBrjcjbsU35OYaPbeb3S9wu321ARgIYgAFisqKBEr979sZ678T1DH4pOqCip1PQ/z9aTV0zVD9sO+PTaXq/00WNzNOPJ+bbN9ZtRVlSh6X+erccufs30IsTjFR8sUWVZlaG2ezbt14Fd/vHva+0s4wvRDuw6ZGElABqDAGChrUt36tGLXg3Ylbm7v9+vv0x689+r5O3m9UrvP/K15r+50ifXM2NfZr6enPiGZr28VN46a0ZKPKHmfvxWf7XZkjrM8HqlNSYCgFXfSwCNRwCwQF2tV5//fZGeu+l9FR30z+H+hqoqr9Zrv5qhPZv2236tL5/9Rt++v8b261ilprpWn/5tof5xx3RLXtuMS44x9cbBqi82ma7BrJwN+372vn9jpLROsrAaAI1BADCpsqxKz9/8vma+tCRonmaqK2v03iNfy2vjH+f7hdma+Y8l9l3ARhsXZOu1X88w3Y/HI3U5o63h9nk7D2nvVt9O2RzPzPC/JHUa0NqiSgA0FgHAhOLCMv39umnautTYQi5/lrMxVzvX/WBL34W5R/TGfZ8FdGBaPyfTkoV4Ay8w9z6/k6MAZof/45vEqPOANhZWBKAxCAAGFe47or9Ofks5G3OdLsU2Ww2uUD+dj5+Yp7IjFbb07UtzXv3OdB+9R3RRZIzx9/lXfbnZ1pGaU8nZaG74v/+4bgoxuQ4CgHH89BlwpKBET183LehXMB8y8eF+MjvW7DU9bOwv9mXm6+Bec68tRkSHq/eILobbH95fZNtIzemsNbnYtf/53SyqBIARBIBGqiip1Au3fGD6gz8QhIRavzf+jKcWOPbEaof9O8yHwEEX9jTVftWXvn8bwOuV1s7aZrh9fJMYdRlkfP0DAPPYCbARqitr9OJtH1r+PvjJREaHq1nHFKV1SFFccowio8MVnRCl6opqVVfU6MjBEh3OLVJudoFKDpdZfv2mFq/Qzs0q0I41ey3tMyTUo9ZdmymtfRMlN09QWGSYwiJCVfZjuX7ML9GezXk6uKfQttBRZ8HeBT3O7aTYpGiV/lhuqP2arzZr0n+P9ulw+u7vc3Vo34+G2/cby/A/4DQCQCN88KdZyl61x7b+wyJC1f2cTuo2tIMyzmyvFp1T5WngQ/jhvCJlr9yjLUt2auOCLEvm2HsO72y6j2Mt/dd6S/oJCQ1R7xFdNOTS3uo6tMNp98QvL67Unk37tWFeptZ8vdXSE8aatDR/XkBoWIj6jemqJdPXGWpfXFimzOU56nZWR9O1NNSar7eYaj+A4X/AcQSABlr5+SYt/ciaG9jxWnVN07lXDdDA8d0Nvxee3DxBgy/qqcEX9VRNda02f7NDi6at1rZlOw09/XYb2kFtB0oy4QAAIABJREFUult3XKu3zquVFqya7zq0gyb/Yayad2ra4DbR8ZHKOLO9Ms5sr4kPjlHWihzNf3OlNi3KNjUyEJsUrZbpacY7OMagCT0MBwBJWvXFZp8GgHWzMw23jUuOUZfBDP+bFdc0Tq37Bvf3saqsSjuXsV20XQgADXBg1yG9+/BMy/tt37ulLrjrHPU6r0uDn/QbIiw8VH1GpavPqHTt25avz55Z1KDjZn8SkxClyX8cZ11Bqn9nvbjQ3DTFyBvP0MTfj5InxPg3KyTUo65DO6jr0A7KzSrQVy98a3jnxrMn9VNomDXD2OlntFNSs3j9eKDYUPu1s7fpqj+dr/BI+3+kczbmmloD029sV4b/LdAso7kufuJyp8uw1eE9hXrlMgKAXfgpPI26Wq9ev/dTw3u2n0hsUrSue3yC7v/XTeo9wtqb//FadU3TnS9P0r3vXqfmHU9/6lp8kxjd+c8rLT+hbdeGfabaD5rQQxMfGG3q5n+8lumpuvW5y/Wb96aoZXpqo9qmtErS+XeebVktnhCP+o8zPixeUVKpzd/usKyeUzG7+p/hf8A/EABO49v3Vlu6LW6v4Z31pzl36Kwr+tp64z9e+uB2euiL2zTxgdGKT4n92e+HhoXozMv66MHPblHngdZvzrJrvfEAEJsYrcl/HGfb96vLoLZ68JNbNPrmIQ0KGImpcfrFa5NPu/agsQZNMLcpkK/OBlg3x/jq/7jkGKWf0c7CagAYxRTAKRQVlOjzZ76xpK+QUI8u+e0Ijb75TJ/e+I8VFhGqUTedoRHXD9bOdT+oYE+hqsqr1aRlojoPbKvo+Ejbrn04r8hw2yGX9Ta1Z35DhEWE6vLfj1KfUema9tBM5e04+LOv8XikPqMzNPkP45TULN7yGjr0baXUdk1UsNvYKX8bF2SrsqzK1MZCp7P7+/2mjmxm+B/wHwSAU/j4L/NVVmR+NX14ZJhufvpS9R2TYUFV5oWEetR5YBtbnvRPpvSwsVfcpPoFib7SeWBbPfL1fylreY6yVu5W0cFSeTwepbVvot4juiitfRNbrz/g/G6a9fJSQ22ryqu1YX6WBpvcV+BUzK7+Z/MfwH8QAE4ib8dBrfzc/D7rEdHhuuuVK5UxpL35ogJY6RHjASC5hflX7RrD49G/3xrwtUETehgOAFL92wB2BoB1s80N/2cw/A/4DcbiTmLWP5eZPqwmNCxEtz13uetv/pLMrZYPop0DT6dVRlqjFyQea8viHYY3FDqdPZvMDf/3HZPB8D/gR/hpPIGDP/xoydP/NX++wPLNdAJVjIk5/Jzvg/fApRMZNN74YsDamjpTT+mnYvR1yZ+w+h/wLwSAE5j/xgrV1Zrb4nXoxL4aOrGvRRUFvtjEKMNtV3xqfgOhQDLowh6mForadTbAWhPBIjYpmpEwwM8QAI5TU11r+um/eaemmvyHsRZVFBwas3Pf8bJW7nZVCGjaJlnterU03D5r5W7DGwqdzJ7NeYbfTpCkfmNY/Q/4G34ij/P9wmxTc6gej3TVH8cpIjrcwqoCX4c+rUy1f/uBL/TdjA2m12UECjN7AnjrvJYfubyW1f9A0CEAHMfsk+bgi3sx1HkC7fsYf6KV6ue237r/Cz086iXNfW25JYcd+bOBE3qYOo551RfWTgOsMXH0L8P/gH8iAByjorRKmxYZ33c6NCxEF/1qmIUVBY/k5glq39tcCJCkg3sP6+Mn5+l3Q/+uN+77TD9sO2BBdf4nMTVOnQcaP+hl14Z9pobsj7V3i7nh/76jMyw7MwGAdfipPEb2qj2qqa413H7wRb2U0irJwoqCy5BLe1vWV01VrVZ8+r0evfBVPX3NO1o7a6tqa8wt3PQ3prcGnmnNNACr/4HgRAA4RtbyHFPtR910hjWFBKlBE3rYsjYia+VuvfLLj/XAOc9qxl/m68Aua558nTbg/O4KCw813H6FBccvSzK1niAmMUrpDP8DfokAcIxt3+UYbtu2Zwu1yrDmbPhgFZsUrZE32heSig6Was6r3+mRMS/p8Utf1+IP1qqyvNq269ktJjFK3c4yvg1y3o6Dys0qMFXD3i15ys8xt/rfTIgBYB8CwFEVJZWm5pOHXNLLwmqC19jbhp7wNEKr7dm0X+8+PFO/P+sZvfvwTO3dkmf7Ne0wyOS2vqtMnhDI8D8QvAgAR+XtPGTqFbNe7PjXIFGxEbr8/pE+u155caUWf7BWj138mp64fKoWf7BWFaVVPru+WX1GZyjSxLTJqi82y2vizUkzuwoy/A/4NwLAUQd2HjLcNrlFglLb2XtKXDAZcmlvSxcENlTOxly9+/BM3X/m3/X2A18qZ6P/bzEcGR1uajvpg3sPa7fBrZT3bj2gA7uM/1z0Hc3wP+DPCABHmfmg62LidS23uuqP49SqqzNrJirLq7XsX+v1xOVT9fglr2nJh+tUXVnjSC0NMWiCyWmAL4ztbGl28x+G/wH/RgA4Kt/Ee87NOxvf5tatImMi9Ku3rjV18p0V9mzO07SHvtKDw57X7FeWqbrC/4JAz+GdFZNg/CyF1V9tUV1t4+cBTA3/J0Q5cpwygIYjABxVetj49r/NO6ZYWIl7xDeJ0a/eutYv3p4oPlSqT55aoD+MfklrZpp78rVaWESo+ozKMNz+SEGJslftblSbH7YdUJ6JabG+ozMY/gf8HAHgqIoy4wvDklskWFiJuyQ0jdX9H93oyJqAEzmcV6RX75mhv0+ZpoN7Dztdzr8NutDcpkCNPSHQ7Op/9v4H/B8B4KiKkkrDbaNiIy2sxH0iosN1w18u0pQnLlRccozT5UiSMr/L0aMXveY3pxB2PbODEpoaf31y7aytjdrlcp2ZzX8SotR1qPH9CwD4BgHgKDOvhkXFRlhYiXsNvbyPHl1wlyY9NMYv3qqoKKnUG/d9pmkPfeX4NsMhoR71H2f8qbrsSIW2LtnZoK/dty3f1PB/n1EM/8MaNdXG1+SEhYVZWElwIgAc5fEYP3nNa+ZFa/yHqLhIjbh+sP5nzh2669XJ6n52R5n4q7HEkg/X6YWb31d5sfFRIisMHO+baYA1rP6HnyjJLzbcNi4uzsJKghMB4CgzT/GVZYG73ay/8oR41Gt4Z939xtV6ZNYdGnbNQEXGODfSsnXZLj1/8/uObiLUaUAbU4dNbZib2aCtkdeaXP3f1cT2xcCxcjftM9w2IZ61WadDADgq0kQAMLN+AKfXvGOKrvrjOD259J76/QMcemtg57of9OKtH6imyviJkWZ4POaerivLq7VpYfYpv2ZfZr7ydhw0fI0+o9IZ/oc1vFLmAuNhtG079mc5HQLAUWYW8hXmHrGwEpxMVFykhl0zUA9/eZse/ORmnTO5vy2nC55K9qo9mvbQVz695rHsfhtgrenV/91NtQd+sm3eFhVkGz+fpUvnLhZWE5wIAEfFJkcbbmtmwRSMaduzha758wV6/Jtf6vL7R/l0L4bln2zUkg/X+ex6x2rTvblamNh4atM321VWVHHS319jcvV/N1b/wwIlBcVa8Pc5pvro16+fRdUELwLAUc3aG191vn+7uSNXYVxccoxG3zJEf5x9x79HBXzxVsZHj81xbJ+AARcYf8quqarV+rmZJ/y93KwCU8P/vUemKyyC4X+YU5R3RNN/+Z6KTSwAjImJUf9+/S2sKjgRAI5qZuIJMnvlHlMnrsEaP40KPLnsV5ryxIXqPLCNbdeqLK/WR4/Pta3/UznjInNnA6w+yTQAq//hJG+dV5u+3KC3pryugu35pvoaPmy4IiJ4Pft0eFHyqOYdjAeAIwUlOrDrEFsC+4nImAgNvbyPhl7eRwd2HdLSj9bru483qLiwzNLrbJiXpR1r9qrTAPuCxomktmuitj2aa8/mPEPtt323S0UHS3+2sdBaE8P/UXGRbP7jY5Ullcrbut/pMkypqahW0YEiHdi2X1kLM/XjPmtG1a644gpL+gl2BICjmnVMUUiox9ChKZK0cUGWmnc80+KqYFazDim67HcjddGvhmvNzC2a89p32pdp7uniWF//Y4l+8dpVlvXXUAMn9DAcAOpqvVo7a6uGXzvw3/8vN7tA+7ebW/0fHsnHiS/9sGGv3rruNafL8DupqakaO2as02UEBKYAjoqMiVDbHi0Mt18+Y6OF1cBqYRGhOuOSXnro81t141MXW3Z+w+bFO1Vg4iRJowaN7yFPiPEdko5/G8Ds6v8BrP6Hn7jrzrsY/m8gAsAxMoa0N9w2N7tAezYF9nCcG3hCPDrjkl56ZObtOmey+UVC3jqvVny+yYLKGie5RYI69W9tuP3OtXt1aN+P//5vM/P/UXGR6sbmP/ADaWlpuvGGG50uI2AQAI6RfkY7U+3nvr7cokpgt6i4SF3z5ws06aExprca3nCSVfV2GzTB+J4AXq+0Zmb9U3/ezkMM/yMo/OmPf1JsrPFDs9yGAHCMzoPamvogW/P1Fh3Y5fvhYBg34vrBmvzIOFN9/LDtgEqPlFtUUcP1P7+7QkKN/wiv+qJ+5GL1V407Kvh4DP/DH5w3/DxNvHyi02UEFALAMSKjw9V7ZLrh9nW1Xn36twUWVgRfGHbNQA25tLfh9l6vtGu98T3LjYpvEmNq5f3erQe0f/tBU/P/UbERDP/DcampqXrxhRdNHermRgSA45xxcS9T7dfN3qZNi7ZbVA185bLfjVR4lPHRn/wcZ0Z+zEwDSNKXz3+r3GzjG1n1HsnwP5wVFRWlt958S2lpzpwREsj4yT1Oj3M7KT4lVsWHSg338cH/zNZDA9soKs74+QLwrYSmseo7KqPBR+Ye79A+Z86D6DcmQ+89EqbqCmPnpq+ZaW7zn4EmdiUMdO2i2mhS2qWm+liZtlL/0vsWVeQ+YWFhev3V1zV40GCnSwlIBIDjhIaFaMglvUwt6Du497CmPfSVbnnmMgsrg9069G1lOAA4dSJkVFykepzbSevn+H4hYlRshLqd3dHn1/UXsaExahdl7sS5ita+XzsSLKKjo/X6q69rzJgxTpcSsAgAJzDihsFa+M4qU8e+rv5qizr2a60R1/t3Mi0uLNOeTftVmHtE0XGRatuzhdJMnItwMgd2HdLS6eu1fc1eFR0sVWRMuFp0SdWAcd3UZ1SGQkKdn7uLjDH+7nB1pbEncCsMmtDTkQDA8L95Xbp0UWpqqgoKOE+kMVq2bKmpr0/VwAEDT//FOCl+ek8guXmChlza2/SJbx89PleJafF+uUd6fk6hZjw1XxvnZ6uutu4/fq9tj+aa8MtzTS2I/ElNVa0+fnKeFk1bLW/df+6yuC8zX6u/3KzWXZvpxqcuVquuzs7hmdkq2NfHEh+r94guioqL9PkoBKv/zQsJCdHVV12tZ5971ulSAsaYMWP0/HPPK6UJW6+bxSLAkxh721BTr1hJ9ZvEvPHbT/W9ny0KXDdnm/584StaPyfzZzd/SdqzOU8v/dd0ffCnWaYOOaqprtVL/zVdC99e9bOb/7F+2HZAf736LW1fvcf4xSywdclOw21jEqIsrKRxwiPD1MeCsNYYUbER6u7i4X8r3f3Lu9WyZUuny/B7rVq10tTXp+q9ae9x87cIAeAkUtsm66wr+prup6aqVi/fMV3LP/GPrYLXzdmm1+6Z0aBFY4umrdYnf5lv+FqfPb1QWxbvaNDXlhdX6vmb3lfmdzmGr2dG3s5Dyl5lPICktE6ysJrGM/s2QGP1HpFu6q0J/L/ExERNe3uakpOTnS7FL7Vp3UZPPvGkVi5fqYsuvMjpcoIKAeAULvnNeYpLjjHdT21Nnd66/3N99vTCEz5x+8r3C7P1+q8+UW1Nw2uYO3W5cjbmNvpahfuOaMGbKxvVprK8Wi/c9oHWmNyX3oiPn5hn6u+mVXqqhdU0XrezO1ryb7Wh+vvhtFYg6927t+bOnquhQ4c6XYpfaNq0qa6cdKU+mv6RVq9arZtvulmRkbxVZTUi/CnEJkXr0vtG6J0HvzTdl9crff2Ppdq+eq9u+tsllh1G01Dr52Tq9Xs/UU114xY2euu8mv/GCt3898a97rTyi02NCho/qa6o0Wv3fKxd68/QpfeNVGiY/Rl17mvL9f3CbMPtwyJC1a6ns0O4oWEh6je2qxZ/sNb2a0XGRKjHOZ1sv47btG/fXp9/+rmWL1+umbNmavv27SooKFBdnXMPDXaLjopWXFyc4hPi1bZNW3Xu3Fl9+/ZV14yubOrjAwSA0xg6sa+WfbxBO9bstaS/7FV79MdxL2vC3edqxPWDbb/B1dbU6cvnv9WsfywxPJ///aLt8nrVqD3zjYwa/MTrleZNXaEtS3bq6j9doM4D2xju63SW/Wu9Pvmr8WkOSerQp5VfDIcPmtDDJwGg94gufvHnDVZDhgzRkCFDnC4DLsAUwGl4PNJNf7tYMYnWLfKqLKvSx0/M05/H/1MrPv3etmmBnI25euLyqfr6JeM3f6n+Hfcj+cWNamNmI6Wf5GYV6G9Xv6XXf/2Jqd3qTqSmulaf/nWB3n7gS9XVmvjmSH7zlkeXQW2V1Cze9uuw+h8IDgSABkhplaQp/3uh6VPjjpe385DeuO8z/WH0PzT7lWU6nFdkSb871uzVy3d+pCcnTtXeLXmW9HmqVfwnEhlrzXyd11t/dv2fJ7yif9wxXRvnZxmaWjjWlsU79OiEVzTrn8tM1xcaFqL+4/wjAHhCPBpg8858kTER6nEuw/9AMGAcr4H6js7QeVMGa8FbjVvY1hAH9x7WJ08t0Kd/W6guA9uq61kdlDGkvdr1aqGw8NDTtq+urNHeLXna/M0OrZu7TblZ1j4th0eFKSE1rlFt2vZo3uA3ABrCW+fVhnlZ2jAvS3HJMep1XhdlDGmn9DPaqUnLxNO2L9hzWJsWbdfiD9ZaOpow4Pzujf7e2GnQhB6a/8YK2/rvxfA/EDT4SW6Ey38/Svk5h7TpG+tubMfy1nmVtXK3slbuliSFhHqU0ipJzTqmKL5JjCJjIhQZE6G6ujqVF1eqqKBEh/YdUd6Og6afik+l84C2jV6rMOCC7pr9z6Wmph5OpuRwmb6bsUHfzdggSYqOj1SzDilKaZWomMRoRcVFyFvnVcnhcpUUlmrvlgM6UlBieR0ejzT6Fv+aq23fu6XS2jex7XAif5nuAGAeAaARQsNCdOvzE/XMlGk+Of61rtargj2HVbDnsO3XOpXzpgxqdJs23Zqp75iuWjd7mw0V/afy4krlbMw1tfDQiEETeqpN9+Y+vWZDDLygu2a+tMTyfiOiw9Wd1f9A0GANQCNFRofrF69OVvNOTZ0uxSf6jslQ7xFdDLW99rHxatomODc3iYwO16X3jXC6jBMabPJI65PpPaKLIh3c8hiAtQgABsQmReved671y6c/K7XKSNOUxy803D42MVq/efc6pbaz/nAhp13x0Bif7+XQUM07pthyrgKr/4HgEtABwIbp5QZLSI3TvdOuU/rgdg5WYZ+mrZN09xtXm379MblFgu6ddq2adQieENB/XDedPamf02Wc0qDx1m4NHBEdru6s/geCSmAHACcTgOoXn/1y6lXqN7ars4VYLLVdE9377nVKtGh1e3LzBP162nVq062ZJf05qW2P5rr+L/6/H/ngC3ta+toqw/9A8AnoAOAPG2SGR4bptucn6vLfj/LJtrV2a5WRpt+8d12DXq1rjKS0eP1u+o064xJ75qd9Ia19E935ypUBcSNs0ipR7fu0sqw/hv+B4BPQd6yaxm1rbxuPRxp98xD9bvqNAb3ordd5XXTfB9crKc2e3eTCo8J041MXa/Ij4xq0v4E/ad4xRfe+e51t3xs7DLqwpyX9MPwPBKeADgDVDk8BHK9drxZ68JObdfaV/eQJCZyDLEJCQ3Txr4frzn9eqag4+0/cGn7tQP1+xk3qYOETqp3SB7fTfR/eEFA3f0kaeH43hYSa/3fY6zyG/4FgFNABwOuVqv1hHuAYMYlRuvbR8Xpgxs1q39vZE+IaomV6qn43/Qadf+fZlm91fCqtuzbT76bfoMmPjFN0vH8e8+nxSCOmDNI9b12j2KRop8tptITUOHUd2tF0P2dcZM1IAgD/EtABQJLKa5yu4MTa9miu302/Udf8+QI1bZ3kdDk/ExUboYt+PVwPfnqLY0HFE+LR8GsH6o+z79Dw6wYpPNJ/9qVq0jJRd79xtSY9PDag13aMvGGwqfbNOjRRz+HG9oEA4N/85xPXoPIaKSHC6SpOLCTUo3Mm99fZk/pp7ext+uLZb5S346CjNYWGhWjoxL668O5z/WYP+8TUOE3+w1iNv+tszZu6QgvfWaWq8mpHagmPCtOIKYN1wV1nKzLGT/9hNUKPczup7+gMrZ+b2ei2Ho80+ZFxlkwjAPA/gR8Aqj2q9Xrlz59RnhCPBpzfTf3HdtXmb3do+Wffa8O8TFVX+G74IjEtXude3V/nTOrnNzf+48WnxOrS+0ZozK1nauXnm7Tis+99tr1vdHykhl09QCOuH+y33x+jpjxxofJ3Fzb6kKhLfjtC3c4yP4UAwD8FfADwSiqtkhL8cxr5P3hCPOo5vLN6Du+sipJKrZ21VevnZip71R6VF1dafr245Bj1HtFFfUdnqMewzgEzlB2bFK3zpgzSeVMGaf/2g1r5+ffasmSn9m7JU12tdSs/PSEedR7QRmde3kcDzu8WFE/8JxKTEKXfvDtFr9z9sTK/yznt14dFhGriA6M1/NqBttcGwDkBHwAk6UiVRwmRfvZKwGlExUVq6MS+Gjqxr+pqvdqzeb+2fZej3RtzdWDXIeXnFKqmuuHvOXo8UnLLRLXv1VId+rZSx36t1aFPq4Afvm3Ruakuvvc8XXzveSo7UqGsFbuVtSJH+7ILlLfjkI7kFze4r5DQELXo3FTterZQ16Ed1O3sjopvEmNj9f4jNilav3rrWq34dKPmvPbdCUcDQsNC1G9cN11497Cg2rkRwIkFRQCoqZNKqqW4AH1TKSTUo/a9W/7HYry6Wq8O7ftRhfuOqKyoQhWlVaosq/8VGhaqyJhwRcVFKjYpWimtkpTSKlFhEYH1bn1jxSRGqe+YDPUdk/Hv/1dRUqm8nYdUXFimytIqlRdXqLykUt46ryKjwxUeFa7EtDiltEpS09ZJrj7L3uORhlzaW0Mu7a28HQeVszFXxYVlCgsPVdO2yerUv7ViEsxt/QwgcATNp+HhCo9iw70K7Ofd/xcS6lFq22Sltg3cjYV8ISouMiBet/Q3zTs1dc2JlgBOLDAmhRugpq4+BAAAgNMLmgAgSUcq/XdfAAAA/ElQBQBJKij3qMbPdgcEAMDfBF0AqK2T8kolC98WAwAg6ARdAJCk6jqPDpR6CAEAAJxEUAYASaqslfaXiOkAAABOIGgDgFQ/EpBb4pFD28oDAOC3gjoASPVrAQ6UeXSowqM6pgQAAJDkggAg1Z8XUFQp/VDiUXFV/X8DAOBmQbMTYEPU1kkHyz36sbL+COHYCK/C2DsIAOBCrgoAP6mpkworpMOVHkWGStFhUnSYVxEh9fulAwAQ7FwZAH7i9UoVNfW/Dh89RSDMI4WHSh55CQNAkCuy/hRuIGC4OgCcSI1XqqmRFDTHCgE4mcqGn7gNBB1XLAIEAAD/iQAAAIALEQAAAHAhAgAAAC5EAAAAwIUIAAAAuJAVAcDweXt1HNUHwEG1Jj6DQjw8PyGwWfEvuNRww4MlFlweAIwpKSg23DYuLs7CSgDfsyIAFBlteCArz4LLA4Ax+dkHDLeNj4+3sBLA96wIADlGG2YvzLTg8gDQeNUV1dq1bIfh9m3atLGwGsD3rAgAWUYbbp27WQd3FlhQAgA0zur3Vqiy1PhhAF06d7GwGsD3rAgAa4029NZ5Nfvxr1RbzYbcAHynYEe+lr+51HD70NBQ9ejRw8KKAN+zIgAsNNP4h/V79dUjn6m2ihAAwH6H9xTq419/qKqyKsN99OzZU0lJSRZWBfieFQFgh6TtZjrYOmez3rv9LeVnGV+QAwCn4q3zavPM7/X2Da/rSO6PpvoaOWKkRVUBzrHqzNtHJP3RbCeeEI86nd1FXYZnKLVTmuLT4hUWGW6+OgCuVH6kTCUFxdq7bo+2zdmigh35lvS7bMkypaenW9IX3KuyslKt2rQy2rxCUrSZ61sVADpIypYUalF/AOCXBg4YqFlfz3K6DAQBpwOAVVtZ7ZI03aK+AMBv3XPPPU6XAFjCyr0sH5PESj4AQatnz54aN3ac02UAlrAyAGyW9IKF/QGA3/B4PHr80cfl8Vg1cwo4y+rTLP4gaY/FfQKA46699loNHTrU6TIAy1gdAIokTZJUbXG/AOCYjIwMPf7o406XAVjKjvMsV0j6jQ39AoDPJScn643X31B0tKkF14DfsetA6+cl/a9NfQOAT0RFRemdt9/hnX8EJbsCgCQ9KOn3NvYPALaJjY3VtHemacgZQ5wuBbCFnQFAkp6UdJck45tuA4CPtW3TVjO/mqnhw4Y7XQpgG7sDgCS9JOlcSTk+uBYAmDL+gvFaMH+BenTntD8EN18EAKl+YWAPSX+SZPwAbgCwSfPmzfXiCy/qrTff4qQ/uIITO1p0Uv3agCmSIhy4PgD8W7NmzfSLu36h66dcr5iYGKfLgYs4fRaAk1taNZd0taRrJPVzuBYALhIVFaXzhp+nSZMmaeyYsYqI4FkEvufmAHCsVEnDVR8E0iW1k5QgKU4m/4BuFhYWFh4bExtn60U8YmtU+K34uHjFxcUpPj5enTp1UufOnTVo4CANHDiQmz4cRwCAbbK3Zo+RR7Ptvk5CQoJCwzgJGgAaw+kA4KtFgAhilVWs6wSAQEMAgGlVlVWq89Y5XQYAoBEIADDN6/WqqoK9ngAgkBAAYInyinLV1tU6XQYAoIEIALCGV6ooq3C6CgBAAxEAYJmqqipVVrIgEAACAQEAliorK1NtLVMBAODvCACwllcqKS5RXR1vBQCAPyMAwHJ1dXWEAADwcwSnKd+OAAAENUlEQVQA2KK2tlbFxcVMBwCAnyIAwDZ1tXUqLipWVRV7BACAvyEAwFZer1elJaUqLS1lSgAA/EiY0wXAHaoqq1RdVa2Y6BiFR4ZzgiAAOIwAAJ/xer0qLStVSEWIIqMiFRkZSRAAAIcQAOBzdXV1Ki8rV0V5hcLCwhQeHq6w8DCFhnKkMAD4CgEAjvF6vaqurlZ1dbUkyePxKCQk5N+/GB0AEMyc3jmVABB8xkq6SdK5Xbp1aRYdFa0uXbpo9OjRuuaqaxQfH+90fSfl9XpVW1vLq4MAXMHpAMAjVvBIkvSOpAkn+4Lk5GQ99eRTGnbuMN9VBQA4ocrKSvXs09No8wpJ0Wauz2uAwSFO0kKd4uYvSYcPH9btd9yuufPm+qYqAIDfIgAEh2ck9W3IF9bW1uq3v/utDhw4YHNJAAB/RgAIfOmSbmhMg7KyMv3jn/+wpxoAQEAgAAS+SZIa/f7c17O+ZrEdALgYASDw9TfSqLCwUHl5eVbXAgAIEASAwJditGHeAQIAADjF5Cis6cNVCACBr8Jow4KCAivrAAA0QsFBU5/BJWavTwAIfMVGG2ZlZ1lZBwCgEbKyTH0GG/7s/wkBIPDtNdpw3vx5VtYBAGgEk5/Be8xenwAQ+DKNNty6dau+XfytlbUAABpg3759+vKrL810sc1sDQSAwLfeTONHH3tUxcWmR5IAAA1UW1urR/70iKqqqsx0s8FsHQSAwLdaJuaCduXs0i/u+YXKysosLAkAcCJ1dXV69PFH9c2335jtaqHZDggAga9GJv8hLFu2TFdedaW2bNliUUkAgOPt379ft99xu6a9O81sV7skmV7FzWmAwWGSpA/NdhISEqJRI0fp/HHnq2+fvkpLS1NERIQF5QGA+9TW1urgwYPaum2r5s2fp08/+9SqI4Afk/SQ2U4IAMEhStI+SU2cLgQAYCuvpG4ysQD8J0wBBIcKSc87XQQAwHafyIKbv8QIQDBpImmnpESnCwEA2KJO0iBJa63orNGnyMFvlR/9Nc7pQgAAtnhd0itWdcYIQHAJlbRc0kCnCwEAWCpfUg9JB63qkDUAwaVW0lWSjjhdCADAMnWSpsjCm79EAAhG2yXdJAuOigQA+IX/kTTb6k5ZAxCctqp+uGiC04UAAEx5VdJv7eiYABC8Vqt+KmCsWOsBAIHoNUl3qP7df8sRAILbcknZki6QFO5wLQCAhvGqftj/t7JxOpcnQ3foJmm6pJ5OFwIAOKWDkq6XNNPuCzEC4A4HJb2p+oODhkgKc7QaAMDxvJKmSbpEJo95bygCgHvUSFok6QNJsaofDeDvHwCc5ZX0paTrJL0oqdRXF2YKwL1aqf690msldXe4FgBwmx8kvS/pLUmbnSiAAABJai/pPEmDJaVL6qj6MwUSxV4RAGDGj5JKJO2RtE3SBknzJW2RTav7G+r/AEAJ8HVk0D7uAAAAAElFTkSuQmCC;fontColor=default;imageBorder=default;" parent="119" vertex="1">
                    <mxGeometry x="114" y="27.5" width="40.5" height="40.5" as="geometry"/>
                </mxCell>
                <mxCell id="122" value="FONTES EXTERNAS" style="text;html=1;align=center;verticalAlign=middle;resizable=0;points=[];autosize=1;strokeColor=none;fillColor=none;fontSize=10;fontColor=default;" parent="119" vertex="1">
                    <mxGeometry x="77" y="4" width="115" height="24" as="geometry"/>
                </mxCell>
                <mxCell id="154" value="" style="shape=image;verticalLabelPosition=bottom;verticalAlign=top;imageAspect=0;image=data:image/png,iVBORw0KGgoAAAANSUhEUgAAARMAAAC3CAMAAAAGjUrGAAAAYFBMVEX///9VrO5JqO1Pqu71+v6v1fb7/f/q9P2l0fVCpu3a6/tgse/c7fu22feNxfPw9/3H4fk2o+zU6Pqay/S/3vjj8Pxtt/DN5flZr+9ls++OxfOFwfJ8vfF1uvGiz/Wy1/Zcnw8fAAAQhklEQVR4nO1d6bqzKLMVMBozmZhJM+37v8uPoQoQinT3c86OJDvVPzqvqFuWxaqBAosiD2n366kfITNpH1w0y2019XPkI+Ws54wx0dzPUz9KJlIdBoWIEsFvq6kfJwc5D1wwK4Jf66mfaGpZnRoPEYmJ2LdTP9O0ctzsxog0WkuqbTn1k00l9V5wHxHGT506fh6a5fpPmqByL0Y6wgTTHkp9lccFH7ZTP+Dr5YeNdUTwvR4wD0BK8NNi6md8rWyXASLN7aiP99w7dj1O/ZyvE0kYI0QYHzSRHG/j42K3n/pRXySLGyeJpN2Hx/nlb9jl4zXsOXgkBzY+jspT/3y4CYp0gTVX7c0vTsFwEnyusVgLvjxM+9C/KtU8cEgY73XU114iqO6aX493ruAZPjU2rELzK4fNTLfMeNRgVOMBUMmI+SMNc2h+ZccNhZ6jBn7Vrspi+GzD3N0jvrjpV19fm4hbtQtbPoLokF8+KmJehcYGOy4ZJmgQ/KGV5DwE2sOa4YM0RUcw4443M21UDnHHT9oMlRHpst38c2xyGZlfyQ2aSKRRiVp+9DXbEEQmepOA27P3N8zVLOo3BHflPiQSzLG1gYsvhV+0khxPXA6hbsoO/Z+lOvTh4ODDwbSEhpnxJaQH6lCzeG9aDvq4jBffOGm7DZ1TaX/nmkG7e4iIaIyLr5tXIysFQ63d4EFpgt6Ubrt7TK0wOC4RX/DBOGVzUBYX/QhuGOS89K7h7B3Ttm0Y/dqgrpjFDMrnuuU4cOm3GH0BuuGD8UoeUej4bnaovewiRHqwGPUpYhKTUKrmjeELY6hX8jwEq46MttSjt2KV9kFowsPl4n9G7xzB6mymCU3LuocRdYh0joH//yZSzSJjg1a2fBj/4+hURTQXGCtevwU3dNHqfrebSEkY6s/lLSLmQxjSKU44YxO83grpgS9N04hBFSq9LTPolpGSCGGuWiwFjLucpYsHPheme8ZtFb0ZF12v/tE8NHWUm2hwiN3D3PERunaOdw+qSfBN1iZI+hUxkZg5Cue2Nqaz1aWBxFGxDfMnLoNCkCs6tcVjB+c2j2y55RiF/QxVe+S28hNAYfSnvkauvLREoAkRWctbmsuksXeni1mWqNThvB5zRLIYm18hvJqkdZibVt02+beSIFcMBldjluHLQ3buSpwIUR6EcTTamC34FTigjpx8haTpNkGuUoGMQsTWObfZ1GodmV8VwBj9/yHQguCmiKJmpvjGvPF5TK7IRZJ4oya2m0/S94RsCSJE/iQMkVWEVeTROrtEKZDgZiiWt7iNNTklVsaFRtBriO7rOOqxbFFFySZ14dUoCUGuTIAJXsUekKQoA2X5yCBpu6J6zUx8Vs0pRMCkLOLhJi80L7vcEGODbwAuAkpk3vbExdSG+RjnTV2CPZq9YNo+6DbprhC9hlq2BakIYKsoKkENqgehdHQ9ISotYX4ZTk9RCsSQWym40PGgtIuJpblrdSWoBI3RqoeAYZiKW6p57FlIz8wQSZyZVo3An2U0tcGcw06RK+N30+sjwdiWgzr7hqaaTV2Hc7/M5YZoihRgSElC4E8aGTZunzeO7vf6MqdoQpN5ta2rKA+rHh2Mcx1n5V0KrrxQbAG6R1IJ4yb9IAPC4KrmtZW2i3CmU0lzB88imqRQT86AIn+IASdpxgwNypmx4VFJxEWyFfCaxY0Yfr5G6p7wSEzAUc2iSQrV6Q1oEEUWgsHgJ+IDeenlCZUIASNkTzTKS18HibQ4ASiYCJEOHNGtf+i0SUoXLYUX24F+bSn9Ej0Mjwt1KX9xNVzr9876YUSyXquwwYvyP53fQfKnTUTPqXEjThBJUr6+9PFeC4lUZffe+AnCECpqY2gAwtoJaL0bNElyZTCvIb0SshVscEkqGLq9LwUFHSQGmQsqEpStUKJHGSob+tDkaiNkkkosW9QnAmsL2GtFg2LnKEi3laE9jAvW9HMPODIonhECTApJJawBV6gmsiwKklfDYeRoU4t0jOsci21sp9RzA8/Q5CqWwJ9zqpXBjGmxIgGbChJFmmBPotpW3Sm0oiXlpclRBRfHxSZKGtR9KsCxmZSio94FE/cXIxFJVNtq+gxzeLS3bvtMk6tA75QeGdYcbWkduk+cm60vlD2x7Hkk7SQmSka1jV5zD3ieyZGBqYFiTUNymxgS0le3wQ1RQ2Ca6+fN4HcQDruCBIJk2mlhYmpIijPJraAFRyLh6ulQS+qQ53/WZLYEmYZKS3mITSjn6Ml2sJyCTA4pogEdom2s4P6cxDoamA0iRkz+qMuXU2uJkgAUTBwl/DCBfapIcpVcAYjB/8JqlQZCgYrWMTHkAIkExXs6mziiPRY7VVGsSMTcwJg16JuPtA2VqCSdVxkBTT9wjGxd6HMHI3kmsvKqHVyWoCzHIQpMo9KufAn36mysbQNs2kS7oDADAVAEgyWwLRm7O+6tSC9OKhF2WQ8Yy8WY5BdLHFekX5wVJBIU9dA22XegH7m52WQgnVhFC90h+WIOwvgptssLkpwlpLkMHCOHBmuHUhZWNP4GJ8SbtgZl5i1RwTiwvDbWOz2TTo3EKSctUbJGSlyTTOEsMJwWJj2wCKeoxja2ueB9MawLk9F4g2VukKCEy2Ftj8EcSXJF92PEOQLTBlGlqE0o4A0SkAwZTBRTUtG+up2q0OMKmVPC47RhA1TQpSt0jND+vMss5CYd6cq7qQpYZs4xnW6JAZaopEy0Jd9Efl5JppAU8x35CjHXYTtk2dLMiQiOU3a0uy7pGYcPmUxRd8y3IHRGhWwwwV0cXUbWzkFUkmk5mliqxlHfAdmzupMjUw63fCEhQHHlfKNoTjBcmLRvIAPpTYEHkGCg29L+vC0+yVWCjAdWcEUFn9b0FtgfOj/kRUBHajrtDSAZ2wVbZkAlqfmoJK9Kkaf15Fa0cyz/Ss4Dx4jrHF8uomM+KN48XWpYsAbtcMKfl7d5h+WBAICdEpXWJcGdNpW8SFCJnbEgMlfvBAnkBG2Mm3L2vTMS3rrHxOsUJOI9INGa0uCSozbpUqAJrui8qpcaSDmvbwSJAsXqfIoZrTNLzwIyPxuSdF7fZOBoqdDTTqqANcWLJGg2/04nqJhLRL6T0PUAzB8VB2rCTImtMSKrP80pbwhJilzd+sYkldjFBqoyOnXKWywFHAm5UMBAgt5akkoYx4igTjiv7zlwqlSQa01wkkpsxjGVn1fnvCEkqVkpfkL+TQ4twdD/pYtL9G3edPdqChQbBSdNkkskpJLRUnY5Ldb5bxKCIuzCozSVuKm8lHub2fql/yq3YCEjRvXJINerzVuTWTt9zpsOHCOVD4pdGJkoXdIaYOsskv78m0Mymut2CZNHaty41EDan7cFj+8rCIqwsUnacXE8kXZePdjeVyoNipulS1OJcFFukoE/AhI1CyrsFgPPqERYBk4Ulyjhbz9wjJSDY8WkVyJtMLolaX/+YyCRnbRUkqYJOw0U7kQwOunz9mJ+1lu7iiKZjP5ISMhCnLC3yWT0R0LySPqlnhd2eHLS50GyedJbG/dTE86fC0lRp3jCzVg8cXAnWMn2CkkVK9rcbKrU4nMhSYDCXf1m2lB/LCQkKG5dSZX25ydctvX7EnGKnfl6kp//bEikpow77lz1dDJa6dKUj/z7MqogcG5JOhmdwbKtX5eF7bwtvE6XbenTPh4SqRIwfLz9X7dpf56Jqdc7vkRWWie8UvBEZTRAMuWjvk467lcNJNZUAySnv6AlSs7c22AhnYxWWpLruoL/f9m6eC5ZXMJyW6P0KkmsdARIhrzWKL1GynTmNZ8loK+VJ8loZZj+opYcn/jz+S7I+VVp0+nZvwrJs1qKjBf3/bYckjUofxaS0YrAESTZrmR7hZAbnOS9bOv3hYj//jokhKaI/q9DEk1zfSFRMs4V8NwX971G/K1yv5CAWFDsdrBfwXliV1T+FQTlqyUjUek2/n4Lcn5XLvwLSSSXt1yQ85WvfOUrX/nKV77yla985UOlXTk5/t1ZqpHMGm5FsP7yRrvW/JrMwo81DZOiYj4U0UybmJqFhQFi0vXQBhOeGSbuY31TSFaYCOHqoCfMluWEyXCS/zGYj5iwojUjTMw0VXmGSqyd/0xVGqCydW3tsf7vxWtlHdh/8z2GiWfNfExwYwImoPb1uN6clowtT3s3mqqNlkNRdHd7XflzEpyzq8Rye72odgVWtcdTlZyv+l8Og3o+MOkALPcWgcfF7Csi9D0m85bGmBQLM0lzkj+rw6nhhmSE95HYkivqaR7SsxFMwJfge1PXpj4uIg9L4Upnqh5O1fJjGmypzhxurj6WDOp2Eh678cmKegJMiqV5KPlrMdqKTuBmFKW5YKYXVhtMzq7Sj19MjYHQmOib4aIns+GuwB2b/ZWDHPYaGu37ILLBBJS3sOPIPTh8VdFc8BgYYlL75SeiZ/8Kk/H6Uli6kT0mxRzGDT6j+VKQwYRB19V1J6fwrkP/gAnUNokGlNF8Dy1TTMzY6dXPIxdyUJxOCIvZm7EcPffKLFvRv4f9xgH4HJPWXMM3XYdrOhSj5omJsYXCrGg83Q76uTqwRnqBsMNE6YW87gpMqRCzG4H8AyYPc0NtkcxHbmBdIdjiaeucxpi0AzCo+ReeVBrtWerfVhXuh1r6J9CGu83CJl3PMan0yBOwCPeiNyYyjJKdz9YeYEFBE74nc1ajfiImAgzo0bzyE5wJSwWfY7IYlWV0wg6enDCRvr2UHh0Gtz66XiwWNar0Th0BTOwiv5HqF8gJzzExP3HRRmneg34tOWEyigGR3dqLMMmmqxn/PiY2xfETkPTjX/gnerSwYdVpWenTDINnhYkT+3E/9yUIgMvHpB/fQFjuMduTP8cEaLkBYU7T8sSE496w8d7rHiZueIWYHP49JuO/q0/LEBM5Vvb4hRQ40ogeHSsfk/34Bp+IiSEOdl3bvpkyYHFflGV7voZ84nZuAMN1DK77F3zCuC+73DDh57Ztx/kP/Z0cXON4DO2Ow+Rg/m2rtm7/wu4Y3JZ160mt/1JOmERJHOOK2a9zpzFZ+Z6vHHKRz4bUA76rwgS8ZSJzlDcm2tVs7Oe5k5i0JhrELUM3ESaMGV2DqFFh0gY8XVoMtvnl2ZwYTPDz3fs0JjhYzDZTuBhBY1IM5vfF3QJ8H4OcwI+Dn+yiMIOJbignSwqnMAF/1Cz9hPVtNCbwPXMh9tu13U/JYILBz7Df24SCviFGANeubVcP6S7icnX8Pu5+tplubXISE/NeRb9fz3GbJBoTGBTadjlXWHcI1wp6TjL4yBf8wI8Q+iLcNcburCKP5qcnC/zonUqbRv6Jj8nC390P1UFjUvK4wWASJvHYzgRMpXcoP0z8DTzE/Rkm/to3fvX8E79FLH9Gucd2/G0S+20N769Oh4mZtCYwqa4c/bmZHxfro+ONcX9sBv5WzHxMig3cgw+l9k9cNr662JEmeG83u68GO94mw2TdL6Uw0vgdBiEjNHHrirM+i6uDpf7Zj7eUXl0Yl2cO6yLApFgPsoH3j7I4MHWht15/cel5oy+be1M55b5XV7DbdBO0lZFE47E7d7U77ckVrTxzpQ4GmJh7tPR15eK8PnTH4F7lqutWH1UeFGLylS8mlHwxieWLSSxzN4f+FZDDTcvUe0v9D3P6x0kwnN3YAAAAAElFTkSuQmCC" vertex="1" parent="119">
                    <mxGeometry x="188" y="28" width="40" height="40" as="geometry"/>
                </mxCell>
                <mxCell id="156" value="" style="shape=image;verticalLabelPosition=bottom;verticalAlign=top;imageAspect=0;image=data:image/png,iVBORw0KGgoAAAANSUhEUgAAAOEAAADhCAMAAAAJbSJIAAAAolBMVEX///8AQP8ANP8AKv8AMP/l6//n7f8APv8ANv+Qpv8AL/8AMv8APP8AOf8ALf8AOP+In/+Cmv/1+P+6yP/y9v8ARP/P2f/t8v/K1f/Byf/d5P/X3/+Xqv/Czv+fsf8oVv9/lv9zjf+ltv9Ibf8xW/+0wf9ohP8/Zf95kv8MSP+pu//U3f/N1/9rhv9de/9Wc/8eUP82Xv9bef88Y/8AG/9qgP9V3mCIAAAP40lEQVR4nO2aaZuquBKAIUQTSQigojQuILihraJe//9fu1UBl17O0qe7z8w8T94PM7ZyQiq1F1iWwWAwGAwGg8FgMBgMBoPBYDAYDAaDwWAwGAwGg8FgMBgMBoPBYDAYDAaDwWAwGAwGg8FgMBgMBoPBYDAYDAar+09v4Av4uQyr/76I7fSnP/tV6y9t5Lt4tuVPf18K2ftLW/kepi7Z/fSCgcOc7L9rqe29Ys7g59cUnk2qyXdu4hvXntrc9opfXJR4zJZOMfqmPXSz/62/y0QmFWU285JfXbdxbdv21D7+2PLd/rDd0rSH/R9eFafUF9WPl74u0m4PP3gO3cVKSdi5u/n1tWtqaxmP41+eBtjcKF6Mw91hNa9KW3LAs8tqvjqtp/HbqBxSTtaCu9mbX1pxvj4VR1zEhzVYVKbH1WGZjRfx9jei+yiotHw2Xf/6Yss6ELzWloJX2eL95fujyWY8K9JIcqqoEIJSV7lU4+IXBL7xqsvm0esGqXCPiZUcqageo0F7cyklbVapF3H1aviNolxGVbEMNr3t8N29dCdhRYiWzxaH3xEQok0tos0kdx03Pa2D8TTfbDb5dNwBfR0j5SjYQb0BWVZHPOx88TSJJ3E8eVpM8aJKKvjdSTtXS1g7nIz1pzHhTtZ8m3QqB1ZSvJwfZsF08zSZwDJPvUXeyZbFvIpkc4SuUo4j02KZwW42i8l2O4p7eedSOYpIBpuFDZNfRZnbqax8OyrhVFhZ3c/1EeUQ2NEunD5tk/dP1uonk+DAFBFOkffRA4W7gvjV7YCDjc5UpOCN/bxwCKd8lfWS9523O0xGkxxPrOSOArXSq6E4NcoVUQnSeWVp+79fkQ1BvPOeQFg9LSbT8LJKS+YR4kdVujrNwvFm0hr2f2e1fm9JqU/LIBPcQQXGqdKBpuNwkQUl5ZTuFz84o1dLDVvxYhrMLqDYUhIuJbjqaT1e5Hub+WS5YrL8rYVqWoTJNN95xCPnxe//s/fo5hVjnNM5Wusa4oFUM/iUpIJzyeabz+UOCKHcJ3KWp5LRDxWcPQWRJhuE+pRPm8+l6VRK3oH/x5VgGBFIiWoMQA2nT63byg8uJW7Z2WZC2uqDqpgR3MlmuCiUINRfhZM/Lcm3c48esYKAbbBojyJKipXhdk758U9Li6Q3OxNKqDo99fOIQxj9rTzxQLfyINKIdGENp0fHBSlldQg3k9EHbF0TQOAM4P9bUKAtBrHOtqzOF6HDtXI/RDteBAWkFyIUBLGhtUhhYds/f3QdiDYooq9KKBK6vZntMekRHcJItTrtsqCDKWQxiUftfveHzpSkLp1rBTo6NncntM5E0sHqbTSn7vwnhUW3n8S9zXQchNl6ttwX54pD+MT0wDyWYRe0iZSvQ+kf+HO78lh6YkJFIexhuCI2q+Y2dVydkV3MITrRQ3KU1eoS5s9v7XhMuQgtney1WIX11EgIZqWDaig4Hb893uQ5D5dFaiudIoiuBvRdlVLRHNKDWIExjbLIFfKQQhj9Ix8CEeWqFxBFyWraspaclUF7mEA1E2Szy2GVRmgedWkgPS6Ud8xedC7JitJUW6OQng4xnQcJIZTVwlO6eqHGbbAquRLck7Jen9HyuCrQbsY5VDajnc34zkrGK6g4SNgrpFf+RoH5HpAWpTe1Fmc4OpKGR4j6UfB4WHmzBftWA9H5vfOaUuKgDNtUSHXBEOPGtYTXgyHVFuV3yIMaJ3OBRvi4LHuspkcz6dnsmKVEue5xYU3hIKo/jvWJYozOYysJjsSlqAXGnSrbJJDvoZkYLebSfgV0XvUZJCsl5qjAjiN92CNcypSlJWS211wsdRB6ToVq1JgUztslV4vmhslmHTnodqB/lx+hIIzn0DE5z38qIARCcB+pDrBCMsYSDKOFRyjUbFUVQcHoc+q/3pDnY2KaekSF4P2DI2Xq0LZaoG55riUkeVP5ngWjRziFbqg4GItlLXzvzXIU6jq8YVr6UIZDnWVLouwDdj7xATsKMftzAa2urk59usJNd+MgJawsSueKXQS9nXi9J6bG7ULRCk82INKjuPce1W6oJaSTun/xZlMlJUFLjkuhivZYsdeLkQuUt9HtjnB3RuadGCPnZkV1GE0/VRbFkKWPKSFUzHq40I6zKh+2k+fn52vfVrwxK8YhfWbw0wg8kK60k8wgKau4kRDCfAF/w4f2XEDSxXSyht6RvxFQNmmuPYI7Jq0hlIAEVdaFk6WEpEcokj45HZyAI8/yk0eFIqCxJGVMiH3eup/bgL7eFiZ0XZdRCKHT+qozuCHp3iW05phu5RCKN0/Sa033ZiV6nwd0W/lFCMbSVi8ohBLUO+UQdfgnnLBmVHKeLlp5gX2aSyEVedITFJrSrNPprC+r8u3Bq0y3SC67BhBrSBhmwwcJ2zbo3oevtuCp7hkbq7V6aw7l6rKG+0CvWFHhSfD6EvOwokXeWqScpF8wUeoXQorjBAwjq5SiTC4rnfWvPRqky5c5g0S6P4KgIG9JoOeCSwWPEoJnwj9z8GPgQLmk1Wi/XMqGurPpAusbHkNoIZSqMnCZpyPs6/A1Y60lAbVEY7T30ULiuC6Z5MFuv4cWeDEZbDePRy9F3RzB/uX8tkSGbjh5IaGVQbSRegSfnCmjKap7Jh7X8vJ4MllMw9nlslyPeyMcdsoF5tBWJwKFk/2XyGfVPgMh+owNRs49O5uA0/eBYSuJ8/DyeOp62Dqu5ybqVmpgNrTbLyXson3TukKAmCv1jGNSkQdz2Id5/HCrIPJ4brUm4Vmhsr2PV9s/oiWlDdW8cpVfnRnESldxFgGMgN1Sym8KdGZdXa1BhoEtiKuVdh1M3NZLCa0FmC5vkhm0UkxXb93dPecTHJiAMHgrG24KYrFz5SnqUjsCP/5on/MTthJK+XhzsqFI9UFc6PCgBIbim/heWcyC5txJqRVIPal2z7yJLQi6Ic9eS2iBXuXxeo9AQerUaiyvy3XWRen5BMt7jAAYfD2IoqyY9nawoy8dWyeV4KwzBAsZ74qKy/Nk8vQ0wdZJ/1zpSsqtFaiYHjMd4SCcJhCE/GqPvUcJT1BhVrcRVFyROvh2dzqoslJ/3R7F9c3OkkNkhYxl9TvSJ9UfVts/Au7qEVKMR7ghiJOHpovot7a94IIeRUrc+BRCqE4W1hqkchtZ0A2lPozFo4TwtbxLaHVnxPa4roBQjaxcdp62reb3wcnjGIy7SX7gxFPLr384MCgEk0RE6ep0gKRIqkIPqSF641COOUvYSrugjMs6S2Ov69deNsSitH5w+SBhf02u3nll7UOrhKV7f+ngMwgCJllW83NRVAT0fdgX85IIj4ni03n+XdYCsx2Oo7mPLX+do3gJFsUjrUDl2XLXHG4fWiAW3YSt3fAmYb+3dHXh9tD+DlIdsjyl1YjDFxuqbZ0KPcl8ztH5sfD58Ezmd+lC1z+fLvIgXK+XklVBGIw3cRKAB+5Aga0CCmd2HycUkGMIJi8LI1FjsCihPBeVcj3tu9Xd2MbXIMpUgVOFpSvtMImh4Q7HYM/rLAw608V0zrzq255wJhXkuUMnHiVJnEq5RhfpXgTXz42nTDdS9NYCT0Hl9Rwfi3On9ieMNNAXNrJ45B4uAgdFrntfn2k1Si4u+mjHjJWDBDLi+ACJ+TufxPd3Dg5moKrHfpjLU74pido3Hqg33Vgj0HLsOl8My5sbPk4xmFTn+14X2DlBVS90VQPeCMlueFIkCqeFxETIORf4vMSZ/fjp3ZfIGE8v58rmAjOU5wlBIuwdc6iK6+b1nuCsCiMoyDBQd8FvEjLBVw+vDAwjzLIy73YXlVerN0e5I8KhxcSEKHy7Ol+m8V95Bt9tJdvnSRwfJFP7ISpQMVLldZdxH65jMUpB/s7dDW8SsjJ/kc9wmsCkzuHtVNbeeID8MtwrJovBczwYJX/9NZF24fkeKnBj+1CuWc0oVOTXCyagO39nWXsI9KKpsG469F++LBDB6bjNXH6gOwwCrRKOoBbS94svrM9+n9z13QM6S+GC88d1G4/mdXsY0YeqjNndbsRuvXoza8NhS/S468HVZzUHrPSncyGVvsHB5fSTz4f+gPZB8fqIoUevH1s3gzdGbxeB8mwVJ7B7fs1gKCHvoD3zx8cyORipmF7/2ght3iGVPtdGEhG1/MtqXETcOYFftE8uE/XbKS18xQHNS93sL9eZHvd7dcOm8n7S3e/DGFRnzNvEAs0bW+I4Fczdt/E9GacuCv8W3R3YjQ51ktcPIBpxWPQiXyQcS4CdV4dUjZZwUZdH8q4WLeGtEntuJLS6a0dypoO1S+hnpoYfYxIJV6ergyPrZ4HIxcO9Q5chy9uV2F/gI8N7CmkktNJmStMwJo8hSpd2tYYHUGQ4p9obhf2drzLd6c4cLrUCIeXT+/s/WIaWOm7eC5Ww6fT47fivEo6wgqE3z8Nm2LvNJHZQHYlGo92MSm5rNUr+3dleM6mEwup/uFSSRPdDHUE88S66KruHjLjJDfdQeJXQClycNV+Nd6iwqN/Wf7ShFWH3NwyfSyLVpY8jf/UXvHHmcl36owLV7qG+QDuTpzFmee/+VosuryEb3pL1TULr7D1OWrBMl830+uI/ah1vqkCNdfPC1fKbJKuJK0HPWPfvHVaPLG6c9eNrgjmR3VPdRVdgsrpddpcQ36Cz1bV5wvBpe9UI4yZGIfXicdIEvVGrcUUfDeerAZfgOsQtSs5eNdlD72HS6d72sKAv3fBBQmuMwde/+uwez0byAxRK9oPk11vvQI3aQsfCp7Nvqk2fQYF6xLwE32ev/KFXe1zd/NzzxdB56YaPElpHtNNrPMV3ePSzVlyBvh2E9jCu4akmKRXf837oWnGBg5IJ3Mq9vI5p2hyp4B42P/L+qvUK9+3cE9+jhC3M++oaltr2dSgJ5fw79+9eXMi+KFogfPX1ahygAge6Q5QsfRPQ+noWFW+T1kC3u7fIMsUAdJ996/L8ptINeYxC3X1T9lW59S69FHoZnCZs51SUH3w99FeEwtMTND3LZPsQCTT4KcuW+CSpHHemeQe15i2nyLjT2eEPabbO4PowXGcn/PXSqf9tgB2FPIdBBxl35nXkPWSz2RrIwoYM/5rNshNrZrLdzPVE9oXybVNRn9m6fqygXyTlnCD1Rx0yGSHQEesrPGzWBfxc/1Bfjv+pfyU19fNCyV/8aetXTN+lvrmu3uJIiK947lQTOL5eNSkd8m/AibA0mFFfvwXweUZnSqon+DC8GuaVzt/j5Y2DEEMXJEl6/gI1jrn3DYHrS+jOlMffvm70MdqFkva03/530p8yiS9Wf4KNDiHE+beCrYtUH37574Gk9V8g+Xc6kcFgMBgMBoPBYDAYDAaDwWAwGAwGg8FgMBgMBoPBYDAYDAaDwWAwGAwGg8FgMBgMBoPBYDAYDAaDwWAwGAz/KP8HHJpU9fkfpToAAAAASUVORK5CYII=" vertex="1" parent="119">
                    <mxGeometry x="44" y="74" width="40" height="40" as="geometry"/>
                </mxCell>
                <mxCell id="157" value="" style="shape=image;verticalLabelPosition=bottom;verticalAlign=top;imageAspect=0;image=data:image/png,iVBORw0KGgoAAAANSUhEUgAAANcAAADrCAMAAADNG/NRAAABI1BMVEXk6/Mbskv///+lrLTi7fOhqLAaskwas0rn7/fp7O+W0K4Ks0G+5NsAsz7k6vTj6vLQ19/DytL+//zs9Pbj7PBavGUAr0Fcw3f//P/W7dv6///j9OW4v8eu3Lhlx3/G6c8+tlrk6vu93sev2L//+f9QvFkVtkgAqUDV3ORcu2hQul/3//sArjq6wcmutb2j06lOvVe74MCJ0JjKz82ytcK0ubnr8u+krq7d5eTu+vDN3tiEyY35/fTC6MJMslmz3brd+d94xH1Mwl2SyZRZtmvJ475ut3V9y4eT1aiC05pBuWQhrk9bv4Cgzq57vpOJyqNSwG5qwo4nsF3A6Lrf/O6l3anU9+VgyXk4q1vf8OGx5caBzJ4AtzjA7NEAsSDu9uYWo0ePSaF+AAAR3klEQVR4nO2dC1/bSJLA5QZaJIogaUzTbmLsZIw0WJ5k8N0x640TmFvfIFveC3gNR0i45Pt/iqtq+SHrZV6xLc71mxkGW5b6r3p0VXUjayRZmNxaX9c2tXnIpvZvLGVoU0VLYmKEbWkbG3OBQq711+/kA8gSuchWfj6aGsrrtf+Qj88lnm1s5EHmhrX+emXt3x+dy5mbAY7k9crKAzQWz7X1bN5Uimtl7d4+FsfF5PzMbyzIdX+NxXEB1vzNUHH9ARp7NC5nfb6BcCBKX/fWWAzX1kJgDblW1l6ze/hYmAtOsQA2iDLkup/GIvpicsG40MfuDhblOlqdN5EvI33dS2MROxTPFo8LwO7qY1GujQXkurvGIlxbC+Jek1x3zjyiXIsR5cNcAPZArnnzDCXEhT72FLn++ONOPhblWl3EuDHKPMQT5LqLKWaK6w5gmeKClOr1U+Ra8Sfo2+gsa1y3zTwyx3VLsIXlWk/iArAMc20mc2FKNdXFFpUrRV+3MsXF5fotmeuPtdfTwBaX69VaMtd0H1tYLu1Vsr5WVK6YUa6Xyfq6hY8tLtdmKtY0H1tcLu1dOhhoLKVoWWCulMAx3ccWmOvXKVipPrbAXOu/TVNYSrhfYK5pkcM3xYT22yJzrU8J9b7GsseVmnMENJY5rlvExCQfW3Au7eXK9OAR52OLzqVtvppKFhfuF54LyF7+9m5tLQ0uBiwDXCibv75Mk1d/yyhXquRXN9afJpe25MqQLLmyJUuubMmSK1uy5MqWLLmyJUuubMmjcG2mFng/S1I32T0G1+brtXnIuzSwx+C6RavyZ8jayyfK9eonc23OievXn8ylvZy23PZTJE1djxXnN2cv6QNazl/ZkiVXtmTJlS1ZcmVLllzZkiVXmqzPXmbBNZ98/mUa27L+SlHXfLhWXqUoLMNcP78P8O5p9qO0zZevZi8/v3+4iLLkypYsubIlS65syZIrW3I7LjhsNVts+aM3G1O5jlazyKWFd5o/BS7taGMrnYuRxt+ncaXvjJ7HuvmGtvqikcIlpGD1f27kU5W1iOvmb/K/fGiKRC5GxMdPxXSuXxdx3fxN/u3vx5OPeQhySXJy8HvxzVHa0w9v8YcwP0VS62XkOjhJ0Bdoq/lndf/4TSb1dfCffzXiuASRQr6vbld/mfJcrJcr8/Cv9HVz4Krub/+DxXDhk34+HlS396dxzWPdfMqAkGu7Wv10CJEvxr9OWtXqwf4v07qriyfItb+9vV09ESzCJZwPVXgvs1wHBwfVP5tk+GSOsb7ef9rOMBfqZLv6j9Fzs0Zcper+Qca5qtXyfxHh2+KQ63tLEWea66B60DqRAS5WaX7wsbLNBWSnDT8mav7kdXGwnX0uJe99F/PtsHS2/US4qtulcdzY/XO7OuJalOdw3l4CXAcHv/+163Mxxurb1aEd/v6LX39lSrSNw5EdbldPpWgKrVkhxU/7T4hru/oePExzROFgf3/08lPgqpYE08juX1WIkGP/Ws/PYcX/gfImyHWwf3AE/vWBfioH5PR55uTz8+en5Qn5wLQi55Y+FrPGzcyJYZtBhpzBi1rZzHm5sVCqBw/JguQsS89NiGV5GvXCHDRjkqO5CIGu5Z6eINoT5cotubIjT5ULZcmVLbkHl47zINWDcyFGVpwcPerRwe9JH4Z3YMqBfykmAFZkTg0cmbOoOjYiOGvpyddAuQcXToV6LsyFWYsaJtXTrjmc+Ac/veGdiIoHB8HF4k6En9TjkYdydy7dUHd64no4SsM0ua7zYbqZ9Gkl3KhxGDLnhpGoL8viHlwoVl+6ZXDLsFJGeWcunbqlmz/tCBf3/iqWCpeF63bH4Olc3+hO+7hUKFzeFOstWks41CgXLw97VhyXZ9F2qdR+VDvkRSJEo2WMr6eDKZnl57uSCNXbarzt2tFLKsPTdc/inX8WHCIlHCoEcU7cjq2MN3y0V4IDTtCPI2jU/G9HVJzPHA58HC6w7AK2RS7MseGD9/PuybDjD3SyeeEZoQv6+WhONz33yGFkuO4hhWBN17Nzuhc++qxJJCNFrj4X5rrGM5QMPdb97sXlqXbPRW10Rpoz7LpTcUaNfkEEO+nFcEFc4eeXjJGJpWApK7tdbkxoBe16h8ENkqTLozZNjRKeosD1R9SX4iryMZfOv5KxBlT/WJJCyKmVvkzuMhl6qB/DzzLXtmK48P1GKPSqt03VJCxA5HgsrtyAqzacp3Rq7DSlA74inS+lw1IDPQcor2sTcRgcyNONYwFm6gA2aRTeHh4W1NIpw7WdYxPCwQgAz4v6wrdvbMsLj8LwubiVGOvvz0UH1zfoiaxIwpqHLd0wuFff9d1sz5pUGcTmopBCAnfzeI9aOC/Qs4umAEsUjjisfRt7S5CLtHk4oM+Ey2xXpCPJ91MwM9SL2VORRfR/BIdDqWW7zBFMVtjHq6FjUG72rsHeEMGtjfUywdXo8Hlw2RDgScU5NyFDQLO0TK8ArzTF3oQdUt4FpUqHNCBIWFTlT5iOmbVuH2jBFrvj+xDkapLSPLj4Hm4lIP/igyRDuTxBH3prBvIOavX6uOlAHvXM4PnQkM++KydreLo3PonPpaKK/Mwns5KZcLk4CzldKzAkDmFYkn4twGXxC9CWqPQ7PBT4wJJbDbUu/J7rYS6wZ5gW+i1LDxr1LLhqx8i1mwtyfXNxNwgJ5r9GC31LNLqmEeUyzhsI0WiZIS64OXg3yMmEr86Gq4QTUqEWvNXmOZqPKA+54D/GYQVsU7gmBJAwl0drx3AfmIRgP/jAgKvZ/LwLwUaSC4MGEH46F0jtRkBAi3BBiGNjLqp3GhXg/+IFVBhks/vgkLJRHoT0sb52PsDdgHSya9BA5jYDLl5EX9r1AnaYM3uXFUFK9uAlUBF/jomjaJsJXOZXRppMfB1MACMu8T/8GiY9Ind7pj6CmAlXHfctNlpB/7KM1nWpeGWNuAxP7TYreFZMKa37ChOMCThAH84fyMXIntnrC8w5r21rplz6jsQsAuL8oAZEh8Gy2TJyQ66ccdXErPDCpglcnlnE0UP9E+bS+TnkjzDBnRvjaXsW8zLHJE983wlUJvpABr9CzdXGHNZpTUTrCaE7g5wpzGVRqPhwz2S/N5rEZpMfQlCH4AcT06gwD3GB6or4od1yShntqRzY9euEAJehgxFXwNNIyZwpl2WrEVUa7R8256paCnPpNZUyliaLkYnzUss/xPKsSS6Yka2dBv6vqNuz4lJSO8cNz/DPSdGt13c82+R+S2rM5aMXw0V04LyecYiHfKFhfVnwAn+PliibLe55GDBnwkVzdlHIUQ0smtddT5/otVHLczBsuGZi2a5THDvk7p7KcYNc6t1LiYX1JbZBlO3PggvUcc0qg3pZYDem0DJVbj88gnuqnP5qeklxw6LgpshVjuWyWk2VKxZN/4bNggsKYSitHDkofUFgOvvK9ShXO5lLH3OF7VDdOrOOJ2CQdugP55r0/kQulU90S74pMgR0hONCNTKal3UPS39ST7ZDyzMHXJE4r05g2R+hdGMSQir2k2fBhQJgdMe9bDSarIJZHfj4KRSPIy5bmZFrJF7KoubAv1TDLcSFL/T6mDhj3y03Oy5AMAxu03Jnp11iAivNRtkcJblQU+OHDnlynM8Zb1U81OP0hascWCM0oS7fs2dkhz4XVWsjFucG/QoGg3d2lEdhoanGkUvm0o1LDAwFc6JOGcYNlddg1JVst/cgLh1DtQUuQid8ImZeHtOrTQdw0W4Dq0pZHvmXZWP2B85jJcUN79uVowIej+NCoQZVlli5tkG5D+HSTdO2uTWxjhPDRdXq0Dj4AYUKAaQ+jIlUh6QfY0q49RbkOlefOU/mgvvlCIhLUOw8kMtzL09cz5qiL9Mue9QaWRiFX3qqKimNYj28gvMyu45Zjxh8it8ojXb0SL4xul9mzWWqP9x5mB3yUyYqmMikc3k3RJZ6Y0WA6aIrCCGHfRtI/vgX5Gp8il3Owg+V1Qz3xdC9BC60C3qCLSr2pWY+iOujhFMfmoHMAU8/WHcYXh8qYSbl8bdgrxnMDoN9oOjnLriPQ56blqeHu4EwvXm1Q+zPsDbX9QQu7HyYZ0equf/8f2/uz2XxAs7wBT5RClpeiEv1N2SpFryAcY6NbFIec+m97xhKmleQCEV9zDJbDdz2/r2np3FBSFJ1HHE6D9JXCbsvTTsY63VLxS1IYUdch9i32bUnuNphrpxxQbAfV/oBMTZ0KYg0Hl5KMpdP4bL9CaNyiR3le3O5EjIicsYDKzW6cYqOQqAoH9qhi30byBOGfQFI8PmF4go2n8xOA9sF5HlkzQo+yN9D2ciYr64ULmrRToP4a0v3n5f5ngTPEdfcyg3KKfhB8c6yxpUxom/jYoqsm96gdIIftABWxfpBTWNZzfzoj0urelBqdYn9eVIftUzjuPyXja9NOSyJ7smle1+wi+x0DcvflwDy7bPAjidUvt4wHpaxbykLnmVRv0lj8a/Y8hNFI8Dlqea2MmHbCEJBjuJi8CTiho8WVJK5dH4tnIdxUQOLAyn6LT4chH3eqGDcgulzFOchcEicm6i/lIqLzb6tnFkBLqqbrT66GBhAzzaG9wlmgF4RizcpLnuGPl1futH7zh7IZXl9MHtZ6Xch7bByhmmfYkoN6qLw5qgJeu6g54jDXs3ilm7Yp8AOue/NqAWMgrPauWpTOOJ73cMTYprCc+1d4mBzvrlj0lFISeDyFbYzXPS9d97LVbyWovlxr0PpmVtw1CJrQ1V3o6Psj4Lhak7f3aG0vPfRwayXOK3wPJUzTtVQQZf969MziDSdvYs+IyqeNM+DlWgSl3rLfv8wLkoN+4JUlO0I1mw6lYrCgjoqyEVNegRvgHkKtVQMR4GOSds2wtfUTcjw0AIECHOaTchnhDJ10dgzc7fkAv+9FOS+cV6NWLd+/AtX5VEbUA07ymEdSBmDKQjkhq2+qLAmUy14dScFLvBHt13krM4Jrpsz6SjNS/jJoKoiJ63B5ukoV7gWRRc7U2Xq/e0QWzIu3Ht0F7gIZItMND77jfLxJAQZaadfAXOS2NzAW1BxXDunR64JE4DpuY5ahqzgHRBowI5wip5JJ+ohdKM9B3QaZ4eU1lQrlpzw6DVuw5VT0e28D9eXSkBZpZYZPgTj5A+3gdYlcXeGIJddnpC4U5NfXbDRCdEMKqWuHYycw3P6E3knyqXjHiOcSN7WkqimckF4Nrx2QXWbKuT7YbdmRrwGw/W32llx17dBedL2eOIuNbxT5XbpyPd86RRwe1RkB5yKexeQxEUrG3U5o3dERL+bsvFrWp8Ntz9yu/Oh7rrtHcpNS49sEsHJFYou+0er7dbd86sfmKAknc/DtIRz2m27rls/7dgcm8Dh5T7/nN36nmfEXQ7+0/lav0puA023Q9y9qFsGCFc7sLxI2qoOo6pq5nicofZNJp5QV10YbPPg7kPsLiUdDjeUx+8/xFBt8MQ9RLfgGg8ndddpIC+65cmmH3rLkyXIkitjXFaKM2RU8IZoNLodM+uCmtauUoJyRgUnbq3NnyCX1dVubJhp9cHvt3b9hZPg2D3Kj7VK3cSd/DT3dLj0b1dMk6w9ahA+DS5qeJdEg2S1WLY5z42bRLn7/PXmHCXIhX9J0rocPM+hcQ11/oBJ5yobzJoMqejVhxssf/3nilRIY7fgy4sXpReZk7+/wKGXSqXClyZuSRhwqd0Vg2bI+puNZ1mTfH5r0HrDldLgc2CGVKS5tbGqbWRO/h8/N3XJtSiy5MqWLLmyJUuubMmSK1uy5MqWLLmyJUuubMmSK1vyZLny2rMlV3YEuLamc20+Va60r61YTFndnM4ls8eVX90U07m0DHKthrFiuNanfU3E4slqfioXgGXuwd+r+Yh7RbkIezbvcd5VVqMQMfqCyDHvgd5RotEwVl/kaHUjQ3PYajTZiOUixMlrGeLSNBnDEMfFZD4zX4YA2oqxwnguwo6yExM3I19Bl8xFiNjQVsHL8ov5XXvDQcGPmBCfxkXks01AW2wuGF40gZrCxcjWRt4/w8Jy5f+2lYSVyEXUV3RubCws1+ZmgmdN5cI/39g6yi9gGpzP558dxUX3sfwfMQg9iIuAGHAAAAAASUVORK5CYII=" vertex="1" parent="119">
                    <mxGeometry x="114.5" y="74" width="40" height="40" as="geometry"/>
                </mxCell>
                <mxCell id="158" value="" style="shape=image;verticalLabelPosition=bottom;verticalAlign=top;imageAspect=0;image=data:image/png,iVBORw0KGgoAAAANSUhEUgAAAPkAAADLCAMAAACbI8UEAAAArlBMVEX///8ArdQ2NjYAq9MArdMyMjLc3Nz//v/V1dU0MjNEQ0M3NTb4+PgwMDApKSk1NTWWlpa/v7+rq6uoqKiNjY16enplZWXk5OQ+PD1RUVEAqdPGxsa1tbX5/v5LS0uioqPx+/3v7++BgYElJSXo+Ptubm7d9PnOzs7q6upiyeM1u9uX2+yv5PDD7fV91Olbx+Gf4O696fMsuNqH1+pdXV3S8vdGwt5nx+McHBxoaGj8lbkSAAAQkklEQVR4nO1di2KquhIVA7WKQG1rVVot1kcVEREf5+7//7GbFxggQehD0LL22ftYgTArM5nMTAKt1SpUqFChQoUKFSpUqFChQoU/jQb8U7OcnetZ9Oe/BGspmUDeTIuW48KASt4BIEkScP+Ywmu1gy9h6vKhaEkuCqjmpSlhgOWwaGkuCEh8KwPKXHaKFueimB4pcUjdtv7SUF+FxCH13R+y97nPMvf/hpNDhj10AQipy3/Jya1lRuUI29pfiOMatSF0bzJj7RI4/pFIzjMlWWZVDsCqaJkugrktRXnDn/x50VJdAm5skCOY7h9wcgc5SRzqfVu0XL+OYRCwx5R+vHmlO/EZLdD6rYfvlg8knrnL4Nad3IqvcTSzuUXL9qs4+BJX5dDFAemmw/elUOU3XqPYAhFzFM8Ar2j5fgM4H7E2QuKYvG0VLOXvoNGo7VKJw0l9V7SQvwGo9KkvmMsJoLnf6Mw2dLnRW8TeN0UL+fOAKl/7Z4wdUV8XLegvYJiB+G3WKByTG8LEB/vt1SjmfgbeiPrNOTlePYJH3Lyt8L1RO0jZmN9cjUJQj+BSv60ahZOZtyyZ3g3V3i07K3NUfbdvyMntMts6Jn87Tm6eJYhhLf5mahTCeoQA5tIqWuSfwVpQjwCC72XpJvZRNGrTI3+UA3m34g4DmK7aVx++oy1/gnIrQMUnh3cMABncQo0CuTcuv42FIhyu0sEN7KNo1FA9gru2gFPxAy+RwYXYoiX/NtbcRRU4lOnqKSeTQYvr1x++D4/cUQ7CktvUFriBa69RcF2YhINzCo9L/OprFHO+RgE4WsEpoiL8lRdid9BP80a5xIQqa4lzCjKL6w3fG7WDaLE8soQmKNdcs5Pjz9YkJWFScH6JDoYzm6vdEesIqq1gFWXk8cJbGL1f7RLjlD+jJaNyS3Ciea3hu2ABEYDoZk92t3tM61dao+AGpnivZ6zE2EAOgT/7kfD9yga70L3Fk5EGJDbnTX6o+r5BvXRlzLf8CjvgTNPoSSZuL8Emrq9GAeNx/lYg34qdiTWa2RuWHx43J4d/BTOVYwqor67M2nnRiQzdmInqEVxs+Hn81dUouPsjYKZurkUqXAu2yoHr2gYtcG+pE/SOq/RodlNq4Ed0NoA/S6VlnpYvmNRPGW35wXVvaEZLDcQdrqHAHkQ1iuvwcsIZzU4dstZR4N+vZolx+NWEm/u4g4RWmy4j+Ldx4KycIE7nt/TyAl5UiZXX12DtjaFwNSk9HGvQRVcOeyCMAkoFhz8tn085IfWVaKH9GmoUAvcmZyqgDwXVd9O/gvB9xy2l4kd0zoxVdNiReZM6/LL8S4xzYTyS6XK0LTjZcSBYhisx4Iwmc31UVsnngkK1uSm5exc9jmbusgrOrd6hVclyh++iKirI7qH4S4ylf1QbB+y8taIcs9KW0wQOhDKbzWWBhRJt/xLXI3iAdsPzkuVdYmykbP/K5Zj55Wo4tZX0gTb0vAbf1PMuGKCMh/+o9tmQoCAIVsKh7S6nVh6Rpz63OCOfyXKLg2j3A+TuH3dODte8EjVUzvB9mra7FQDgH71DxhUTZD3cgAg5ufIZfPqGZkjEBP7Sy6b5tWj9uYw1inOPo6H9gEjz7jzLYBUtMZYxfBdEbyedU9lNf5lBetGjTvkig4tgm3knNxzCGbh7/Fy3bDUKtKFZJClXc7J7zlVZoh2CiRXJgrHjF9C4GpfwHsiVld6icJMNep1cefz7PIU2tzYlA7BJN3nxzoMyObm0B6xBwD1GRAbyKtXL4/SH021mturOZbCVzwxyQN4eEmMPNqnZl+gVBWZ5dggKNjRjzeKEk7zUFkhMcRL3FbDFlou9JndhskQ1Co9fNQQIsuz7NvyDIKMvAr3jGgaQvRSLdwSpX2kKsWw9gg5pSBBSProrZ7s+zKcYh8PW2S1tn9SVAd5CgR7jEVMfCpK/0tQo3EikiVj7m523nlu8k4fTtefaKIhHeSc6PeXhtIMvWLVwh2WY1w5IfXgIyzgwX67WUwsfacTEC34eWgdv6ZNBDP8uxcNW5ORKsQ0a1yOIBwP2f5D16VAjGnI0Ih/mjutTzyeOxfmFWBmvxBeudRxryZIp+UsnkoaJJQtUP1/ZyOPLKe/KEuy+KEWNAi1/Atl211biUJR73PYRhtuNDLM3scMabvg1OakEm8XQPoGlM03s4sUPKEZ2NHONwNouj6JBiy7YcmszyMn9jPjfwXRLu5+n06GFMQw6Jn7O+cHqct/GAn1qScL3pEqtg+Pt3OUGw4Uz+1pon6n0RasXpdxHYUG/ffRlEwIQ4I+yvVmtWSfIG/lJePzleFSjKNy9E5w8Np6rE7kZidxtOAPka1e0DVpC26DLw33u2VDBAn9MQlYTHFeZqpABRFtJy/JAG+r9g+vL0ZQsARl7J9/NMSmlPR1RAp030NxM358g04GYQt+Uj46VtW3eBjt8i3K8dGftpr7xLyE1kDfbrBW1nSl4NARHAsXqfe5KZq6Xxkgy9PvHbbblJuso6D3o5Aq29zV6SVCOsjMRHPqDs9VnAu5iJUg+7XhpWC5J1nLyRiCV97MQOTlJLtTJzfO+KSfaA7aXweRFb1krcImxUdv6IJdvSwgPuZ8vKYoe9Sxws5iDXqGRd4jHqEPu52xeuK5c1Mw2XIGgtPxloLgWjndOgh+iIWQuFfV7PXj7OuKxKwj/ETJHJ8gbQVBLf22PiPnlH/CBAg3PLSTKhHO20QAVf1xtp1b0HjWU+3kp78Iu5J1qO+6rMQhbWpREL4HK+NpPlM7AVHa5cg6hxxtO185u46d0byE+bsd7IxQghNHaim/bdrC0ktUH4s7y/eNxiXA8kqvFl8tSASsuXnDviNymLNsb1wsWVw6HNVlakQSPZLEXk7ZkGQQFjeAVcmnT5uWZRx+sw4UHtKDkrafDpKMaTrfuUWbX1H4I4PIF6GjqiAsOLjNAObDWK/u85nNCvvDTDg38XqSABCqZb7yDdf466+DanErVd3DpZ/Mt8tJebOOmvCS7GxFS4290cOodf5L4xWtSO4CfHURj+7jKOaEOt8vk/okvgMyfF1Y5LQqiLY0o6MydKK5dwSNOeclf+tet4pefQdHt1Zc7fP4j3C/+e2Zd/LzFJs/G7STmO9uEY+YbaR4w7Qv/7kkHDe/l1vrOTbGzW9lf03uY41x618gRevOf2bQAHT3g73pL1TX510/fT/cb8JbbH7un5R1lAPLZPMkAN4eiC87fAF5StJxN3moWtJMf7Px84v5ca3h1ZpmHe7BIcb0aZ3HY4aiW//RKSBnZuQn8HYrURZswrg9T5yjTdEawSYKGjF6uhdjrAFQ89XZyXNnkrVP+Mm+kfA0gv3tu6yLy0WQOQAuHhm4vPbSt8kZMnANr7uz+Q0UoiRZmJN8/urstfzPprWE4nR+2jrPa7TzHORzm1u2N7Oy4XSPnoxH7/82D7qCMfVOhQoUKFSpUOI/23f0Jd4vIofskxujAgpzc5rYRIDja7t1B9No1EcjFPdHhxV2v14sKVhtHbwHv0EMnpcmcxGddCVEfvTx3TiJ2+koc+jtqvauhz637sI3kiYrySg8+jxAGbyJm4wFqTdsv+Id7e3R5axbpmWddUQyl3iE/vQ3wLUZ92ERHS8r8yG+5o6n1EIqmTwaPAfcnrR6H/oyYvyjos/EatqEkTqxrlOr9RDEgtJGg52u9voHuPBAo/WGiYvGf2S+7uqrWVY1Q6tQ1eIOm0kSnPOpJmR9EzGMnNrVnKuRTU8ScXHNiboiZP1BR9I6QuZrCfLEnQigtdrhA5vW62sTMFyPU72pd7465zFUxczV6IhTyZfxt5ipl3htQe9D+CZSezvwpEG/CDheG+XiGuKqqNsDtf4M5akX/aOdjLrb2p+CQ0f/8AvP2vknF02ZMzzHMH4iQzRZpnsNcS2du6AiagZVe154Y5k39hP898Ji/avigouKmFPzDBFt3exR2itb9AvOOXg8VwwyXE/NAfI0excxVKgOV+T2NudF6f3x8fJj1SZcZrXHInByieLrjMR+/4WNEP8qAnI9V9DoJ+96o8+05jXn7I1AhNGem50LmdwMNd7cWOEDCPJCBQOA7CXOtSxxIb0Z0NHkMmesfCXnizCnetXBABF3SZfynYLylMb9vhR4E6jGcRQPmb+1/GrHRj8D/EeZJmc8yry0IKw05yvzM1Rjz+xYz4BT+lJ3G/IGdeCanngt0/k5MQhuELZNx/hXmcMxi6x/1AubK6PEtwGs7nXlc5x90FBLNKdyQIoX5oqXQgUJ6LjwFM6+rAxwKQAlPzjOw9rjMGZi3R2i0qupn6OEU4r90TdP792eZqwzzRd9Ao9DoEwm1fzwhUpi/TajXwQ7EIH73xLyu4GZD7xYyP8msQ5nvMjKvzTQyhjizGp2Z0pirLPOnCfqirrx94OFoaPEr0pmPyX2U/WeLWN8gKMxR5kQohfUfiVnNqN8nGhYw/8CaU56+zxxJjogPFq91QxUNPzFzGiBBz0gcpaEHd2SZK102RPouc/VHmL+hk1Qk+RgbUp1JcjIwb1O+xl3ttU/6IJCSZX4aA99lPiMmxlq7QVwU1Fsu5qQlQ4MD7Y24Ol44JWR+T73D7NQJQc9FrH3EykGYq6oaTIfZmQdRF+PhaFswOxrd5WB+rxHJX9rtNqEHvXByYhMyf9YDnbZrj8TXBQELyxw2yvgwqnPoElWKUVYP19FJR55mtUHnNQDpvmzMG1RytfXR7XbpzMTJlUXMg1zH2H90P17o59aCZa6Rb7X9Sa2EubaPy3yeeW9PI5n212K4E/MwSzM0CBLSQwNIZGwi5mGuo8DLg8+TR5b5jCSoME8LL84fw81IjPJJiJOckDBPZhoB83jGHWV+qmugcRLaZmJiEzBv7zkJYNBzhLny9omGImxe/xdcnZu50Xp+eHj42PeJuEokY0GHAtyfmBsvzPevcebj0WlmUEPiKuNKI8yNepdp7Q7JxSl3wPM6IXOUsbz1m9TgxwxzOPSfo62JmUORcJRG70aSa+rhDI3J+Nj8nEkFJ/8aMeadiUpZU2C9w//Hxx11fuxdJu/Qm5+mJ3x1oPRZhDm0LOpAuguGeVTm9PxcZRRTT1QmVOrb1UhlgqGlzGI6h1kaJdRUFPif0iTXJCsklDnbnvZe++zTYD2AFoTw9xHm7WeFGhMZr6f5POzxzHU4KOwsWo1iupytQLLQAuZB3P7ZJxf1Hzokceh0yezYjA9olnnQ2nvtmZrVPkw96GyLm2dqMu3nCdHN5Lld+1YF0tCMUwUyIZOIeajzIFfDkkPthYlzbbEnNZt4xtbrJwa09tRrGSQAODnENyKNgXoODQWVtjSeUQbKR07mejMEtCldmYU3e9KaESiGMaHWbkDzZaHN0DjXYQvklDtUBYY/TZhR/aQb6LvQGQXM69GmYBP60/sEfVD0/ckfjv/p6EQFEelODKNp0KrzYqY3cRP/e4chjx4XzRAx/2wxGLw8fDIrDaNWHH280vDRT3yP+vvtdMorPYOdERcv5LtR1NzH++Rd3p7p9WzBtXO61QM5TKfVHm24BfP0TkI02BqfeQ0v/hD0xsJDAXC/jJPfoyvbzCk95nPIkd4lJsCCc5c279ReeKt29GibkS7Z2J2oNFGhQoUKFSpUqFChQrnxfyA/ggZHox1AAAAAAElFTkSuQmCC" vertex="1" parent="119">
                    <mxGeometry x="188" y="74" width="40" height="40" as="geometry"/>
                </mxCell>
                <mxCell id="162" value="&#10;&lt;span style=&quot;color: rgb(240, 240, 240); font-family: Helvetica; font-size: 12px; font-style: normal; font-variant-ligatures: normal; font-variant-caps: normal; font-weight: 400; letter-spacing: normal; orphans: 2; text-align: center; text-indent: 0px; text-transform: none; widows: 2; word-spacing: 0px; -webkit-text-stroke-width: 0px; background-color: rgb(24, 20, 29); text-decoration-thickness: initial; text-decoration-style: initial; text-decoration-color: initial; float: none; display: inline !important;&quot;&gt;OUTRAS FONTES&lt;/span&gt;&#10;&#10;" style="shape=datastore;whiteSpace=wrap;html=1;" vertex="1" parent="115">
                    <mxGeometry x="98" y="444" width="114" height="127" as="geometry"/>
                </mxCell>
                <mxCell id="163" value="OUTRAS FONTES" style="shape=datastore;whiteSpace=wrap;html=1;strokeColor=default;perimeter=rectanglePerimeter;" vertex="1" parent="115">
                    <mxGeometry x="98" y="243" width="114" height="127" as="geometry"/>
                </mxCell>
                <mxCell id="164" value="&#10;&lt;span style=&quot;color: rgb(240, 240, 240); font-family: Helvetica; font-size: 12px; font-style: normal; font-variant-ligatures: normal; font-variant-caps: normal; font-weight: 400; letter-spacing: normal; orphans: 2; text-align: center; text-indent: 0px; text-transform: none; widows: 2; word-spacing: 0px; -webkit-text-stroke-width: 0px; background-color: rgb(24, 20, 29); text-decoration-thickness: initial; text-decoration-style: initial; text-decoration-color: initial; float: none; display: inline !important;&quot;&gt;OUTRAS FONTES&lt;/span&gt;&#10;&#10;" style="shape=datastore;whiteSpace=wrap;html=1;" vertex="1" parent="115">
                    <mxGeometry x="98" y="645" width="114" height="127" as="geometry"/>
                </mxCell>
                <mxCell id="149" value="" style="sketch=0;aspect=fixed;html=1;points=[];align=center;image;fontSize=12;image=img/lib/mscae/Docker.svg;rounded=0;shadow=0;glass=0;fontColor=default;imageBorder=default;" parent="1" vertex="1">
                    <mxGeometry x="535" y="80" width="49" height="40.18" as="geometry"/>
                </mxCell>
                <mxCell id="93" value="" style="shape=image;verticalLabelPosition=bottom;verticalAlign=top;imageAspect=0;image=https://raw.githubusercontent.com/spark-notebook/spark-notebook/master/docs/images/spark-logo-192x100px.png;rounded=0;shadow=0;glass=0;fontColor=default;imageBorder=default;" parent="1" vertex="1">
                    <mxGeometry x="548" y="133" width="129" height="57" as="geometry"/>
                </mxCell>
                <mxCell id="166" style="edgeStyle=none;html=1;exitX=1;exitY=0.5;exitDx=0;exitDy=0;shape=link;" edge="1" parent="1" source="119">
                    <mxGeometry relative="1" as="geometry">
                        <mxPoint x="358" y="180" as="targetPoint"/>
                    </mxGeometry>
                </mxCell>
                <mxCell id="236" style="edgeStyle=none;shape=link;html=1;exitX=1;exitY=0.25;exitDx=0;exitDy=0;entryX=0;entryY=1;entryDx=0;entryDy=0;fontSize=15;fontColor=#000000;" edge="1" parent="1" source="209" target="39">
                    <mxGeometry relative="1" as="geometry"/>
                </mxCell>
                <mxCell id="237" style="edgeStyle=none;shape=link;html=1;exitX=1;exitY=0.5;exitDx=0;exitDy=0;fontSize=15;fontColor=#000000;" edge="1" parent="1" source="199">
                    <mxGeometry relative="1" as="geometry">
                        <mxPoint x="1204.3087840360754" y="669.2352941176471" as="targetPoint"/>
                    </mxGeometry>
                </mxCell>
                <mxCell id="238" style="edgeStyle=none;shape=link;html=1;exitX=1;exitY=0.75;exitDx=0;exitDy=0;fontSize=15;fontColor=#000000;" edge="1" parent="1" source="186">
                    <mxGeometry relative="1" as="geometry">
                        <mxPoint x="1204.3087840360754" y="583.1544512580424" as="targetPoint"/>
                    </mxGeometry>
                </mxCell>
            </root>
        </mxGraphModel>
    </diagram>
</mxfile>